<?xml version="1.0" encoding="UTF-8" standalone="no"?>
<!DOCTYPE svg PUBLIC "-//W3C//DTD SVG 1.1//EN"
 "http://www.w3.org/Graphics/SVG/1.1/DTD/svg11.dtd">
<!-- Generated by graphviz version 12.2.1 (20241206.2353)
 -->
<!-- Title: G Pages: 1 -->
<svg width="690pt" height="707pt"
 viewBox="0.00 0.00 689.96 706.95" xmlns="http://www.w3.org/2000/svg" xmlns:xlink="http://www.w3.org/1999/xlink">
<g id="graph0" class="graph" transform="scale(1 1) rotate(0) translate(4 702.95)">
<title>G</title>
<polygon fill="#fdfeff" stroke="none" points="-4,4 -4,-702.95 685.96,-702.95 685.96,4 -4,4"/>
<!-- 103209978926087 -->
<g id="node1" class="node">
<title>103209978926087</title>
<polygon fill="#fee548" stroke="#34262b" points="358.21,-363.47 349.53,-363.47 346.85,-371.72 344.17,-363.47 335.49,-363.47 342.51,-358.37 339.83,-350.12 346.85,-355.22 353.87,-350.12 351.19,-358.37 358.21,-363.47"/>
</g>
<!-- 1230160502988882 -->
<g id="node2" class="node">
<title>1230160502988882</title>
<polygon fill="#fee548" stroke="#34262b" points="621.96,-416.5 613.28,-416.5 610.6,-424.75 607.92,-416.5 599.24,-416.5 606.26,-411.4 603.58,-403.15 610.6,-408.25 617.62,-403.15 614.94,-411.4 621.96,-416.5"/>
</g>
<!-- 125856070581408 -->
<g id="node3" class="node">
<title>125856070581408</title>
<polygon fill="#fee548" stroke="#34262b" points="128.96,-670.15 120.28,-670.15 117.6,-678.4 114.92,-670.15 106.24,-670.15 113.26,-665.05 110.58,-656.8 117.6,-661.9 124.62,-656.8 121.94,-665.05 128.96,-670.15"/>
</g>
<!-- 149114173335496 -->
<g id="node4" class="node">
<title>149114173335496</title>
<polygon fill="#fee548" stroke="#34262b" points="542.48,-281.7 533.8,-281.7 531.12,-289.95 528.44,-281.7 519.76,-281.7 526.78,-276.6 524.1,-268.35 531.12,-273.45 538.14,-268.35 535.46,-276.6 542.48,-281.7"/>
</g>
<!-- 155147806452639 -->
<g id="node5" class="node">
<title>155147806452639</title>
<polygon fill="#fee548" stroke="#34262b" points="486.96,-115.15 478.28,-115.15 475.6,-123.4 472.92,-115.15 464.24,-115.15 471.26,-110.05 468.58,-101.8 475.6,-106.9 482.62,-101.8 479.94,-110.05 486.96,-115.15"/>
</g>
<!-- 156364735562291 -->
<g id="node6" class="node">
<title>156364735562291</title>
<polygon fill="#fee548" stroke="#34262b" points="426.96,-676.5 418.28,-676.5 415.6,-684.75 412.92,-676.5 404.24,-676.5 411.26,-671.4 408.58,-663.15 415.6,-668.25 422.62,-663.15 419.94,-671.4 426.96,-676.5"/>
</g>
<!-- 240070160009025 -->
<g id="node7" class="node">
<title>240070160009025</title>
<polygon fill="#fee548" stroke="#34262b" points="161.96,-115.15 153.28,-115.15 150.6,-123.4 147.92,-115.15 139.24,-115.15 146.26,-110.05 143.58,-101.8 150.6,-106.9 157.62,-101.8 154.94,-110.05 161.96,-115.15"/>
</g>
<!-- 243582352371835 -->
<g id="node8" class="node">
<title>243582352371835</title>
<polygon fill="#fee548" stroke="#34262b" points="503.48,-463.7 494.8,-463.7 492.12,-471.95 489.44,-463.7 480.76,-463.7 487.78,-458.6 485.1,-450.35 492.12,-455.45 499.14,-450.35 496.46,-458.6 503.48,-463.7"/>
</g>
<!-- 24528728837243 -->
<g id="node9" class="node">
<title>24528728837243</title>
<polygon fill="#fee548" stroke="#34262b" points="642.96,-102.15 634.28,-102.15 631.6,-110.4 628.92,-102.15 620.24,-102.15 627.26,-97.05 624.58,-88.8 631.6,-93.9 638.62,-88.8 635.94,-97.05 642.96,-102.15"/>
</g>
<!-- 248960157567190 -->
<g id="node10" class="node">
<title>248960157567190</title>
<polygon fill="#fee548" stroke="#34262b" points="122.96,-466.15 114.28,-466.15 111.6,-474.4 108.92,-466.15 100.24,-466.15 107.26,-461.05 104.58,-452.8 111.6,-457.9 118.62,-452.8 115.94,-461.05 122.96,-466.15"/>
</g>
<!-- 253352561534995 -->
<g id="node11" class="node">
<title>253352561534995</title>
<polygon fill="#fee548" stroke="#34262b" points="681.96,-193.15 673.28,-193.15 670.6,-201.4 667.92,-193.15 659.24,-193.15 666.26,-188.05 663.58,-179.8 670.6,-184.9 677.62,-179.8 674.94,-188.05 681.96,-193.15"/>
</g>
<!-- 253600606633879 -->
<g id="node12" class="node">
<title>253600606633879</title>
<polygon fill="#fee548" stroke="#34262b" points="235.31,-283.15 226.63,-283.15 223.95,-291.4 221.27,-283.15 212.6,-283.15 219.62,-278.05 216.94,-269.8 223.95,-274.9 230.97,-269.8 228.29,-278.05 235.31,-283.15"/>
</g>
<!-- 298774613720463 -->
<g id="node13" class="node">
<title>298774613720463</title>
<polygon fill="#fee548" stroke="#34262b" points="252.96,-50.15 244.28,-50.15 241.6,-58.4 238.92,-50.15 230.24,-50.15 237.26,-45.05 234.58,-36.8 241.6,-41.9 248.62,-36.8 245.94,-45.05 252.96,-50.15"/>
</g>
<!-- 33460752933766 -->
<g id="node14" class="node">
<title>33460752933766</title>
<polygon fill="#fee548" stroke="#34262b" points="317.96,-661.15 309.28,-661.15 306.6,-669.4 303.92,-661.15 295.24,-661.15 302.26,-656.05 299.58,-647.8 306.6,-652.9 313.62,-647.8 310.94,-656.05 317.96,-661.15"/>
</g>
<!-- 360051049043076 -->
<g id="node15" class="node">
<title>360051049043076</title>
<polygon fill="#fee548" stroke="#34262b" points="321.48,-541.7 312.8,-541.7 310.12,-549.95 307.44,-541.7 298.76,-541.7 305.78,-536.6 303.1,-528.35 310.12,-533.45 317.14,-528.35 314.46,-536.6 321.48,-541.7"/>
</g>
<!-- 393035298143192 -->
<g id="node16" class="node">
<title>393035298143192</title>
<polygon fill="#fee548" stroke="#34262b" points="408.96,-24.15 400.28,-24.15 397.6,-32.4 394.92,-24.15 386.24,-24.15 393.26,-19.05 390.58,-10.8 397.6,-15.9 404.62,-10.8 401.94,-19.05 408.96,-24.15"/>
</g>
<!-- 436819829846544 -->
<g id="node17" class="node">
<title>436819829846544</title>
<polygon fill="#fee548" stroke="#34262b" points="612.31,-608.15 603.63,-608.15 600.95,-616.4 598.27,-608.15 589.6,-608.15 596.62,-603.05 593.94,-594.8 600.95,-599.9 607.97,-594.8 605.29,-603.05 612.31,-608.15"/>
</g>
<!-- 5591408610389 -->
<g id="node18" class="node">
<title>5591408610389</title>
<polygon fill="#fee548" stroke="#34262b" points="335.96,-234.5 327.28,-234.5 324.6,-242.75 321.92,-234.5 313.24,-234.5 320.26,-229.4 317.58,-221.15 324.6,-226.25 331.62,-221.15 328.94,-229.4 335.96,-234.5"/>
</g>
<!-- 92857264956831 -->
<g id="node19" class="node">
<title>92857264956831</title>
<polygon fill="#fee548" stroke="#34262b" points="226.96,-388.15 218.28,-388.15 215.6,-396.4 212.92,-388.15 204.24,-388.15 211.26,-383.05 208.58,-374.8 215.6,-379.9 222.62,-374.8 219.94,-383.05 226.96,-388.15"/>
</g>
<!-- 002 -->
<g id="node20" class="node">
<title>002</title>
<ellipse fill="#dbde92" stroke="#34262b" cx="117.6" cy="-595.6" rx="21.6" ry="21.6"/>
<text text-anchor="middle" x="117.6" y="-587.88" font-family="Helvetica,sans-Serif" font-size="18.00" fill="#34262b">002</text>
<text text-anchor="middle" x="91.12" y="-618.85" font-family="Helvetica,sans-Serif" font-size="18.00" fill="#34262b">1</text>
</g>
<!-- 002&#45;&gt;125856070581408 -->
<g id="edge1" class="edge">
<title>002&#45;&gt;125856070581408</title>
<path fill="none" stroke="#34262b" stroke-width="0.75" d="M98.22,-605.61C87.13,-620.6 88.15,-648.45 101.27,-661.08"/>
<polygon fill="#34262b" stroke="#34262b" stroke-width="0.75" points="99.05,-663.83 109.43,-665.96 102.65,-657.82 99.05,-663.83"/>
</g>
<!-- 002&#45;&gt;125856070581408 -->
<g id="edge2" class="edge">
<title>002&#45;&gt;125856070581408</title>
<path fill="none" stroke="#34262b" stroke-width="0.75" d="M136.98,-605.61C148.07,-620.6 147.05,-648.45 133.93,-661.08"/>
<polygon fill="#34262b" stroke="#34262b" stroke-width="0.75" points="132.55,-657.82 125.77,-665.96 136.15,-663.83 132.55,-657.82"/>
</g>
<!-- 002&#45;&gt;125856070581408 -->
<g id="edge3" class="edge">
<title>002&#45;&gt;125856070581408</title>
<path fill="none" stroke="#34262b" stroke-width="0.75" d="M129.58,-614.14C132.05,-627.22 131.51,-644.35 127.95,-655.66"/>
<polygon fill="#34262b" stroke="#34262b" stroke-width="0.75" points="124.89,-653.96 123.19,-664.41 131.04,-657.3 124.89,-653.96"/>
</g>
<!-- 002&#45;&gt;125856070581408 -->
<g id="edge4" class="edge">
<title>002&#45;&gt;125856070581408</title>
<path fill="none" stroke="#34262b" stroke-width="0.75" d="M117.6,-617.59C117.6,-628.18 117.6,-640.67 117.6,-650.52"/>
<polygon fill="#34262b" stroke="#34262b" stroke-width="0.75" points="114.1,-650.43 117.6,-660.43 121.1,-650.43 114.1,-650.43"/>
</g>
<!-- 002&#45;&gt;125856070581408 -->
<g id="edge5" class="edge">
<title>002&#45;&gt;125856070581408</title>
<path fill="none" stroke="#34262b" stroke-width="0.75" d="M105.62,-614.14C103.15,-627.22 103.69,-644.35 107.25,-655.66"/>
<polygon fill="#34262b" stroke="#34262b" stroke-width="0.75" points="104.16,-657.3 112.01,-664.41 110.31,-653.96 104.16,-657.3"/>
</g>
<!-- 455354753305299 -->
<g id="node74" class="node">
<title>455354753305299</title>
<ellipse fill="none" stroke="#34262b" cx="117.6" cy="-523.6" rx="3.6" ry="3.6"/>
<text text-anchor="middle" x="109.12" y="-528.85" font-family="Helvetica,sans-Serif" font-size="18.00" fill="#34262b">1</text>
</g>
<!-- 002&#45;&gt;455354753305299 -->
<g id="edge36" class="edge">
<title>002&#45;&gt;455354753305299</title>
<path fill="none" stroke="#34262b" stroke-width="0.75" d="M117.6,-573.61C117.6,-557.23 117.6,-536.27 117.6,-527.62"/>
</g>
<!-- 009 -->
<g id="node21" class="node">
<title>009</title>
<ellipse fill="#dbde92" stroke="#34262b" cx="161.6" cy="-244.6" rx="21.6" ry="21.6"/>
<text text-anchor="middle" x="161.6" y="-236.88" font-family="Helvetica,sans-Serif" font-size="18.00" fill="#34262b">009</text>
<text text-anchor="middle" x="130.25" y="-267.85" font-family="Helvetica,sans-Serif" font-size="18.00" fill="#34262b">13</text>
</g>
<!-- 009&#45;&gt;253600606633879 -->
<g id="edge6" class="edge">
<title>009&#45;&gt;253600606633879</title>
<path fill="none" stroke="#34262b" stroke-width="0.75" d="M176.54,-260.37C185.23,-266.34 196.21,-272.58 205.43,-276.76"/>
<polygon fill="#34262b" stroke="#34262b" stroke-width="0.75" points="203.91,-279.92 214.49,-280.26 206.43,-273.39 203.91,-279.92"/>
</g>
<!-- 009&#45;&gt;253600606633879 -->
<g id="edge7" class="edge">
<title>009&#45;&gt;253600606633879</title>
<path fill="none" stroke="#34262b" stroke-width="0.75" d="M182.73,-249.66C191.08,-253.64 200.5,-259.05 208.24,-264.3"/>
<polygon fill="#34262b" stroke="#34262b" stroke-width="0.75" points="205.92,-266.94 216.04,-270.08 210.09,-261.32 205.92,-266.94"/>
</g>
<!-- 253109520226675 -->
<g id="node58" class="node">
<title>253109520226675</title>
<ellipse fill="none" stroke="#34262b" cx="161.6" cy="-316.6" rx="3.6" ry="3.6"/>
</g>
<!-- 009&#45;&gt;253109520226675 -->
<g id="edge37" class="edge">
<title>009&#45;&gt;253109520226675</title>
<path fill="none" stroke="#34262b" stroke-width="0.75" d="M161.6,-266.59C161.6,-282.97 161.6,-303.93 161.6,-312.58"/>
</g>
<!-- 253352804744747 -->
<g id="node59" class="node">
<title>253352804744747</title>
<ellipse fill="none" stroke="#34262b" cx="99.25" cy="-280.6" rx="3.6" ry="3.6"/>
<text text-anchor="middle" x="90.77" y="-285.85" font-family="Helvetica,sans-Serif" font-size="18.00" fill="#34262b">5</text>
</g>
<!-- 009&#45;&gt;253352804744747 -->
<g id="edge38" class="edge">
<title>009&#45;&gt;253352804744747</title>
<path fill="none" stroke="#34262b" stroke-width="0.75" d="M142.55,-255.6C128.23,-263.87 109.85,-274.48 102.5,-278.72"/>
</g>
<!-- 253843891117135 -->
<g id="node60" class="node">
<title>253843891117135</title>
<ellipse fill="none" stroke="#34262b" cx="99.25" cy="-208.6" rx="3.6" ry="3.6"/>
</g>
<!-- 009&#45;&gt;253843891117135 -->
<g id="edge39" class="edge">
<title>009&#45;&gt;253843891117135</title>
<path fill="none" stroke="#34262b" stroke-width="0.75" d="M142.55,-233.6C128.23,-225.33 109.85,-214.72 102.5,-210.48"/>
</g>
<!-- 253974688626775 -->
<g id="node61" class="node">
<title>253974688626775</title>
<ellipse fill="none" stroke="#34262b" cx="161.6" cy="-172.6" rx="3.6" ry="3.6"/>
</g>
<!-- 009&#45;&gt;253974688626775 -->
<g id="edge40" class="edge">
<title>009&#45;&gt;253974688626775</title>
<path fill="none" stroke="#34262b" stroke-width="0.75" d="M161.6,-222.61C161.6,-206.23 161.6,-185.27 161.6,-176.62"/>
</g>
<!-- 254220120595727 -->
<g id="node62" class="node">
<title>254220120595727</title>
<ellipse fill="none" stroke="#34262b" cx="223.95" cy="-208.6" rx="3.6" ry="3.6"/>
</g>
<!-- 009&#45;&gt;254220120595727 -->
<g id="edge41" class="edge">
<title>009&#45;&gt;254220120595727</title>
<path fill="none" stroke="#34262b" stroke-width="0.75" d="M180.65,-233.6C194.97,-225.33 213.35,-214.72 220.7,-210.48"/>
</g>
<!-- 010 -->
<g id="node22" class="node">
<title>010</title>
<ellipse fill="#dbde92" stroke="#34262b" cx="403.6" cy="-112.6" rx="21.6" ry="21.6"/>
<text text-anchor="middle" x="403.6" y="-104.88" font-family="Helvetica,sans-Serif" font-size="18.00" fill="#34262b">010</text>
<text text-anchor="middle" x="377.12" y="-135.85" font-family="Helvetica,sans-Serif" font-size="18.00" fill="#34262b">4</text>
</g>
<!-- 010&#45;&gt;155147806452639 -->
<g id="edge8" class="edge">
<title>010&#45;&gt;155147806452639</title>
<path fill="none" stroke="#34262b" stroke-width="0.75" d="M424.43,-118.79C436.46,-119.73 451.26,-119.49 461.84,-118.04"/>
<polygon fill="#34262b" stroke="#34262b" stroke-width="0.75" points="462.41,-121.5 471.36,-115.83 460.83,-114.68 462.41,-121.5"/>
</g>
<!-- 010&#45;&gt;155147806452639 -->
<g id="edge9" class="edge">
<title>010&#45;&gt;155147806452639</title>
<path fill="none" stroke="#34262b" stroke-width="0.75" d="M424.43,-106.41C435.76,-105.52 449.56,-105.69 459.97,-106.92"/>
<polygon fill="#34262b" stroke="#34262b" stroke-width="0.75" points="459,-110.3 469.48,-108.74 460.31,-103.42 459,-110.3"/>
</g>
<!-- 019 -->
<g id="node23" class="node">
<title>019</title>
<ellipse fill="#dbde92" stroke="#34262b" cx="464.6" cy="-251.6" rx="21.6" ry="21.6"/>
<text text-anchor="middle" x="464.6" y="-243.88" font-family="Helvetica,sans-Serif" font-size="18.00" fill="#34262b">019</text>
<text text-anchor="middle" x="433.25" y="-274.85" font-family="Helvetica,sans-Serif" font-size="18.00" fill="#34262b">14</text>
</g>
<!-- 019&#45;&gt;149114173335496 -->
<g id="edge10" class="edge">
<title>019&#45;&gt;149114173335496</title>
<path fill="none" stroke="#34262b" stroke-width="0.75" d="M484.92,-260.02C494.8,-264.11 506.49,-268.95 515.64,-272.74"/>
<polygon fill="#34262b" stroke="#34262b" stroke-width="0.75" points="514.21,-275.94 524.78,-276.53 516.89,-269.47 514.21,-275.94"/>
</g>
<!-- 148515034955604 -->
<g id="node44" class="node">
<title>148515034955604</title>
<ellipse fill="none" stroke="#34262b" cx="492.15" cy="-318.12" rx="3.6" ry="3.6"/>
<text text-anchor="middle" x="483.68" y="-323.37" font-family="Helvetica,sans-Serif" font-size="18.00" fill="#34262b">7</text>
</g>
<!-- 019&#45;&gt;148515034955604 -->
<g id="edge42" class="edge">
<title>019&#45;&gt;148515034955604</title>
<path fill="none" stroke="#34262b" stroke-width="0.75" d="M473.02,-271.92C479.35,-287.2 487.47,-306.8 490.72,-314.65"/>
</g>
<!-- 148611824478556 -->
<g id="node45" class="node">
<title>148611824478556</title>
<ellipse fill="none" stroke="#34262b" cx="437.05" cy="-318.12" rx="3.6" ry="3.6"/>
</g>
<!-- 019&#45;&gt;148611824478556 -->
<g id="edge43" class="edge">
<title>019&#45;&gt;148611824478556</title>
<path fill="none" stroke="#34262b" stroke-width="0.75" d="M456.18,-271.92C449.85,-287.2 441.73,-306.8 438.48,-314.65"/>
</g>
<!-- 148669601188638 -->
<g id="node46" class="node">
<title>148669601188638</title>
<ellipse fill="none" stroke="#34262b" cx="398.08" cy="-279.15" rx="3.6" ry="3.6"/>
</g>
<!-- 019&#45;&gt;148669601188638 -->
<g id="edge44" class="edge">
<title>019&#45;&gt;148669601188638</title>
<path fill="none" stroke="#34262b" stroke-width="0.75" d="M444.28,-260.02C429,-266.35 409.4,-274.47 401.55,-277.72"/>
</g>
<!-- 148879872816411 -->
<g id="node47" class="node">
<title>148879872816411</title>
<ellipse fill="none" stroke="#34262b" cx="398.08" cy="-224.05" rx="3.6" ry="3.6"/>
</g>
<!-- 019&#45;&gt;148879872816411 -->
<g id="edge45" class="edge">
<title>019&#45;&gt;148879872816411</title>
<path fill="none" stroke="#34262b" stroke-width="0.75" d="M444.28,-243.18C429,-236.85 409.4,-228.73 401.55,-225.48"/>
</g>
<!-- 149003955203329 -->
<g id="node48" class="node">
<title>149003955203329</title>
<ellipse fill="none" stroke="#34262b" cx="437.05" cy="-185.08" rx="3.6" ry="3.6"/>
</g>
<!-- 019&#45;&gt;149003955203329 -->
<g id="edge46" class="edge">
<title>019&#45;&gt;149003955203329</title>
<path fill="none" stroke="#34262b" stroke-width="0.75" d="M456.18,-231.28C449.85,-216 441.73,-196.4 438.48,-188.55"/>
</g>
<!-- 149210280710509 -->
<g id="node49" class="node">
<title>149210280710509</title>
<ellipse fill="none" stroke="#34262b" cx="492.15" cy="-185.08" rx="3.6" ry="3.6"/>
</g>
<!-- 019&#45;&gt;149210280710509 -->
<g id="edge47" class="edge">
<title>019&#45;&gt;149210280710509</title>
<path fill="none" stroke="#34262b" stroke-width="0.75" d="M473.02,-231.28C479.35,-216 487.47,-196.4 490.72,-188.55"/>
</g>
<!-- 149468789687598 -->
<g id="node50" class="node">
<title>149468789687598</title>
<ellipse fill="none" stroke="#34262b" cx="531.12" cy="-224.05" rx="3.6" ry="3.6"/>
</g>
<!-- 019&#45;&gt;149468789687598 -->
<g id="edge48" class="edge">
<title>019&#45;&gt;149468789687598</title>
<path fill="none" stroke="#34262b" stroke-width="0.75" d="M484.92,-243.18C500.2,-236.85 519.8,-228.73 527.65,-225.48"/>
</g>
<!-- 020 -->
<g id="node24" class="node">
<title>020</title>
<ellipse fill="#dbde92" stroke="#34262b" cx="559.6" cy="-99.6" rx="21.6" ry="21.6"/>
<text text-anchor="middle" x="559.6" y="-91.88" font-family="Helvetica,sans-Serif" font-size="18.00" fill="#34262b">020</text>
<text text-anchor="middle" x="528.25" y="-122.85" font-family="Helvetica,sans-Serif" font-size="18.00" fill="#34262b">19</text>
</g>
<!-- 020&#45;&gt;24528728837243 -->
<g id="edge11" class="edge">
<title>020&#45;&gt;24528728837243</title>
<path fill="none" stroke="#34262b" stroke-width="0.75" d="M581.59,-99.6C591.37,-99.6 602.78,-99.6 612.23,-99.6"/>
<polygon fill="#34262b" stroke="#34262b" stroke-width="0.75" points="612.09,-103.1 622.09,-99.6 612.09,-96.1 612.09,-103.1"/>
</g>
<!-- 023 -->
<g id="node25" class="node">
<title>023</title>
<ellipse fill="#dbde92" stroke="#34262b" cx="288.6" cy="-169.6" rx="21.6" ry="21.6"/>
<text text-anchor="middle" x="288.6" y="-161.88" font-family="Helvetica,sans-Serif" font-size="18.00" fill="#34262b">023</text>
<text text-anchor="middle" x="257.25" y="-192.85" font-family="Helvetica,sans-Serif" font-size="18.00" fill="#34262b">10</text>
</g>
<!-- 023&#45;&gt;5591408610389 -->
<g id="edge12" class="edge">
<title>023&#45;&gt;5591408610389</title>
<path fill="none" stroke="#34262b" stroke-width="0.75" d="M299.6,-188.65C303.81,-195.95 308.64,-204.3 312.92,-211.72"/>
<polygon fill="#34262b" stroke="#34262b" stroke-width="0.75" points="309.88,-213.46 317.91,-220.37 315.94,-209.96 309.88,-213.46"/>
</g>
<!-- 14110344140782 -->
<g id="node43" class="node">
<title>14110344140782</title>
<ellipse fill="none" stroke="#34262b" cx="216.6" cy="-169.6" rx="3.6" ry="3.6"/>
<text text-anchor="middle" x="208.12" y="-174.85" font-family="Helvetica,sans-Serif" font-size="18.00" fill="#34262b">2</text>
</g>
<!-- 023&#45;&gt;14110344140782 -->
<g id="edge49" class="edge">
<title>023&#45;&gt;14110344140782</title>
<path fill="none" stroke="#34262b" stroke-width="0.75" d="M266.61,-169.6C250.23,-169.6 229.27,-169.6 220.62,-169.6"/>
</g>
<!-- 62621691563930 -->
<g id="node76" class="node">
<title>62621691563930</title>
<ellipse fill="none" stroke="#34262b" cx="324.6" cy="-107.25" rx="3.6" ry="3.6"/>
</g>
<!-- 023&#45;&gt;62621691563930 -->
<g id="edge50" class="edge">
<title>023&#45;&gt;62621691563930</title>
<path fill="none" stroke="#34262b" stroke-width="0.75" d="M299.6,-150.55C307.87,-136.23 318.48,-117.85 322.72,-110.5"/>
</g>
<!-- 024 -->
<g id="node26" class="node">
<title>024</title>
<ellipse fill="#dbde92" stroke="#34262b" cx="39.6" cy="-463.6" rx="21.6" ry="21.6"/>
<text text-anchor="middle" x="39.6" y="-455.88" font-family="Helvetica,sans-Serif" font-size="18.00" fill="#34262b">024</text>
<text text-anchor="middle" x="9" y="-486.85" font-family="Helvetica,sans-Serif" font-size="18.00" fill="#34262b">11</text>
</g>
<!-- 024&#45;&gt;248960157567190 -->
<g id="edge13" class="edge">
<title>024&#45;&gt;248960157567190</title>
<path fill="none" stroke="#34262b" stroke-width="0.75" d="M61.59,-463.6C71.37,-463.6 82.78,-463.6 92.23,-463.6"/>
<polygon fill="#34262b" stroke="#34262b" stroke-width="0.75" points="92.09,-467.1 102.09,-463.6 92.09,-460.1 92.09,-467.1"/>
</g>
<!-- 032 -->
<g id="node27" class="node">
<title>032</title>
<ellipse fill="#dbde92" stroke="#34262b" cx="574.6" cy="-351.6" rx="21.6" ry="21.6"/>
<text text-anchor="middle" x="574.6" y="-343.88" font-family="Helvetica,sans-Serif" font-size="18.00" fill="#34262b">032</text>
<text text-anchor="middle" x="548.12" y="-374.85" font-family="Helvetica,sans-Serif" font-size="18.00" fill="#34262b">5</text>
</g>
<!-- 032&#45;&gt;1230160502988882 -->
<g id="edge14" class="edge">
<title>032&#45;&gt;1230160502988882</title>
<path fill="none" stroke="#34262b" stroke-width="0.75" d="M585.6,-370.65C589.81,-377.95 594.64,-386.3 598.92,-393.72"/>
<polygon fill="#34262b" stroke="#34262b" stroke-width="0.75" points="595.88,-395.46 603.91,-402.37 601.94,-391.96 595.88,-395.46"/>
</g>
<!-- 1230160502988894 -->
<g id="node41" class="node">
<title>1230160502988894</title>
<ellipse fill="none" stroke="#34262b" cx="502.6" cy="-351.6" rx="3.6" ry="3.6"/>
</g>
<!-- 032&#45;&gt;1230160502988894 -->
<g id="edge51" class="edge">
<title>032&#45;&gt;1230160502988894</title>
<path fill="none" stroke="#34262b" stroke-width="0.75" d="M552.61,-351.6C536.23,-351.6 515.27,-351.6 506.62,-351.6"/>
</g>
<!-- 1230160502992190 -->
<g id="node42" class="node">
<title>1230160502992190</title>
<ellipse fill="none" stroke="#34262b" cx="610.6" cy="-289.25" rx="3.6" ry="3.6"/>
<text text-anchor="middle" x="602.12" y="-294.5" font-family="Helvetica,sans-Serif" font-size="18.00" fill="#34262b">2</text>
</g>
<!-- 032&#45;&gt;1230160502992190 -->
<g id="edge52" class="edge">
<title>032&#45;&gt;1230160502992190</title>
<path fill="none" stroke="#34262b" stroke-width="0.75" d="M585.6,-332.55C593.87,-318.23 604.48,-299.85 608.72,-292.5"/>
</g>
<!-- 033 -->
<g id="node28" class="node">
<title>033</title>
<ellipse fill="#dbde92" stroke="#34262b" cx="169.6" cy="-47.6" rx="21.6" ry="21.6"/>
<text text-anchor="middle" x="169.6" y="-39.88" font-family="Helvetica,sans-Serif" font-size="18.00" fill="#34262b">033</text>
<text text-anchor="middle" x="143.12" y="-70.85" font-family="Helvetica,sans-Serif" font-size="18.00" fill="#34262b">6</text>
</g>
<!-- 033&#45;&gt;298774613720463 -->
<g id="edge15" class="edge">
<title>033&#45;&gt;298774613720463</title>
<path fill="none" stroke="#34262b" stroke-width="0.75" d="M191.59,-47.6C201.37,-47.6 212.78,-47.6 222.23,-47.6"/>
<polygon fill="#34262b" stroke="#34262b" stroke-width="0.75" points="222.09,-51.1 232.09,-47.6 222.09,-44.1 222.09,-51.1"/>
</g>
<!-- 037 -->
<g id="node29" class="node">
<title>037</title>
<ellipse fill="#dbde92" stroke="#34262b" cx="538.6" cy="-569.6" rx="21.6" ry="21.6"/>
<text text-anchor="middle" x="538.6" y="-561.88" font-family="Helvetica,sans-Serif" font-size="18.00" fill="#34262b">037</text>
<text text-anchor="middle" x="507.25" y="-592.85" font-family="Helvetica,sans-Serif" font-size="18.00" fill="#34262b">12</text>
</g>
<!-- 037&#45;&gt;436819829846544 -->
<g id="edge16" class="edge">
<title>037&#45;&gt;436819829846544</title>
<path fill="none" stroke="#34262b" stroke-width="0.75" d="M548.67,-589.24C559.04,-598.17 574.71,-606.47 586.39,-608.79"/>
<polygon fill="#34262b" stroke="#34262b" stroke-width="0.75" points="586.32,-612.29 596.25,-608.6 586.19,-605.3 586.32,-612.29"/>
</g>
<!-- 037&#45;&gt;436819829846544 -->
<g id="edge17" class="edge">
<title>037&#45;&gt;436819829846544</title>
<path fill="none" stroke="#34262b" stroke-width="0.75" d="M560.65,-568.5C572.99,-572.82 587.27,-581.62 595.36,-590.21"/>
<polygon fill="#34262b" stroke="#34262b" stroke-width="0.75" points="592.27,-591.87 600.7,-598.28 598.1,-588.01 592.27,-591.87"/>
</g>
<!-- 037&#45;&gt;436819829846544 -->
<g id="edge18" class="edge">
<title>037&#45;&gt;436819829846544</title>
<path fill="none" stroke="#34262b" stroke-width="0.75" d="M557.65,-580.6C566.91,-585.95 577.87,-592.27 586.44,-597.22"/>
<polygon fill="#34262b" stroke="#34262b" stroke-width="0.75" points="584.61,-600.2 595.02,-602.17 588.11,-594.14 584.61,-600.2"/>
</g>
<!-- 374196928538196 -->
<g id="node70" class="node">
<title>374196928538196</title>
<ellipse fill="none" stroke="#34262b" cx="538.6" cy="-641.6" rx="3.6" ry="3.6"/>
<text text-anchor="middle" x="530.12" y="-646.85" font-family="Helvetica,sans-Serif" font-size="18.00" fill="#34262b">5</text>
</g>
<!-- 037&#45;&gt;374196928538196 -->
<g id="edge53" class="edge">
<title>037&#45;&gt;374196928538196</title>
<path fill="none" stroke="#34262b" stroke-width="0.75" d="M538.6,-591.59C538.6,-607.97 538.6,-628.93 538.6,-637.58"/>
</g>
<!-- 378179076514973 -->
<g id="node71" class="node">
<title>378179076514973</title>
<ellipse fill="none" stroke="#34262b" cx="476.25" cy="-605.6" rx="3.6" ry="3.6"/>
</g>
<!-- 037&#45;&gt;378179076514973 -->
<g id="edge54" class="edge">
<title>037&#45;&gt;378179076514973</title>
<path fill="none" stroke="#34262b" stroke-width="0.75" d="M519.55,-580.6C505.23,-588.87 486.85,-599.48 479.5,-603.72"/>
</g>
<!-- 437237875864615 -->
<g id="node72" class="node">
<title>437237875864615</title>
<ellipse fill="none" stroke="#34262b" cx="476.25" cy="-533.6" rx="3.6" ry="3.6"/>
</g>
<!-- 037&#45;&gt;437237875864615 -->
<g id="edge55" class="edge">
<title>037&#45;&gt;437237875864615</title>
<path fill="none" stroke="#34262b" stroke-width="0.75" d="M519.55,-558.6C505.23,-550.33 486.85,-539.72 479.5,-535.48"/>
</g>
<!-- 446356723589658 -->
<g id="node73" class="node">
<title>446356723589658</title>
<ellipse fill="none" stroke="#34262b" cx="538.6" cy="-497.6" rx="3.6" ry="3.6"/>
</g>
<!-- 037&#45;&gt;446356723589658 -->
<g id="edge56" class="edge">
<title>037&#45;&gt;446356723589658</title>
<path fill="none" stroke="#34262b" stroke-width="0.75" d="M538.6,-547.61C538.6,-531.23 538.6,-510.27 538.6,-501.62"/>
</g>
<!-- 836962415998811 -->
<g id="node79" class="node">
<title>836962415998811</title>
<ellipse fill="none" stroke="#34262b" cx="600.95" cy="-533.6" rx="3.6" ry="3.6"/>
</g>
<!-- 037&#45;&gt;836962415998811 -->
<g id="edge57" class="edge">
<title>037&#45;&gt;836962415998811</title>
<path fill="none" stroke="#34262b" stroke-width="0.75" d="M557.65,-558.6C571.97,-550.33 590.35,-539.72 597.7,-535.48"/>
</g>
<!-- 039 -->
<g id="node30" class="node">
<title>039</title>
<ellipse fill="#dbde92" stroke="#34262b" cx="425.6" cy="-433.6" rx="21.6" ry="21.6"/>
<text text-anchor="middle" x="425.6" y="-425.88" font-family="Helvetica,sans-Serif" font-size="18.00" fill="#34262b">039</text>
<text text-anchor="middle" x="394.25" y="-456.85" font-family="Helvetica,sans-Serif" font-size="18.00" fill="#34262b">15</text>
</g>
<!-- 039&#45;&gt;243582352371835 -->
<g id="edge19" class="edge">
<title>039&#45;&gt;243582352371835</title>
<path fill="none" stroke="#34262b" stroke-width="0.75" d="M442.47,-447.28C451.35,-451.81 462.27,-456.3 471.63,-459.26"/>
<polygon fill="#34262b" stroke="#34262b" stroke-width="0.75" points="470.7,-462.63 481.26,-461.78 472.48,-455.86 470.7,-462.63"/>
</g>
<!-- 039&#45;&gt;243582352371835 -->
<g id="edge20" class="edge">
<title>039&#45;&gt;243582352371835</title>
<path fill="none" stroke="#34262b" stroke-width="0.75" d="M447.21,-435.85C456.68,-438.93 467.58,-443.48 476.29,-448"/>
<polygon fill="#34262b" stroke="#34262b" stroke-width="0.75" points="474.49,-451.01 484.89,-453.03 478.02,-444.96 474.49,-451.01"/>
</g>
<!-- 1076677401390944 -->
<g id="node40" class="node">
<title>1076677401390944</title>
<ellipse fill="none" stroke="#34262b" cx="453.15" cy="-500.12" rx="3.6" ry="3.6"/>
</g>
<!-- 039&#45;&gt;1076677401390944 -->
<g id="edge58" class="edge">
<title>039&#45;&gt;1076677401390944</title>
<path fill="none" stroke="#34262b" stroke-width="0.75" d="M434.02,-453.92C440.35,-469.2 448.47,-488.8 451.72,-496.65"/>
</g>
<!-- 165717715346964 -->
<g id="node53" class="node">
<title>165717715346964</title>
<ellipse fill="none" stroke="#34262b" cx="398.05" cy="-500.12" rx="3.6" ry="3.6"/>
</g>
<!-- 039&#45;&gt;165717715346964 -->
<g id="edge59" class="edge">
<title>039&#45;&gt;165717715346964</title>
<path fill="none" stroke="#34262b" stroke-width="0.75" d="M417.18,-453.92C410.85,-469.2 402.73,-488.8 399.48,-496.65"/>
</g>
<!-- 189105737194104 -->
<g id="node54" class="node">
<title>189105737194104</title>
<ellipse fill="none" stroke="#34262b" cx="359.08" cy="-461.15" rx="3.6" ry="3.6"/>
</g>
<!-- 039&#45;&gt;189105737194104 -->
<g id="edge60" class="edge">
<title>039&#45;&gt;189105737194104</title>
<path fill="none" stroke="#34262b" stroke-width="0.75" d="M405.28,-442.02C390,-448.35 370.4,-456.47 362.55,-459.72"/>
</g>
<!-- 198102760205823 -->
<g id="node55" class="node">
<title>198102760205823</title>
<ellipse fill="none" stroke="#34262b" cx="359.08" cy="-406.05" rx="3.6" ry="3.6"/>
</g>
<!-- 039&#45;&gt;198102760205823 -->
<g id="edge61" class="edge">
<title>039&#45;&gt;198102760205823</title>
<path fill="none" stroke="#34262b" stroke-width="0.75" d="M405.28,-425.18C390,-418.85 370.4,-410.73 362.55,-407.48"/>
</g>
<!-- 226313462278852 -->
<g id="node56" class="node">
<title>226313462278852</title>
<ellipse fill="none" stroke="#34262b" cx="398.05" cy="-367.08" rx="3.6" ry="3.6"/>
</g>
<!-- 039&#45;&gt;226313462278852 -->
<g id="edge62" class="edge">
<title>039&#45;&gt;226313462278852</title>
<path fill="none" stroke="#34262b" stroke-width="0.75" d="M417.18,-413.28C410.85,-398 402.73,-378.4 399.48,-370.55"/>
</g>
<!-- 237984121642486 -->
<g id="node57" class="node">
<title>237984121642486</title>
<ellipse fill="none" stroke="#34262b" cx="453.15" cy="-367.08" rx="3.6" ry="3.6"/>
</g>
<!-- 039&#45;&gt;237984121642486 -->
<g id="edge63" class="edge">
<title>039&#45;&gt;237984121642486</title>
<path fill="none" stroke="#34262b" stroke-width="0.75" d="M434.02,-413.28C440.35,-398 448.47,-378.4 451.72,-370.55"/>
</g>
<!-- 583015109991402 -->
<g id="node75" class="node">
<title>583015109991402</title>
<ellipse fill="none" stroke="#34262b" cx="492.12" cy="-406.05" rx="3.6" ry="3.6"/>
<text text-anchor="middle" x="483.64" y="-411.3" font-family="Helvetica,sans-Serif" font-size="18.00" fill="#34262b">7</text>
</g>
<!-- 039&#45;&gt;583015109991402 -->
<g id="edge64" class="edge">
<title>039&#45;&gt;583015109991402</title>
<path fill="none" stroke="#34262b" stroke-width="0.75" d="M445.92,-425.18C461.2,-418.85 480.8,-410.73 488.65,-407.48"/>
</g>
<!-- 043 -->
<g id="node31" class="node">
<title>043</title>
<ellipse fill="#dbde92" stroke="#34262b" cx="288.6" cy="-318.6" rx="21.6" ry="21.6"/>
<text text-anchor="middle" x="288.6" y="-310.88" font-family="Helvetica,sans-Serif" font-size="18.00" fill="#34262b">043</text>
<text text-anchor="middle" x="262.12" y="-341.85" font-family="Helvetica,sans-Serif" font-size="18.00" fill="#34262b">3</text>
</g>
<!-- 043&#45;&gt;103209978926087 -->
<g id="edge21" class="edge">
<title>043&#45;&gt;103209978926087</title>
<path fill="none" stroke="#34262b" stroke-width="0.75" d="M296.56,-339.19C304,-347.08 314.79,-354.94 324.61,-359.62"/>
<polygon fill="#34262b" stroke="#34262b" stroke-width="0.75" points="323.39,-362.9 333.98,-362.99 325.76,-356.31 323.39,-362.9"/>
</g>
<!-- 043&#45;&gt;103209978926087 -->
<g id="edge22" class="edge">
<title>043&#45;&gt;103209978926087</title>
<path fill="none" stroke="#34262b" stroke-width="0.75" d="M310.64,-319.81C322.24,-325.29 335.24,-335.25 342.48,-344.49"/>
<polygon fill="#34262b" stroke="#34262b" stroke-width="0.75" points="339.28,-345.94 347.19,-353 345.41,-342.55 339.28,-345.94"/>
</g>
<!-- 043&#45;&gt;103209978926087 -->
<g id="edge23" class="edge">
<title>043&#45;&gt;103209978926087</title>
<path fill="none" stroke="#34262b" stroke-width="0.75" d="M306.39,-331.53C314.86,-337.68 324.84,-344.93 332.77,-350.69"/>
<polygon fill="#34262b" stroke="#34262b" stroke-width="0.75" points="330.65,-353.48 340.8,-356.52 334.76,-347.81 330.65,-353.48"/>
</g>
<!-- 103209978926115 -->
<g id="node39" class="node">
<title>103209978926115</title>
<ellipse fill="none" stroke="#34262b" cx="266.35" cy="-387.08" rx="3.6" ry="3.6"/>
</g>
<!-- 043&#45;&gt;103209978926115 -->
<g id="edge65" class="edge">
<title>043&#45;&gt;103209978926115</title>
<path fill="none" stroke="#34262b" stroke-width="0.75" d="M281.8,-339.52C276.69,-355.25 270.14,-375.43 267.51,-383.5"/>
</g>
<!-- 76118056186574 -->
<g id="node77" class="node">
<title>76118056186574</title>
<ellipse fill="none" stroke="#34262b" cx="216.6" cy="-318.6" rx="3.6" ry="3.6"/>
<text text-anchor="middle" x="208.12" y="-323.85" font-family="Helvetica,sans-Serif" font-size="18.00" fill="#34262b">4</text>
</g>
<!-- 043&#45;&gt;76118056186574 -->
<g id="edge66" class="edge">
<title>043&#45;&gt;76118056186574</title>
<path fill="none" stroke="#34262b" stroke-width="0.75" d="M266.61,-318.6C250.23,-318.6 229.27,-318.6 220.62,-318.6"/>
</g>
<!-- 81063761713588 -->
<g id="node78" class="node">
<title>81063761713588</title>
<ellipse fill="none" stroke="#34262b" cx="266.35" cy="-250.12" rx="3.6" ry="3.6"/>
</g>
<!-- 043&#45;&gt;81063761713588 -->
<g id="edge67" class="edge">
<title>043&#45;&gt;81063761713588</title>
<path fill="none" stroke="#34262b" stroke-width="0.75" d="M281.8,-297.68C276.69,-281.95 270.14,-261.77 267.51,-253.7"/>
</g>
<!-- 96800835160244 -->
<g id="node80" class="node">
<title>96800835160244</title>
<ellipse fill="none" stroke="#34262b" cx="346.85" cy="-276.28" rx="3.6" ry="3.6"/>
</g>
<!-- 043&#45;&gt;96800835160244 -->
<g id="edge68" class="edge">
<title>043&#45;&gt;96800835160244</title>
<path fill="none" stroke="#34262b" stroke-width="0.75" d="M306.39,-305.67C319.78,-295.95 336.94,-283.48 343.81,-278.49"/>
</g>
<!-- 047 -->
<g id="node32" class="node">
<title>047</title>
<ellipse fill="#dbde92" stroke="#34262b" cx="325.6" cy="-21.6" rx="21.6" ry="21.6"/>
<text text-anchor="middle" x="325.6" y="-13.88" font-family="Helvetica,sans-Serif" font-size="18.00" fill="#34262b">047</text>
<text text-anchor="middle" x="294.25" y="-44.85" font-family="Helvetica,sans-Serif" font-size="18.00" fill="#34262b">18</text>
</g>
<!-- 047&#45;&gt;393035298143192 -->
<g id="edge24" class="edge">
<title>047&#45;&gt;393035298143192</title>
<path fill="none" stroke="#34262b" stroke-width="0.75" d="M346.43,-27.79C358.46,-28.73 373.26,-28.49 383.84,-27.04"/>
<polygon fill="#34262b" stroke="#34262b" stroke-width="0.75" points="384.41,-30.5 393.36,-24.83 382.83,-23.68 384.41,-30.5"/>
</g>
<!-- 047&#45;&gt;393035298143192 -->
<g id="edge25" class="edge">
<title>047&#45;&gt;393035298143192</title>
<path fill="none" stroke="#34262b" stroke-width="0.75" d="M346.43,-15.41C357.76,-14.52 371.56,-14.69 381.97,-15.92"/>
<polygon fill="#34262b" stroke="#34262b" stroke-width="0.75" points="381,-19.3 391.48,-17.74 382.31,-12.42 381,-19.3"/>
</g>
<!-- 052 -->
<g id="node33" class="node">
<title>052</title>
<ellipse fill="#dbde92" stroke="#34262b" cx="78.6" cy="-112.6" rx="21.6" ry="21.6"/>
<text text-anchor="middle" x="78.6" y="-104.88" font-family="Helvetica,sans-Serif" font-size="18.00" fill="#34262b">052</text>
<text text-anchor="middle" x="52.12" y="-135.85" font-family="Helvetica,sans-Serif" font-size="18.00" fill="#34262b">2</text>
</g>
<!-- 052&#45;&gt;240070160009025 -->
<g id="edge26" class="edge">
<title>052&#45;&gt;240070160009025</title>
<path fill="none" stroke="#34262b" stroke-width="0.75" d="M99.43,-118.79C111.46,-119.73 126.26,-119.49 136.84,-118.04"/>
<polygon fill="#34262b" stroke="#34262b" stroke-width="0.75" points="137.41,-121.5 146.36,-115.83 135.83,-114.68 137.41,-121.5"/>
</g>
<!-- 052&#45;&gt;240070160009025 -->
<g id="edge27" class="edge">
<title>052&#45;&gt;240070160009025</title>
<path fill="none" stroke="#34262b" stroke-width="0.75" d="M99.43,-106.41C110.76,-105.52 124.56,-105.69 134.97,-106.92"/>
<polygon fill="#34262b" stroke="#34262b" stroke-width="0.75" points="134,-110.3 144.48,-108.74 135.31,-103.42 134,-110.3"/>
</g>
<!-- 062 -->
<g id="node34" class="node">
<title>062</title>
<ellipse fill="#dbde92" stroke="#34262b" cx="143.6" cy="-385.6" rx="21.6" ry="21.6"/>
<text text-anchor="middle" x="143.6" y="-377.88" font-family="Helvetica,sans-Serif" font-size="18.00" fill="#34262b">062</text>
<text text-anchor="middle" x="117.12" y="-408.85" font-family="Helvetica,sans-Serif" font-size="18.00" fill="#34262b">9</text>
</g>
<!-- 062&#45;&gt;92857264956831 -->
<g id="edge28" class="edge">
<title>062&#45;&gt;92857264956831</title>
<path fill="none" stroke="#34262b" stroke-width="0.75" d="M165.59,-385.6C175.37,-385.6 186.78,-385.6 196.23,-385.6"/>
<polygon fill="#34262b" stroke="#34262b" stroke-width="0.75" points="196.09,-389.1 206.09,-385.6 196.09,-382.1 196.09,-389.1"/>
</g>
<!-- 078 -->
<g id="node35" class="node">
<title>078</title>
<ellipse fill="#dbde92" stroke="#34262b" cx="234.6" cy="-658.6" rx="21.6" ry="21.6"/>
<text text-anchor="middle" x="234.6" y="-650.88" font-family="Helvetica,sans-Serif" font-size="18.00" fill="#34262b">078</text>
<text text-anchor="middle" x="203.25" y="-681.85" font-family="Helvetica,sans-Serif" font-size="18.00" fill="#34262b">17</text>
</g>
<!-- 078&#45;&gt;33460752933766 -->
<g id="edge29" class="edge">
<title>078&#45;&gt;33460752933766</title>
<path fill="none" stroke="#34262b" stroke-width="0.75" d="M255.43,-664.79C267.46,-665.73 282.26,-665.49 292.84,-664.04"/>
<polygon fill="#34262b" stroke="#34262b" stroke-width="0.75" points="293.41,-667.5 302.36,-661.83 291.83,-660.68 293.41,-667.5"/>
</g>
<!-- 078&#45;&gt;33460752933766 -->
<g id="edge30" class="edge">
<title>078&#45;&gt;33460752933766</title>
<path fill="none" stroke="#34262b" stroke-width="0.75" d="M255.43,-652.41C266.76,-651.52 280.56,-651.69 290.97,-652.92"/>
<polygon fill="#34262b" stroke="#34262b" stroke-width="0.75" points="290,-656.3 300.48,-654.74 291.31,-649.42 290,-656.3"/>
</g>
<!-- 081 -->
<g id="node36" class="node">
<title>081</title>
<ellipse fill="#dbde92" stroke="#34262b" cx="598.6" cy="-190.6" rx="21.6" ry="21.6"/>
<text text-anchor="middle" x="598.6" y="-182.88" font-family="Helvetica,sans-Serif" font-size="18.00" fill="#34262b">081</text>
<text text-anchor="middle" x="572.13" y="-213.85" font-family="Helvetica,sans-Serif" font-size="18.00" fill="#34262b">7</text>
</g>
<!-- 081&#45;&gt;253352561534995 -->
<g id="edge31" class="edge">
<title>081&#45;&gt;253352561534995</title>
<path fill="none" stroke="#34262b" stroke-width="0.75" d="M619.43,-196.79C631.46,-197.73 646.26,-197.49 656.84,-196.04"/>
<polygon fill="#34262b" stroke="#34262b" stroke-width="0.75" points="657.41,-199.5 666.36,-193.83 655.83,-192.68 657.41,-199.5"/>
</g>
<!-- 081&#45;&gt;253352561534995 -->
<g id="edge32" class="edge">
<title>081&#45;&gt;253352561534995</title>
<path fill="none" stroke="#34262b" stroke-width="0.75" d="M619.43,-184.41C630.76,-183.52 644.56,-183.69 654.97,-184.92"/>
<polygon fill="#34262b" stroke="#34262b" stroke-width="0.75" points="654,-188.3 664.48,-186.74 655.31,-181.42 654,-188.3"/>
</g>
<!-- 082 -->
<g id="node37" class="node">
<title>082</title>
<ellipse fill="#dbde92" stroke="#34262b" cx="379.6" cy="-611.6" rx="21.6" ry="21.6"/>
<text text-anchor="middle" x="379.6" y="-603.88" font-family="Helvetica,sans-Serif" font-size="18.00" fill="#34262b">082</text>
<text text-anchor="middle" x="353.12" y="-634.85" font-family="Helvetica,sans-Serif" font-size="18.00" fill="#34262b">8</text>
</g>
<!-- 082&#45;&gt;156364735562291 -->
<g id="edge33" class="edge">
<title>082&#45;&gt;156364735562291</title>
<path fill="none" stroke="#34262b" stroke-width="0.75" d="M390.6,-630.65C394.81,-637.95 399.64,-646.3 403.92,-653.72"/>
<polygon fill="#34262b" stroke="#34262b" stroke-width="0.75" points="400.88,-655.46 408.91,-662.37 406.94,-651.96 400.88,-655.46"/>
</g>
<!-- 156189361184507 -->
<g id="node51" class="node">
<title>156189361184507</title>
<ellipse fill="none" stroke="#34262b" cx="307.6" cy="-611.6" rx="3.6" ry="3.6"/>
<text text-anchor="middle" x="299.12" y="-616.85" font-family="Helvetica,sans-Serif" font-size="18.00" fill="#34262b">2</text>
</g>
<!-- 082&#45;&gt;156189361184507 -->
<g id="edge69" class="edge">
<title>082&#45;&gt;156189361184507</title>
<path fill="none" stroke="#34262b" stroke-width="0.75" d="M357.61,-611.6C341.23,-611.6 320.27,-611.6 311.62,-611.6"/>
</g>
<!-- 156596690231090 -->
<g id="node52" class="node">
<title>156596690231090</title>
<ellipse fill="none" stroke="#34262b" cx="415.6" cy="-549.25" rx="3.6" ry="3.6"/>
</g>
<!-- 082&#45;&gt;156596690231090 -->
<g id="edge70" class="edge">
<title>082&#45;&gt;156596690231090</title>
<path fill="none" stroke="#34262b" stroke-width="0.75" d="M390.6,-592.55C398.87,-578.23 409.48,-559.85 413.72,-552.5"/>
</g>
<!-- 088 -->
<g id="node38" class="node">
<title>088</title>
<ellipse fill="#dbde92" stroke="#34262b" cx="243.6" cy="-511.6" rx="21.6" ry="21.6"/>
<text text-anchor="middle" x="243.6" y="-503.88" font-family="Helvetica,sans-Serif" font-size="18.00" fill="#34262b">088</text>
<text text-anchor="middle" x="212.25" y="-534.85" font-family="Helvetica,sans-Serif" font-size="18.00" fill="#34262b">16</text>
</g>
<!-- 088&#45;&gt;360051049043076 -->
<g id="edge34" class="edge">
<title>088&#45;&gt;360051049043076</title>
<path fill="none" stroke="#34262b" stroke-width="0.75" d="M260.47,-525.28C269.35,-529.81 280.27,-534.3 289.63,-537.26"/>
<polygon fill="#34262b" stroke="#34262b" stroke-width="0.75" points="288.7,-540.63 299.26,-539.78 290.48,-533.86 288.7,-540.63"/>
</g>
<!-- 088&#45;&gt;360051049043076 -->
<g id="edge35" class="edge">
<title>088&#45;&gt;360051049043076</title>
<path fill="none" stroke="#34262b" stroke-width="0.75" d="M265.21,-513.85C274.68,-516.93 285.58,-521.48 294.29,-526"/>
<polygon fill="#34262b" stroke="#34262b" stroke-width="0.75" points="292.49,-529.01 302.89,-531.03 296.02,-522.96 292.49,-529.01"/>
</g>
<!-- 359590657654446 -->
<g id="node63" class="node">
<title>359590657654446</title>
<ellipse fill="none" stroke="#34262b" cx="271.15" cy="-578.12" rx="3.6" ry="3.6"/>
</g>
<!-- 088&#45;&gt;359590657654446 -->
<g id="edge71" class="edge">
<title>088&#45;&gt;359590657654446</title>
<path fill="none" stroke="#34262b" stroke-width="0.75" d="M252.02,-531.92C258.35,-547.2 266.47,-566.8 269.72,-574.65"/>
</g>
<!-- 359642314904307 -->
<g id="node64" class="node">
<title>359642314904307</title>
<ellipse fill="none" stroke="#34262b" cx="216.05" cy="-578.12" rx="3.6" ry="3.6"/>
</g>
<!-- 088&#45;&gt;359642314904307 -->
<g id="edge72" class="edge">
<title>088&#45;&gt;359642314904307</title>
<path fill="none" stroke="#34262b" stroke-width="0.75" d="M235.18,-531.92C228.85,-547.2 220.73,-566.8 217.48,-574.65"/>
</g>
<!-- 359749191076977 -->
<g id="node65" class="node">
<title>359749191076977</title>
<ellipse fill="none" stroke="#34262b" cx="177.08" cy="-539.15" rx="3.6" ry="3.6"/>
</g>
<!-- 088&#45;&gt;359749191076977 -->
<g id="edge73" class="edge">
<title>088&#45;&gt;359749191076977</title>
<path fill="none" stroke="#34262b" stroke-width="0.75" d="M223.28,-520.02C208,-526.35 188.4,-534.47 180.55,-537.72"/>
</g>
<!-- 359813838431707 -->
<g id="node66" class="node">
<title>359813838431707</title>
<ellipse fill="none" stroke="#34262b" cx="177.08" cy="-484.05" rx="3.6" ry="3.6"/>
</g>
<!-- 088&#45;&gt;359813838431707 -->
<g id="edge74" class="edge">
<title>088&#45;&gt;359813838431707</title>
<path fill="none" stroke="#34262b" stroke-width="0.75" d="M223.28,-503.18C208,-496.85 188.4,-488.73 180.55,-485.48"/>
</g>
<!-- 359943398969027 -->
<g id="node67" class="node">
<title>359943398969027</title>
<ellipse fill="none" stroke="#34262b" cx="216.05" cy="-445.08" rx="3.6" ry="3.6"/>
<text text-anchor="middle" x="207.57" y="-450.33" font-family="Helvetica,sans-Serif" font-size="18.00" fill="#34262b">7</text>
</g>
<!-- 088&#45;&gt;359943398969027 -->
<g id="edge75" class="edge">
<title>088&#45;&gt;359943398969027</title>
<path fill="none" stroke="#34262b" stroke-width="0.75" d="M235.18,-491.28C228.85,-476 220.73,-456.4 217.48,-448.55"/>
</g>
<!-- 360186567754554 -->
<g id="node68" class="node">
<title>360186567754554</title>
<ellipse fill="none" stroke="#34262b" cx="271.15" cy="-445.08" rx="3.6" ry="3.6"/>
</g>
<!-- 088&#45;&gt;360186567754554 -->
<g id="edge76" class="edge">
<title>088&#45;&gt;360186567754554</title>
<path fill="none" stroke="#34262b" stroke-width="0.75" d="M252.02,-491.28C258.35,-476 266.47,-456.4 269.72,-448.55"/>
</g>
<!-- 360247014033845 -->
<g id="node69" class="node">
<title>360247014033845</title>
<ellipse fill="none" stroke="#34262b" cx="310.12" cy="-484.05" rx="3.6" ry="3.6"/>
</g>
<!-- 088&#45;&gt;360247014033845 -->
<g id="edge77" class="edge">
<title>088&#45;&gt;360247014033845</title>
<path fill="none" stroke="#34262b" stroke-width="0.75" d="M263.92,-503.18C279.2,-496.85 298.8,-488.73 306.65,-485.48"/>
</g>
</g>
</svg>
