<?xml version="1.0" encoding="UTF-8" standalone="no"?>
<!DOCTYPE svg PUBLIC "-//W3C//DTD SVG 1.1//EN"
 "http://www.w3.org/Graphics/SVG/1.1/DTD/svg11.dtd">
<!-- Generated by graphviz version 12.2.1 (20241206.2353)
 -->
<!-- Title: G Pages: 1 -->
<svg width="691pt" height="654pt"
 viewBox="0.00 0.00 691.46 653.75" xmlns="http://www.w3.org/2000/svg" xmlns:xlink="http://www.w3.org/1999/xlink">
<g id="graph0" class="graph" transform="scale(1 1) rotate(0) translate(4 649.75)">
<title>G</title>
<polygon fill="#fdfeff" stroke="none" points="-4,4 -4,-649.75 687.46,-649.75 687.46,4 -4,4"/>
<!-- 103209978926087 -->
<g id="node1" class="node">
<title>103209978926087</title>
<polygon fill="#fee548" stroke="#34262b" points="320.71,-506.47 312.03,-506.47 309.35,-514.72 306.67,-506.47 297.99,-506.47 305.01,-501.37 302.33,-493.12 309.35,-498.22 316.37,-493.12 313.69,-501.37 320.71,-506.47"/>
</g>
<!-- 1230160502988882 -->
<g id="node2" class="node">
<title>1230160502988882</title>
<polygon fill="#fee548" stroke="#34262b" points="194.46,-637.5 185.78,-637.5 183.1,-645.75 180.42,-637.5 171.74,-637.5 178.76,-632.4 176.08,-624.15 183.1,-629.25 190.12,-624.15 187.44,-632.4 194.46,-637.5"/>
</g>
<!-- 125856070581408 -->
<g id="node3" class="node">
<title>125856070581408</title>
<polygon fill="#fee548" stroke="#34262b" points="169.46,-423.15 160.78,-423.15 158.1,-431.4 155.42,-423.15 146.74,-423.15 153.76,-418.05 151.08,-409.8 158.1,-414.9 165.12,-409.8 162.44,-418.05 169.46,-423.15"/>
</g>
<!-- 149114173335496 -->
<g id="node4" class="node">
<title>149114173335496</title>
<polygon fill="#fee548" stroke="#34262b" points="504.98,-398.7 496.3,-398.7 493.62,-406.95 490.94,-398.7 482.26,-398.7 489.28,-393.6 486.6,-385.35 493.62,-390.45 500.64,-385.35 497.96,-393.6 504.98,-398.7"/>
</g>
<!-- 155147806452639 -->
<g id="node5" class="node">
<title>155147806452639</title>
<polygon fill="#fee548" stroke="#34262b" points="488.46,-50.15 479.78,-50.15 477.1,-58.4 474.42,-50.15 465.74,-50.15 472.76,-45.05 470.08,-36.8 477.1,-41.9 484.12,-36.8 481.44,-45.05 488.46,-50.15"/>
</g>
<!-- 156364735562291 -->
<g id="node6" class="node">
<title>156364735562291</title>
<polygon fill="#fee548" stroke="#34262b" points="428.46,-611.5 419.78,-611.5 417.1,-619.75 414.42,-611.5 405.74,-611.5 412.76,-606.4 410.08,-598.15 417.1,-603.25 424.12,-598.15 421.44,-606.4 428.46,-611.5"/>
</g>
<!-- 240070160009025 -->
<g id="node7" class="node">
<title>240070160009025</title>
<polygon fill="#fee548" stroke="#34262b" points="644.46,-50.15 635.78,-50.15 633.1,-58.4 630.42,-50.15 621.74,-50.15 628.76,-45.05 626.08,-36.8 633.1,-41.9 640.12,-36.8 637.44,-45.05 644.46,-50.15"/>
</g>
<!-- 243582352371835 -->
<g id="node8" class="node">
<title>243582352371835</title>
<polygon fill="#fee548" stroke="#34262b" points="361.98,-294.7 353.3,-294.7 350.62,-302.95 347.94,-294.7 339.26,-294.7 346.28,-289.6 343.6,-281.35 350.62,-286.45 357.64,-281.35 354.96,-289.6 361.98,-294.7"/>
</g>
<!-- 248960157567190 -->
<g id="node9" class="node">
<title>248960157567190</title>
<polygon fill="#fee548" stroke="#34262b" points="150.46,-518.15 141.78,-518.15 139.1,-526.4 136.42,-518.15 127.74,-518.15 134.76,-513.05 132.08,-504.8 139.1,-509.9 146.12,-504.8 143.44,-513.05 150.46,-518.15"/>
</g>
<!-- 253352561534995 -->
<g id="node10" class="node">
<title>253352561534995</title>
<polygon fill="#fee548" stroke="#34262b" points="306.46,-37.15 297.78,-37.15 295.1,-45.4 292.42,-37.15 283.74,-37.15 290.76,-32.05 288.08,-23.8 295.1,-28.9 302.12,-23.8 299.44,-32.05 306.46,-37.15"/>
</g>
<!-- 253600606633879 -->
<g id="node11" class="node">
<title>253600606633879</title>
<polygon fill="#fee548" stroke="#34262b" points="613.81,-543.15 605.13,-543.15 602.45,-551.4 599.77,-543.15 591.1,-543.15 598.12,-538.05 595.44,-529.8 602.45,-534.9 609.47,-529.8 606.79,-538.05 613.81,-543.15"/>
</g>
<!-- 298774613720463 -->
<g id="node12" class="node">
<title>298774613720463</title>
<polygon fill="#fee548" stroke="#34262b" points="124.46,-297.15 115.78,-297.15 113.1,-305.4 110.42,-297.15 101.74,-297.15 108.76,-292.05 106.08,-283.8 113.1,-288.9 120.12,-283.8 117.44,-292.05 124.46,-297.15"/>
</g>
<!-- 33460752933766 -->
<g id="node13" class="node">
<title>33460752933766</title>
<polygon fill="#fee548" stroke="#34262b" points="124.46,-24.15 115.78,-24.15 113.1,-32.4 110.42,-24.15 101.74,-24.15 108.76,-19.05 106.08,-10.8 113.1,-15.9 120.12,-10.8 117.44,-19.05 124.46,-24.15"/>
</g>
<!-- 360051049043076 -->
<g id="node14" class="node">
<title>360051049043076</title>
<polygon fill="#fee548" stroke="#34262b" points="543.98,-216.7 535.3,-216.7 532.62,-224.95 529.94,-216.7 521.26,-216.7 528.28,-211.6 525.6,-203.35 532.62,-208.45 539.64,-203.35 536.96,-211.6 543.98,-216.7"/>
</g>
<!-- 393035298143192 -->
<g id="node15" class="node">
<title>393035298143192</title>
<polygon fill="#fee548" stroke="#34262b" points="683.46,-141.15 674.78,-141.15 672.1,-149.4 669.42,-141.15 660.74,-141.15 667.76,-136.05 665.08,-127.8 672.1,-132.9 679.12,-127.8 676.44,-136.05 683.46,-141.15"/>
</g>
<!-- 436819829846544 -->
<g id="node16" class="node">
<title>436819829846544</title>
<polygon fill="#fee548" stroke="#34262b" points="223.81,-192.15 215.13,-192.15 212.45,-200.4 209.77,-192.15 201.1,-192.15 208.12,-187.05 205.44,-178.8 212.45,-183.9 219.47,-178.8 216.79,-187.05 223.81,-192.15"/>
</g>
<!-- 5591408610389 -->
<g id="node17" class="node">
<title>5591408610389</title>
<polygon fill="#fee548" stroke="#34262b" points="623.46,-351.5 614.78,-351.5 612.1,-359.75 609.42,-351.5 600.74,-351.5 607.76,-346.4 605.08,-338.15 612.1,-343.25 619.12,-338.15 616.44,-346.4 623.46,-351.5"/>
</g>
<!-- 92857264956831 -->
<g id="node18" class="node">
<title>92857264956831</title>
<polygon fill="#fee548" stroke="#34262b" points="397.46,-115.15 388.78,-115.15 386.1,-123.4 383.42,-115.15 374.74,-115.15 381.76,-110.05 379.08,-101.8 386.1,-106.9 393.12,-101.8 390.44,-110.05 397.46,-115.15"/>
</g>
<!-- 002 -->
<g id="node19" class="node">
<title>002</title>
<ellipse fill="#dbde92" stroke="#34262b" cx="158.1" cy="-348.6" rx="21.6" ry="21.6"/>
<text text-anchor="middle" x="158.1" y="-340.88" font-family="Helvetica,sans-Serif" font-size="18.00" fill="#34262b">002</text>
<text text-anchor="middle" x="131.62" y="-371.85" font-family="Helvetica,sans-Serif" font-size="18.00" fill="#34262b">1</text>
</g>
<!-- 002&#45;&gt;125856070581408 -->
<g id="edge1" class="edge">
<title>002&#45;&gt;125856070581408</title>
<path fill="none" stroke="#34262b" stroke-width="0.75" d="M138.72,-358.61C127.63,-373.6 128.65,-401.45 141.77,-414.08"/>
<polygon fill="#34262b" stroke="#34262b" stroke-width="0.75" points="139.55,-416.83 149.93,-418.96 143.15,-410.82 139.55,-416.83"/>
</g>
<!-- 002&#45;&gt;125856070581408 -->
<g id="edge2" class="edge">
<title>002&#45;&gt;125856070581408</title>
<path fill="none" stroke="#34262b" stroke-width="0.75" d="M177.48,-358.61C188.57,-373.6 187.55,-401.45 174.43,-414.08"/>
<polygon fill="#34262b" stroke="#34262b" stroke-width="0.75" points="173.05,-410.82 166.27,-418.96 176.65,-416.83 173.05,-410.82"/>
</g>
<!-- 002&#45;&gt;125856070581408 -->
<g id="edge3" class="edge">
<title>002&#45;&gt;125856070581408</title>
<path fill="none" stroke="#34262b" stroke-width="0.75" d="M170.08,-367.14C172.55,-380.22 172.01,-397.35 168.45,-408.66"/>
<polygon fill="#34262b" stroke="#34262b" stroke-width="0.75" points="165.39,-406.96 163.69,-417.41 171.54,-410.3 165.39,-406.96"/>
</g>
<!-- 002&#45;&gt;125856070581408 -->
<g id="edge4" class="edge">
<title>002&#45;&gt;125856070581408</title>
<path fill="none" stroke="#34262b" stroke-width="0.75" d="M158.1,-370.59C158.1,-381.18 158.1,-393.67 158.1,-403.52"/>
<polygon fill="#34262b" stroke="#34262b" stroke-width="0.75" points="154.6,-403.43 158.1,-413.43 161.6,-403.43 154.6,-403.43"/>
</g>
<!-- 002&#45;&gt;125856070581408 -->
<g id="edge5" class="edge">
<title>002&#45;&gt;125856070581408</title>
<path fill="none" stroke="#34262b" stroke-width="0.75" d="M146.12,-367.14C143.65,-380.22 144.19,-397.35 147.75,-408.66"/>
<polygon fill="#34262b" stroke="#34262b" stroke-width="0.75" points="144.66,-410.3 152.51,-417.41 150.81,-406.96 144.66,-410.3"/>
</g>
<!-- 455354753305299 -->
<g id="node72" class="node">
<title>455354753305299</title>
<ellipse fill="none" stroke="#34262b" cx="158.1" cy="-276.6" rx="3.6" ry="3.6"/>
<text text-anchor="middle" x="149.62" y="-281.85" font-family="Helvetica,sans-Serif" font-size="18.00" fill="#34262b">1</text>
</g>
<!-- 002&#45;&gt;455354753305299 -->
<g id="edge35" class="edge">
<title>002&#45;&gt;455354753305299</title>
<path fill="none" stroke="#34262b" stroke-width="0.75" d="M158.1,-326.61C158.1,-310.23 158.1,-289.27 158.1,-280.62"/>
</g>
<!-- 009 -->
<g id="node20" class="node">
<title>009</title>
<ellipse fill="#dbde92" stroke="#34262b" cx="540.1" cy="-504.6" rx="21.6" ry="21.6"/>
<text text-anchor="middle" x="540.1" y="-496.88" font-family="Helvetica,sans-Serif" font-size="18.00" fill="#34262b">009</text>
<text text-anchor="middle" x="508.75" y="-527.85" font-family="Helvetica,sans-Serif" font-size="18.00" fill="#34262b">13</text>
</g>
<!-- 009&#45;&gt;253600606633879 -->
<g id="edge6" class="edge">
<title>009&#45;&gt;253600606633879</title>
<path fill="none" stroke="#34262b" stroke-width="0.75" d="M555.04,-520.37C563.73,-526.34 574.71,-532.58 583.93,-536.76"/>
<polygon fill="#34262b" stroke="#34262b" stroke-width="0.75" points="582.41,-539.92 592.99,-540.26 584.93,-533.39 582.41,-539.92"/>
</g>
<!-- 009&#45;&gt;253600606633879 -->
<g id="edge7" class="edge">
<title>009&#45;&gt;253600606633879</title>
<path fill="none" stroke="#34262b" stroke-width="0.75" d="M561.23,-509.66C569.58,-513.64 579,-519.05 586.74,-524.3"/>
<polygon fill="#34262b" stroke="#34262b" stroke-width="0.75" points="584.42,-526.94 594.54,-530.08 588.59,-521.32 584.42,-526.94"/>
</g>
<!-- 253109520226675 -->
<g id="node56" class="node">
<title>253109520226675</title>
<ellipse fill="none" stroke="#34262b" cx="540.1" cy="-576.6" rx="3.6" ry="3.6"/>
</g>
<!-- 009&#45;&gt;253109520226675 -->
<g id="edge36" class="edge">
<title>009&#45;&gt;253109520226675</title>
<path fill="none" stroke="#34262b" stroke-width="0.75" d="M540.1,-526.59C540.1,-542.97 540.1,-563.93 540.1,-572.58"/>
</g>
<!-- 253352804744747 -->
<g id="node57" class="node">
<title>253352804744747</title>
<ellipse fill="none" stroke="#34262b" cx="477.75" cy="-540.6" rx="3.6" ry="3.6"/>
<text text-anchor="middle" x="469.27" y="-545.85" font-family="Helvetica,sans-Serif" font-size="18.00" fill="#34262b">5</text>
</g>
<!-- 009&#45;&gt;253352804744747 -->
<g id="edge37" class="edge">
<title>009&#45;&gt;253352804744747</title>
<path fill="none" stroke="#34262b" stroke-width="0.75" d="M521.05,-515.6C506.73,-523.87 488.35,-534.48 481,-538.72"/>
</g>
<!-- 253843891117135 -->
<g id="node58" class="node">
<title>253843891117135</title>
<ellipse fill="none" stroke="#34262b" cx="477.75" cy="-468.6" rx="3.6" ry="3.6"/>
</g>
<!-- 009&#45;&gt;253843891117135 -->
<g id="edge38" class="edge">
<title>009&#45;&gt;253843891117135</title>
<path fill="none" stroke="#34262b" stroke-width="0.75" d="M521.05,-493.6C506.73,-485.33 488.35,-474.72 481,-470.48"/>
</g>
<!-- 253974688626775 -->
<g id="node59" class="node">
<title>253974688626775</title>
<ellipse fill="none" stroke="#34262b" cx="540.1" cy="-432.6" rx="3.6" ry="3.6"/>
</g>
<!-- 009&#45;&gt;253974688626775 -->
<g id="edge39" class="edge">
<title>009&#45;&gt;253974688626775</title>
<path fill="none" stroke="#34262b" stroke-width="0.75" d="M540.1,-482.61C540.1,-466.23 540.1,-445.27 540.1,-436.62"/>
</g>
<!-- 254220120595727 -->
<g id="node60" class="node">
<title>254220120595727</title>
<ellipse fill="none" stroke="#34262b" cx="602.45" cy="-468.6" rx="3.6" ry="3.6"/>
</g>
<!-- 009&#45;&gt;254220120595727 -->
<g id="edge40" class="edge">
<title>009&#45;&gt;254220120595727</title>
<path fill="none" stroke="#34262b" stroke-width="0.75" d="M559.15,-493.6C573.47,-485.33 591.85,-474.72 599.2,-470.48"/>
</g>
<!-- 010 -->
<g id="node21" class="node">
<title>010</title>
<ellipse fill="#dbde92" stroke="#34262b" cx="405.1" cy="-47.6" rx="21.6" ry="21.6"/>
<text text-anchor="middle" x="405.1" y="-39.88" font-family="Helvetica,sans-Serif" font-size="18.00" fill="#34262b">010</text>
<text text-anchor="middle" x="378.62" y="-70.85" font-family="Helvetica,sans-Serif" font-size="18.00" fill="#34262b">4</text>
</g>
<!-- 010&#45;&gt;155147806452639 -->
<g id="edge8" class="edge">
<title>010&#45;&gt;155147806452639</title>
<path fill="none" stroke="#34262b" stroke-width="0.75" d="M425.93,-53.79C437.96,-54.73 452.76,-54.49 463.34,-53.04"/>
<polygon fill="#34262b" stroke="#34262b" stroke-width="0.75" points="463.91,-56.5 472.86,-50.83 462.33,-49.68 463.91,-56.5"/>
</g>
<!-- 010&#45;&gt;155147806452639 -->
<g id="edge9" class="edge">
<title>010&#45;&gt;155147806452639</title>
<path fill="none" stroke="#34262b" stroke-width="0.75" d="M425.93,-41.41C437.26,-40.52 451.06,-40.69 461.47,-41.92"/>
<polygon fill="#34262b" stroke="#34262b" stroke-width="0.75" points="460.5,-45.3 470.98,-43.74 461.81,-38.42 460.5,-45.3"/>
</g>
<!-- 019 -->
<g id="node22" class="node">
<title>019</title>
<ellipse fill="#dbde92" stroke="#34262b" cx="427.1" cy="-368.6" rx="21.6" ry="21.6"/>
<text text-anchor="middle" x="427.1" y="-360.88" font-family="Helvetica,sans-Serif" font-size="18.00" fill="#34262b">019</text>
<text text-anchor="middle" x="395.75" y="-391.85" font-family="Helvetica,sans-Serif" font-size="18.00" fill="#34262b">14</text>
</g>
<!-- 019&#45;&gt;149114173335496 -->
<g id="edge10" class="edge">
<title>019&#45;&gt;149114173335496</title>
<path fill="none" stroke="#34262b" stroke-width="0.75" d="M447.42,-377.02C457.3,-381.11 468.99,-385.95 478.14,-389.74"/>
<polygon fill="#34262b" stroke="#34262b" stroke-width="0.75" points="476.71,-392.94 487.28,-393.53 479.39,-386.47 476.71,-392.94"/>
</g>
<!-- 148515034955604 -->
<g id="node42" class="node">
<title>148515034955604</title>
<ellipse fill="none" stroke="#34262b" cx="454.65" cy="-435.12" rx="3.6" ry="3.6"/>
<text text-anchor="middle" x="446.18" y="-440.37" font-family="Helvetica,sans-Serif" font-size="18.00" fill="#34262b">7</text>
</g>
<!-- 019&#45;&gt;148515034955604 -->
<g id="edge41" class="edge">
<title>019&#45;&gt;148515034955604</title>
<path fill="none" stroke="#34262b" stroke-width="0.75" d="M435.52,-388.92C441.85,-404.2 449.97,-423.8 453.22,-431.65"/>
</g>
<!-- 148611824478556 -->
<g id="node43" class="node">
<title>148611824478556</title>
<ellipse fill="none" stroke="#34262b" cx="399.55" cy="-435.12" rx="3.6" ry="3.6"/>
</g>
<!-- 019&#45;&gt;148611824478556 -->
<g id="edge42" class="edge">
<title>019&#45;&gt;148611824478556</title>
<path fill="none" stroke="#34262b" stroke-width="0.75" d="M418.68,-388.92C412.35,-404.2 404.23,-423.8 400.98,-431.65"/>
</g>
<!-- 148669601188638 -->
<g id="node44" class="node">
<title>148669601188638</title>
<ellipse fill="none" stroke="#34262b" cx="360.58" cy="-396.15" rx="3.6" ry="3.6"/>
</g>
<!-- 019&#45;&gt;148669601188638 -->
<g id="edge43" class="edge">
<title>019&#45;&gt;148669601188638</title>
<path fill="none" stroke="#34262b" stroke-width="0.75" d="M406.78,-377.02C391.5,-383.35 371.9,-391.47 364.05,-394.72"/>
</g>
<!-- 148879872816411 -->
<g id="node45" class="node">
<title>148879872816411</title>
<ellipse fill="none" stroke="#34262b" cx="360.58" cy="-341.05" rx="3.6" ry="3.6"/>
</g>
<!-- 019&#45;&gt;148879872816411 -->
<g id="edge44" class="edge">
<title>019&#45;&gt;148879872816411</title>
<path fill="none" stroke="#34262b" stroke-width="0.75" d="M406.78,-360.18C391.5,-353.85 371.9,-345.73 364.05,-342.48"/>
</g>
<!-- 149003955203329 -->
<g id="node46" class="node">
<title>149003955203329</title>
<ellipse fill="none" stroke="#34262b" cx="399.55" cy="-302.08" rx="3.6" ry="3.6"/>
</g>
<!-- 019&#45;&gt;149003955203329 -->
<g id="edge45" class="edge">
<title>019&#45;&gt;149003955203329</title>
<path fill="none" stroke="#34262b" stroke-width="0.75" d="M418.68,-348.28C412.35,-333 404.23,-313.4 400.98,-305.55"/>
</g>
<!-- 149210280710509 -->
<g id="node47" class="node">
<title>149210280710509</title>
<ellipse fill="none" stroke="#34262b" cx="454.65" cy="-302.08" rx="3.6" ry="3.6"/>
</g>
<!-- 019&#45;&gt;149210280710509 -->
<g id="edge46" class="edge">
<title>019&#45;&gt;149210280710509</title>
<path fill="none" stroke="#34262b" stroke-width="0.75" d="M435.52,-348.28C441.85,-333 449.97,-313.4 453.22,-305.55"/>
</g>
<!-- 149468789687598 -->
<g id="node48" class="node">
<title>149468789687598</title>
<ellipse fill="none" stroke="#34262b" cx="493.62" cy="-341.05" rx="3.6" ry="3.6"/>
</g>
<!-- 019&#45;&gt;149468789687598 -->
<g id="edge47" class="edge">
<title>019&#45;&gt;149468789687598</title>
<path fill="none" stroke="#34262b" stroke-width="0.75" d="M447.42,-360.18C462.7,-353.85 482.3,-345.73 490.15,-342.48"/>
</g>
<!-- 023 -->
<g id="node23" class="node">
<title>023</title>
<ellipse fill="#dbde92" stroke="#34262b" cx="576.1" cy="-286.6" rx="21.6" ry="21.6"/>
<text text-anchor="middle" x="576.1" y="-278.88" font-family="Helvetica,sans-Serif" font-size="18.00" fill="#34262b">023</text>
<text text-anchor="middle" x="544.75" y="-309.85" font-family="Helvetica,sans-Serif" font-size="18.00" fill="#34262b">10</text>
</g>
<!-- 023&#45;&gt;5591408610389 -->
<g id="edge11" class="edge">
<title>023&#45;&gt;5591408610389</title>
<path fill="none" stroke="#34262b" stroke-width="0.75" d="M587.1,-305.65C591.31,-312.95 596.14,-321.3 600.42,-328.72"/>
<polygon fill="#34262b" stroke="#34262b" stroke-width="0.75" points="597.38,-330.46 605.41,-337.37 603.44,-326.96 597.38,-330.46"/>
</g>
<!-- 14110344140782 -->
<g id="node41" class="node">
<title>14110344140782</title>
<ellipse fill="none" stroke="#34262b" cx="504.1" cy="-286.6" rx="3.6" ry="3.6"/>
<text text-anchor="middle" x="495.62" y="-291.85" font-family="Helvetica,sans-Serif" font-size="18.00" fill="#34262b">2</text>
</g>
<!-- 023&#45;&gt;14110344140782 -->
<g id="edge48" class="edge">
<title>023&#45;&gt;14110344140782</title>
<path fill="none" stroke="#34262b" stroke-width="0.75" d="M554.11,-286.6C537.73,-286.6 516.77,-286.6 508.12,-286.6"/>
</g>
<!-- 62621691563930 -->
<g id="node74" class="node">
<title>62621691563930</title>
<ellipse fill="none" stroke="#34262b" cx="612.1" cy="-224.25" rx="3.6" ry="3.6"/>
</g>
<!-- 023&#45;&gt;62621691563930 -->
<g id="edge49" class="edge">
<title>023&#45;&gt;62621691563930</title>
<path fill="none" stroke="#34262b" stroke-width="0.75" d="M587.1,-267.55C595.37,-253.23 605.98,-234.85 610.22,-227.5"/>
</g>
<!-- 024 -->
<g id="node24" class="node">
<title>024</title>
<ellipse fill="#dbde92" stroke="#34262b" cx="67.1" cy="-515.6" rx="21.6" ry="21.6"/>
<text text-anchor="middle" x="67.1" y="-507.88" font-family="Helvetica,sans-Serif" font-size="18.00" fill="#34262b">024</text>
<text text-anchor="middle" x="36.5" y="-538.85" font-family="Helvetica,sans-Serif" font-size="18.00" fill="#34262b">11</text>
</g>
<!-- 024&#45;&gt;248960157567190 -->
<g id="edge12" class="edge">
<title>024&#45;&gt;248960157567190</title>
<path fill="none" stroke="#34262b" stroke-width="0.75" d="M89.09,-515.6C98.87,-515.6 110.28,-515.6 119.73,-515.6"/>
<polygon fill="#34262b" stroke="#34262b" stroke-width="0.75" points="119.59,-519.1 129.59,-515.6 119.59,-512.1 119.59,-519.1"/>
</g>
<!-- 032 -->
<g id="node25" class="node">
<title>032</title>
<ellipse fill="#dbde92" stroke="#34262b" cx="147.1" cy="-572.6" rx="21.6" ry="21.6"/>
<text text-anchor="middle" x="147.1" y="-564.88" font-family="Helvetica,sans-Serif" font-size="18.00" fill="#34262b">032</text>
<text text-anchor="middle" x="120.62" y="-595.85" font-family="Helvetica,sans-Serif" font-size="18.00" fill="#34262b">5</text>
</g>
<!-- 032&#45;&gt;1230160502988882 -->
<g id="edge13" class="edge">
<title>032&#45;&gt;1230160502988882</title>
<path fill="none" stroke="#34262b" stroke-width="0.75" d="M158.1,-591.65C162.31,-598.95 167.14,-607.3 171.42,-614.72"/>
<polygon fill="#34262b" stroke="#34262b" stroke-width="0.75" points="168.38,-616.46 176.41,-623.37 174.44,-612.96 168.38,-616.46"/>
</g>
<!-- 1230160502988894 -->
<g id="node39" class="node">
<title>1230160502988894</title>
<ellipse fill="none" stroke="#34262b" cx="75.1" cy="-572.6" rx="3.6" ry="3.6"/>
</g>
<!-- 032&#45;&gt;1230160502988894 -->
<g id="edge50" class="edge">
<title>032&#45;&gt;1230160502988894</title>
<path fill="none" stroke="#34262b" stroke-width="0.75" d="M125.11,-572.6C108.73,-572.6 87.77,-572.6 79.12,-572.6"/>
</g>
<!-- 1230160502992190 -->
<g id="node40" class="node">
<title>1230160502992190</title>
<ellipse fill="none" stroke="#34262b" cx="183.1" cy="-510.25" rx="3.6" ry="3.6"/>
<text text-anchor="middle" x="174.62" y="-515.5" font-family="Helvetica,sans-Serif" font-size="18.00" fill="#34262b">2</text>
</g>
<!-- 032&#45;&gt;1230160502992190 -->
<g id="edge51" class="edge">
<title>032&#45;&gt;1230160502992190</title>
<path fill="none" stroke="#34262b" stroke-width="0.75" d="M158.1,-553.55C166.37,-539.23 176.98,-520.85 181.22,-513.5"/>
</g>
<!-- 033 -->
<g id="node26" class="node">
<title>033</title>
<ellipse fill="#dbde92" stroke="#34262b" cx="41.1" cy="-294.6" rx="21.6" ry="21.6"/>
<text text-anchor="middle" x="41.1" y="-286.88" font-family="Helvetica,sans-Serif" font-size="18.00" fill="#34262b">033</text>
<text text-anchor="middle" x="14.62" y="-317.85" font-family="Helvetica,sans-Serif" font-size="18.00" fill="#34262b">6</text>
</g>
<!-- 033&#45;&gt;298774613720463 -->
<g id="edge14" class="edge">
<title>033&#45;&gt;298774613720463</title>
<path fill="none" stroke="#34262b" stroke-width="0.75" d="M63.09,-294.6C72.87,-294.6 84.28,-294.6 93.73,-294.6"/>
<polygon fill="#34262b" stroke="#34262b" stroke-width="0.75" points="93.59,-298.1 103.59,-294.6 93.59,-291.1 93.59,-298.1"/>
</g>
<!-- 037 -->
<g id="node27" class="node">
<title>037</title>
<ellipse fill="#dbde92" stroke="#34262b" cx="150.1" cy="-153.6" rx="21.6" ry="21.6"/>
<text text-anchor="middle" x="150.1" y="-145.88" font-family="Helvetica,sans-Serif" font-size="18.00" fill="#34262b">037</text>
<text text-anchor="middle" x="118.75" y="-176.85" font-family="Helvetica,sans-Serif" font-size="18.00" fill="#34262b">12</text>
</g>
<!-- 037&#45;&gt;436819829846544 -->
<g id="edge15" class="edge">
<title>037&#45;&gt;436819829846544</title>
<path fill="none" stroke="#34262b" stroke-width="0.75" d="M160.17,-173.24C170.54,-182.17 186.21,-190.47 197.89,-192.79"/>
<polygon fill="#34262b" stroke="#34262b" stroke-width="0.75" points="197.82,-196.29 207.75,-192.6 197.69,-189.3 197.82,-196.29"/>
</g>
<!-- 037&#45;&gt;436819829846544 -->
<g id="edge16" class="edge">
<title>037&#45;&gt;436819829846544</title>
<path fill="none" stroke="#34262b" stroke-width="0.75" d="M172.15,-152.5C184.49,-156.82 198.77,-165.62 206.86,-174.21"/>
<polygon fill="#34262b" stroke="#34262b" stroke-width="0.75" points="203.77,-175.87 212.2,-182.28 209.6,-172.01 203.77,-175.87"/>
</g>
<!-- 037&#45;&gt;436819829846544 -->
<g id="edge17" class="edge">
<title>037&#45;&gt;436819829846544</title>
<path fill="none" stroke="#34262b" stroke-width="0.75" d="M169.15,-164.6C178.41,-169.95 189.37,-176.27 197.94,-181.22"/>
<polygon fill="#34262b" stroke="#34262b" stroke-width="0.75" points="196.11,-184.2 206.52,-186.17 199.61,-178.14 196.11,-184.2"/>
</g>
<!-- 374196928538196 -->
<g id="node68" class="node">
<title>374196928538196</title>
<ellipse fill="none" stroke="#34262b" cx="150.1" cy="-225.6" rx="3.6" ry="3.6"/>
<text text-anchor="middle" x="141.62" y="-230.85" font-family="Helvetica,sans-Serif" font-size="18.00" fill="#34262b">5</text>
</g>
<!-- 037&#45;&gt;374196928538196 -->
<g id="edge52" class="edge">
<title>037&#45;&gt;374196928538196</title>
<path fill="none" stroke="#34262b" stroke-width="0.75" d="M150.1,-175.59C150.1,-191.97 150.1,-212.93 150.1,-221.58"/>
</g>
<!-- 378179076514973 -->
<g id="node69" class="node">
<title>378179076514973</title>
<ellipse fill="none" stroke="#34262b" cx="87.75" cy="-189.6" rx="3.6" ry="3.6"/>
</g>
<!-- 037&#45;&gt;378179076514973 -->
<g id="edge53" class="edge">
<title>037&#45;&gt;378179076514973</title>
<path fill="none" stroke="#34262b" stroke-width="0.75" d="M131.05,-164.6C116.73,-172.87 98.35,-183.48 91,-187.72"/>
</g>
<!-- 437237875864615 -->
<g id="node70" class="node">
<title>437237875864615</title>
<ellipse fill="none" stroke="#34262b" cx="87.75" cy="-117.6" rx="3.6" ry="3.6"/>
</g>
<!-- 037&#45;&gt;437237875864615 -->
<g id="edge54" class="edge">
<title>037&#45;&gt;437237875864615</title>
<path fill="none" stroke="#34262b" stroke-width="0.75" d="M131.05,-142.6C116.73,-134.33 98.35,-123.72 91,-119.48"/>
</g>
<!-- 446356723589658 -->
<g id="node71" class="node">
<title>446356723589658</title>
<ellipse fill="none" stroke="#34262b" cx="150.1" cy="-81.6" rx="3.6" ry="3.6"/>
</g>
<!-- 037&#45;&gt;446356723589658 -->
<g id="edge55" class="edge">
<title>037&#45;&gt;446356723589658</title>
<path fill="none" stroke="#34262b" stroke-width="0.75" d="M150.1,-131.61C150.1,-115.23 150.1,-94.27 150.1,-85.62"/>
</g>
<!-- 836962415998811 -->
<g id="node77" class="node">
<title>836962415998811</title>
<ellipse fill="none" stroke="#34262b" cx="212.45" cy="-117.6" rx="3.6" ry="3.6"/>
</g>
<!-- 037&#45;&gt;836962415998811 -->
<g id="edge56" class="edge">
<title>037&#45;&gt;836962415998811</title>
<path fill="none" stroke="#34262b" stroke-width="0.75" d="M169.15,-142.6C183.47,-134.33 201.85,-123.72 209.2,-119.48"/>
</g>
<!-- 039 -->
<g id="node28" class="node">
<title>039</title>
<ellipse fill="#dbde92" stroke="#34262b" cx="284.1" cy="-264.6" rx="21.6" ry="21.6"/>
<text text-anchor="middle" x="284.1" y="-256.88" font-family="Helvetica,sans-Serif" font-size="18.00" fill="#34262b">039</text>
<text text-anchor="middle" x="252.75" y="-287.85" font-family="Helvetica,sans-Serif" font-size="18.00" fill="#34262b">15</text>
</g>
<!-- 039&#45;&gt;243582352371835 -->
<g id="edge18" class="edge">
<title>039&#45;&gt;243582352371835</title>
<path fill="none" stroke="#34262b" stroke-width="0.75" d="M300.97,-278.28C309.85,-282.81 320.77,-287.3 330.13,-290.26"/>
<polygon fill="#34262b" stroke="#34262b" stroke-width="0.75" points="329.2,-293.63 339.76,-292.78 330.98,-286.86 329.2,-293.63"/>
</g>
<!-- 039&#45;&gt;243582352371835 -->
<g id="edge19" class="edge">
<title>039&#45;&gt;243582352371835</title>
<path fill="none" stroke="#34262b" stroke-width="0.75" d="M305.71,-266.85C315.18,-269.93 326.08,-274.48 334.79,-279"/>
<polygon fill="#34262b" stroke="#34262b" stroke-width="0.75" points="332.99,-282.01 343.39,-284.03 336.52,-275.96 332.99,-282.01"/>
</g>
<!-- 1076677401390944 -->
<g id="node38" class="node">
<title>1076677401390944</title>
<ellipse fill="none" stroke="#34262b" cx="311.65" cy="-331.12" rx="3.6" ry="3.6"/>
</g>
<!-- 039&#45;&gt;1076677401390944 -->
<g id="edge57" class="edge">
<title>039&#45;&gt;1076677401390944</title>
<path fill="none" stroke="#34262b" stroke-width="0.75" d="M292.52,-284.92C298.85,-300.2 306.97,-319.8 310.22,-327.65"/>
</g>
<!-- 165717715346964 -->
<g id="node51" class="node">
<title>165717715346964</title>
<ellipse fill="none" stroke="#34262b" cx="256.55" cy="-331.12" rx="3.6" ry="3.6"/>
</g>
<!-- 039&#45;&gt;165717715346964 -->
<g id="edge58" class="edge">
<title>039&#45;&gt;165717715346964</title>
<path fill="none" stroke="#34262b" stroke-width="0.75" d="M275.68,-284.92C269.35,-300.2 261.23,-319.8 257.98,-327.65"/>
</g>
<!-- 189105737194104 -->
<g id="node52" class="node">
<title>189105737194104</title>
<ellipse fill="none" stroke="#34262b" cx="217.58" cy="-292.15" rx="3.6" ry="3.6"/>
</g>
<!-- 039&#45;&gt;189105737194104 -->
<g id="edge59" class="edge">
<title>039&#45;&gt;189105737194104</title>
<path fill="none" stroke="#34262b" stroke-width="0.75" d="M263.78,-273.02C248.5,-279.35 228.9,-287.47 221.05,-290.72"/>
</g>
<!-- 198102760205823 -->
<g id="node53" class="node">
<title>198102760205823</title>
<ellipse fill="none" stroke="#34262b" cx="217.58" cy="-237.05" rx="3.6" ry="3.6"/>
</g>
<!-- 039&#45;&gt;198102760205823 -->
<g id="edge60" class="edge">
<title>039&#45;&gt;198102760205823</title>
<path fill="none" stroke="#34262b" stroke-width="0.75" d="M263.78,-256.18C248.5,-249.85 228.9,-241.73 221.05,-238.48"/>
</g>
<!-- 226313462278852 -->
<g id="node54" class="node">
<title>226313462278852</title>
<ellipse fill="none" stroke="#34262b" cx="256.55" cy="-198.08" rx="3.6" ry="3.6"/>
</g>
<!-- 039&#45;&gt;226313462278852 -->
<g id="edge61" class="edge">
<title>039&#45;&gt;226313462278852</title>
<path fill="none" stroke="#34262b" stroke-width="0.75" d="M275.68,-244.28C269.35,-229 261.23,-209.4 257.98,-201.55"/>
</g>
<!-- 237984121642486 -->
<g id="node55" class="node">
<title>237984121642486</title>
<ellipse fill="none" stroke="#34262b" cx="311.65" cy="-198.08" rx="3.6" ry="3.6"/>
</g>
<!-- 039&#45;&gt;237984121642486 -->
<g id="edge62" class="edge">
<title>039&#45;&gt;237984121642486</title>
<path fill="none" stroke="#34262b" stroke-width="0.75" d="M292.52,-244.28C298.85,-229 306.97,-209.4 310.22,-201.55"/>
</g>
<!-- 583015109991402 -->
<g id="node73" class="node">
<title>583015109991402</title>
<ellipse fill="none" stroke="#34262b" cx="350.62" cy="-237.05" rx="3.6" ry="3.6"/>
<text text-anchor="middle" x="342.14" y="-242.3" font-family="Helvetica,sans-Serif" font-size="18.00" fill="#34262b">7</text>
</g>
<!-- 039&#45;&gt;583015109991402 -->
<g id="edge63" class="edge">
<title>039&#45;&gt;583015109991402</title>
<path fill="none" stroke="#34262b" stroke-width="0.75" d="M304.42,-256.18C319.7,-249.85 339.3,-241.73 347.15,-238.48"/>
</g>
<!-- 043 -->
<g id="node29" class="node">
<title>043</title>
<ellipse fill="#dbde92" stroke="#34262b" cx="251.1" cy="-461.6" rx="21.6" ry="21.6"/>
<text text-anchor="middle" x="251.1" y="-453.88" font-family="Helvetica,sans-Serif" font-size="18.00" fill="#34262b">043</text>
<text text-anchor="middle" x="224.62" y="-484.85" font-family="Helvetica,sans-Serif" font-size="18.00" fill="#34262b">3</text>
</g>
<!-- 043&#45;&gt;103209978926087 -->
<g id="edge20" class="edge">
<title>043&#45;&gt;103209978926087</title>
<path fill="none" stroke="#34262b" stroke-width="0.75" d="M259.06,-482.19C266.5,-490.08 277.29,-497.94 287.11,-502.62"/>
<polygon fill="#34262b" stroke="#34262b" stroke-width="0.75" points="285.89,-505.9 296.48,-505.99 288.26,-499.31 285.89,-505.9"/>
</g>
<!-- 043&#45;&gt;103209978926087 -->
<g id="edge21" class="edge">
<title>043&#45;&gt;103209978926087</title>
<path fill="none" stroke="#34262b" stroke-width="0.75" d="M273.14,-462.81C284.74,-468.29 297.74,-478.25 304.98,-487.49"/>
<polygon fill="#34262b" stroke="#34262b" stroke-width="0.75" points="301.78,-488.94 309.69,-496 307.91,-485.55 301.78,-488.94"/>
</g>
<!-- 043&#45;&gt;103209978926087 -->
<g id="edge22" class="edge">
<title>043&#45;&gt;103209978926087</title>
<path fill="none" stroke="#34262b" stroke-width="0.75" d="M268.89,-474.53C277.36,-480.68 287.34,-487.93 295.27,-493.69"/>
<polygon fill="#34262b" stroke="#34262b" stroke-width="0.75" points="293.15,-496.48 303.3,-499.52 297.26,-490.81 293.15,-496.48"/>
</g>
<!-- 103209978926115 -->
<g id="node37" class="node">
<title>103209978926115</title>
<ellipse fill="none" stroke="#34262b" cx="228.85" cy="-530.08" rx="3.6" ry="3.6"/>
</g>
<!-- 043&#45;&gt;103209978926115 -->
<g id="edge64" class="edge">
<title>043&#45;&gt;103209978926115</title>
<path fill="none" stroke="#34262b" stroke-width="0.75" d="M244.3,-482.52C239.19,-498.25 232.64,-518.43 230.01,-526.5"/>
</g>
<!-- 76118056186574 -->
<g id="node75" class="node">
<title>76118056186574</title>
<ellipse fill="none" stroke="#34262b" cx="179.1" cy="-461.6" rx="3.6" ry="3.6"/>
<text text-anchor="middle" x="170.62" y="-466.85" font-family="Helvetica,sans-Serif" font-size="18.00" fill="#34262b">4</text>
</g>
<!-- 043&#45;&gt;76118056186574 -->
<g id="edge65" class="edge">
<title>043&#45;&gt;76118056186574</title>
<path fill="none" stroke="#34262b" stroke-width="0.75" d="M229.11,-461.6C212.73,-461.6 191.77,-461.6 183.12,-461.6"/>
</g>
<!-- 81063761713588 -->
<g id="node76" class="node">
<title>81063761713588</title>
<ellipse fill="none" stroke="#34262b" cx="228.85" cy="-393.12" rx="3.6" ry="3.6"/>
</g>
<!-- 043&#45;&gt;81063761713588 -->
<g id="edge66" class="edge">
<title>043&#45;&gt;81063761713588</title>
<path fill="none" stroke="#34262b" stroke-width="0.75" d="M244.3,-440.68C239.19,-424.95 232.64,-404.77 230.01,-396.7"/>
</g>
<!-- 96800835160244 -->
<g id="node78" class="node">
<title>96800835160244</title>
<ellipse fill="none" stroke="#34262b" cx="309.35" cy="-419.28" rx="3.6" ry="3.6"/>
</g>
<!-- 043&#45;&gt;96800835160244 -->
<g id="edge67" class="edge">
<title>043&#45;&gt;96800835160244</title>
<path fill="none" stroke="#34262b" stroke-width="0.75" d="M268.89,-448.67C282.28,-438.95 299.44,-426.48 306.31,-421.49"/>
</g>
<!-- 047 -->
<g id="node30" class="node">
<title>047</title>
<ellipse fill="#dbde92" stroke="#34262b" cx="600.1" cy="-138.6" rx="21.6" ry="21.6"/>
<text text-anchor="middle" x="600.1" y="-130.88" font-family="Helvetica,sans-Serif" font-size="18.00" fill="#34262b">047</text>
<text text-anchor="middle" x="568.75" y="-161.85" font-family="Helvetica,sans-Serif" font-size="18.00" fill="#34262b">18</text>
</g>
<!-- 047&#45;&gt;393035298143192 -->
<g id="edge23" class="edge">
<title>047&#45;&gt;393035298143192</title>
<path fill="none" stroke="#34262b" stroke-width="0.75" d="M620.93,-144.79C632.96,-145.73 647.76,-145.49 658.34,-144.04"/>
<polygon fill="#34262b" stroke="#34262b" stroke-width="0.75" points="658.91,-147.5 667.86,-141.83 657.33,-140.68 658.91,-147.5"/>
</g>
<!-- 047&#45;&gt;393035298143192 -->
<g id="edge24" class="edge">
<title>047&#45;&gt;393035298143192</title>
<path fill="none" stroke="#34262b" stroke-width="0.75" d="M620.93,-132.41C632.26,-131.52 646.06,-131.69 656.47,-132.92"/>
<polygon fill="#34262b" stroke="#34262b" stroke-width="0.75" points="655.5,-136.3 665.98,-134.74 656.81,-129.42 655.5,-136.3"/>
</g>
<!-- 052 -->
<g id="node31" class="node">
<title>052</title>
<ellipse fill="#dbde92" stroke="#34262b" cx="561.1" cy="-47.6" rx="21.6" ry="21.6"/>
<text text-anchor="middle" x="561.1" y="-39.88" font-family="Helvetica,sans-Serif" font-size="18.00" fill="#34262b">052</text>
<text text-anchor="middle" x="534.62" y="-70.85" font-family="Helvetica,sans-Serif" font-size="18.00" fill="#34262b">2</text>
</g>
<!-- 052&#45;&gt;240070160009025 -->
<g id="edge25" class="edge">
<title>052&#45;&gt;240070160009025</title>
<path fill="none" stroke="#34262b" stroke-width="0.75" d="M581.93,-53.79C593.96,-54.73 608.76,-54.49 619.34,-53.04"/>
<polygon fill="#34262b" stroke="#34262b" stroke-width="0.75" points="619.91,-56.5 628.86,-50.83 618.33,-49.68 619.91,-56.5"/>
</g>
<!-- 052&#45;&gt;240070160009025 -->
<g id="edge26" class="edge">
<title>052&#45;&gt;240070160009025</title>
<path fill="none" stroke="#34262b" stroke-width="0.75" d="M581.93,-41.41C593.26,-40.52 607.06,-40.69 617.47,-41.92"/>
<polygon fill="#34262b" stroke="#34262b" stroke-width="0.75" points="616.5,-45.3 626.98,-43.74 617.81,-38.42 616.5,-45.3"/>
</g>
<!-- 062 -->
<g id="node32" class="node">
<title>062</title>
<ellipse fill="#dbde92" stroke="#34262b" cx="314.1" cy="-112.6" rx="21.6" ry="21.6"/>
<text text-anchor="middle" x="314.1" y="-104.88" font-family="Helvetica,sans-Serif" font-size="18.00" fill="#34262b">062</text>
<text text-anchor="middle" x="287.62" y="-135.85" font-family="Helvetica,sans-Serif" font-size="18.00" fill="#34262b">9</text>
</g>
<!-- 062&#45;&gt;92857264956831 -->
<g id="edge27" class="edge">
<title>062&#45;&gt;92857264956831</title>
<path fill="none" stroke="#34262b" stroke-width="0.75" d="M336.09,-112.6C345.87,-112.6 357.28,-112.6 366.73,-112.6"/>
<polygon fill="#34262b" stroke="#34262b" stroke-width="0.75" points="366.59,-116.1 376.59,-112.6 366.59,-109.1 366.59,-116.1"/>
</g>
<!-- 078 -->
<g id="node33" class="node">
<title>078</title>
<ellipse fill="#dbde92" stroke="#34262b" cx="41.1" cy="-21.6" rx="21.6" ry="21.6"/>
<text text-anchor="middle" x="41.1" y="-13.88" font-family="Helvetica,sans-Serif" font-size="18.00" fill="#34262b">078</text>
<text text-anchor="middle" x="9.75" y="-44.85" font-family="Helvetica,sans-Serif" font-size="18.00" fill="#34262b">17</text>
</g>
<!-- 078&#45;&gt;33460752933766 -->
<g id="edge28" class="edge">
<title>078&#45;&gt;33460752933766</title>
<path fill="none" stroke="#34262b" stroke-width="0.75" d="M61.93,-27.79C73.96,-28.73 88.76,-28.49 99.34,-27.04"/>
<polygon fill="#34262b" stroke="#34262b" stroke-width="0.75" points="99.91,-30.5 108.86,-24.83 98.33,-23.68 99.91,-30.5"/>
</g>
<!-- 078&#45;&gt;33460752933766 -->
<g id="edge29" class="edge">
<title>078&#45;&gt;33460752933766</title>
<path fill="none" stroke="#34262b" stroke-width="0.75" d="M61.93,-15.41C73.26,-14.52 87.06,-14.69 97.47,-15.92"/>
<polygon fill="#34262b" stroke="#34262b" stroke-width="0.75" points="96.5,-19.3 106.98,-17.74 97.81,-12.42 96.5,-19.3"/>
</g>
<!-- 081 -->
<g id="node34" class="node">
<title>081</title>
<ellipse fill="#dbde92" stroke="#34262b" cx="223.1" cy="-34.6" rx="21.6" ry="21.6"/>
<text text-anchor="middle" x="223.1" y="-26.88" font-family="Helvetica,sans-Serif" font-size="18.00" fill="#34262b">081</text>
<text text-anchor="middle" x="196.62" y="-57.85" font-family="Helvetica,sans-Serif" font-size="18.00" fill="#34262b">7</text>
</g>
<!-- 081&#45;&gt;253352561534995 -->
<g id="edge30" class="edge">
<title>081&#45;&gt;253352561534995</title>
<path fill="none" stroke="#34262b" stroke-width="0.75" d="M243.93,-40.79C255.96,-41.73 270.76,-41.49 281.34,-40.04"/>
<polygon fill="#34262b" stroke="#34262b" stroke-width="0.75" points="281.91,-43.5 290.86,-37.83 280.33,-36.68 281.91,-43.5"/>
</g>
<!-- 081&#45;&gt;253352561534995 -->
<g id="edge31" class="edge">
<title>081&#45;&gt;253352561534995</title>
<path fill="none" stroke="#34262b" stroke-width="0.75" d="M243.93,-28.41C255.26,-27.52 269.06,-27.69 279.47,-28.92"/>
<polygon fill="#34262b" stroke="#34262b" stroke-width="0.75" points="278.5,-32.3 288.98,-30.74 279.81,-25.42 278.5,-32.3"/>
</g>
<!-- 082 -->
<g id="node35" class="node">
<title>082</title>
<ellipse fill="#dbde92" stroke="#34262b" cx="381.1" cy="-546.6" rx="21.6" ry="21.6"/>
<text text-anchor="middle" x="381.1" y="-538.88" font-family="Helvetica,sans-Serif" font-size="18.00" fill="#34262b">082</text>
<text text-anchor="middle" x="354.62" y="-569.85" font-family="Helvetica,sans-Serif" font-size="18.00" fill="#34262b">8</text>
</g>
<!-- 082&#45;&gt;156364735562291 -->
<g id="edge32" class="edge">
<title>082&#45;&gt;156364735562291</title>
<path fill="none" stroke="#34262b" stroke-width="0.75" d="M392.1,-565.65C396.31,-572.95 401.14,-581.3 405.42,-588.72"/>
<polygon fill="#34262b" stroke="#34262b" stroke-width="0.75" points="402.38,-590.46 410.41,-597.37 408.44,-586.96 402.38,-590.46"/>
</g>
<!-- 156189361184507 -->
<g id="node49" class="node">
<title>156189361184507</title>
<ellipse fill="none" stroke="#34262b" cx="309.1" cy="-546.6" rx="3.6" ry="3.6"/>
<text text-anchor="middle" x="300.62" y="-551.85" font-family="Helvetica,sans-Serif" font-size="18.00" fill="#34262b">2</text>
</g>
<!-- 082&#45;&gt;156189361184507 -->
<g id="edge68" class="edge">
<title>082&#45;&gt;156189361184507</title>
<path fill="none" stroke="#34262b" stroke-width="0.75" d="M359.11,-546.6C342.73,-546.6 321.77,-546.6 313.12,-546.6"/>
</g>
<!-- 156596690231090 -->
<g id="node50" class="node">
<title>156596690231090</title>
<ellipse fill="none" stroke="#34262b" cx="417.1" cy="-484.25" rx="3.6" ry="3.6"/>
</g>
<!-- 082&#45;&gt;156596690231090 -->
<g id="edge69" class="edge">
<title>082&#45;&gt;156596690231090</title>
<path fill="none" stroke="#34262b" stroke-width="0.75" d="M392.1,-527.55C400.37,-513.23 410.98,-494.85 415.22,-487.5"/>
</g>
<!-- 088 -->
<g id="node36" class="node">
<title>088</title>
<ellipse fill="#dbde92" stroke="#34262b" cx="466.1" cy="-186.6" rx="21.6" ry="21.6"/>
<text text-anchor="middle" x="466.1" y="-178.88" font-family="Helvetica,sans-Serif" font-size="18.00" fill="#34262b">088</text>
<text text-anchor="middle" x="434.75" y="-209.85" font-family="Helvetica,sans-Serif" font-size="18.00" fill="#34262b">16</text>
</g>
<!-- 088&#45;&gt;360051049043076 -->
<g id="edge33" class="edge">
<title>088&#45;&gt;360051049043076</title>
<path fill="none" stroke="#34262b" stroke-width="0.75" d="M482.97,-200.28C491.85,-204.81 502.77,-209.3 512.13,-212.26"/>
<polygon fill="#34262b" stroke="#34262b" stroke-width="0.75" points="511.2,-215.63 521.76,-214.78 512.98,-208.86 511.2,-215.63"/>
</g>
<!-- 088&#45;&gt;360051049043076 -->
<g id="edge34" class="edge">
<title>088&#45;&gt;360051049043076</title>
<path fill="none" stroke="#34262b" stroke-width="0.75" d="M487.71,-188.85C497.18,-191.93 508.08,-196.48 516.79,-201"/>
<polygon fill="#34262b" stroke="#34262b" stroke-width="0.75" points="514.99,-204.01 525.39,-206.03 518.52,-197.96 514.99,-204.01"/>
</g>
<!-- 359590657654446 -->
<g id="node61" class="node">
<title>359590657654446</title>
<ellipse fill="none" stroke="#34262b" cx="493.65" cy="-253.12" rx="3.6" ry="3.6"/>
</g>
<!-- 088&#45;&gt;359590657654446 -->
<g id="edge70" class="edge">
<title>088&#45;&gt;359590657654446</title>
<path fill="none" stroke="#34262b" stroke-width="0.75" d="M474.52,-206.92C480.85,-222.2 488.97,-241.8 492.22,-249.65"/>
</g>
<!-- 359642314904307 -->
<g id="node62" class="node">
<title>359642314904307</title>
<ellipse fill="none" stroke="#34262b" cx="438.55" cy="-253.12" rx="3.6" ry="3.6"/>
</g>
<!-- 088&#45;&gt;359642314904307 -->
<g id="edge71" class="edge">
<title>088&#45;&gt;359642314904307</title>
<path fill="none" stroke="#34262b" stroke-width="0.75" d="M457.68,-206.92C451.35,-222.2 443.23,-241.8 439.98,-249.65"/>
</g>
<!-- 359749191076977 -->
<g id="node63" class="node">
<title>359749191076977</title>
<ellipse fill="none" stroke="#34262b" cx="399.58" cy="-214.15" rx="3.6" ry="3.6"/>
</g>
<!-- 088&#45;&gt;359749191076977 -->
<g id="edge72" class="edge">
<title>088&#45;&gt;359749191076977</title>
<path fill="none" stroke="#34262b" stroke-width="0.75" d="M445.78,-195.02C430.5,-201.35 410.9,-209.47 403.05,-212.72"/>
</g>
<!-- 359813838431707 -->
<g id="node64" class="node">
<title>359813838431707</title>
<ellipse fill="none" stroke="#34262b" cx="399.58" cy="-159.05" rx="3.6" ry="3.6"/>
</g>
<!-- 088&#45;&gt;359813838431707 -->
<g id="edge73" class="edge">
<title>088&#45;&gt;359813838431707</title>
<path fill="none" stroke="#34262b" stroke-width="0.75" d="M445.78,-178.18C430.5,-171.85 410.9,-163.73 403.05,-160.48"/>
</g>
<!-- 359943398969027 -->
<g id="node65" class="node">
<title>359943398969027</title>
<ellipse fill="none" stroke="#34262b" cx="438.55" cy="-120.08" rx="3.6" ry="3.6"/>
<text text-anchor="middle" x="430.07" y="-125.33" font-family="Helvetica,sans-Serif" font-size="18.00" fill="#34262b">7</text>
</g>
<!-- 088&#45;&gt;359943398969027 -->
<g id="edge74" class="edge">
<title>088&#45;&gt;359943398969027</title>
<path fill="none" stroke="#34262b" stroke-width="0.75" d="M457.68,-166.28C451.35,-151 443.23,-131.4 439.98,-123.55"/>
</g>
<!-- 360186567754554 -->
<g id="node66" class="node">
<title>360186567754554</title>
<ellipse fill="none" stroke="#34262b" cx="493.65" cy="-120.08" rx="3.6" ry="3.6"/>
</g>
<!-- 088&#45;&gt;360186567754554 -->
<g id="edge75" class="edge">
<title>088&#45;&gt;360186567754554</title>
<path fill="none" stroke="#34262b" stroke-width="0.75" d="M474.52,-166.28C480.85,-151 488.97,-131.4 492.22,-123.55"/>
</g>
<!-- 360247014033845 -->
<g id="node67" class="node">
<title>360247014033845</title>
<ellipse fill="none" stroke="#34262b" cx="532.62" cy="-159.05" rx="3.6" ry="3.6"/>
</g>
<!-- 088&#45;&gt;360247014033845 -->
<g id="edge76" class="edge">
<title>088&#45;&gt;360247014033845</title>
<path fill="none" stroke="#34262b" stroke-width="0.75" d="M486.42,-178.18C501.7,-171.85 521.3,-163.73 529.15,-160.48"/>
</g>
</g>
</svg>
