<?xml version="1.0" encoding="UTF-8" standalone="no"?>
<!DOCTYPE svg PUBLIC "-//W3C//DTD SVG 1.1//EN"
 "http://www.w3.org/Graphics/SVG/1.1/DTD/svg11.dtd">
<!-- Generated by graphviz version 12.2.1 (20241206.2353)
 -->
<!-- Title: G Pages: 1 -->
<svg width="600pt" height="562pt"
 viewBox="0.00 0.00 600.46 561.95" xmlns="http://www.w3.org/2000/svg" xmlns:xlink="http://www.w3.org/1999/xlink">
<g id="graph0" class="graph" transform="scale(1 1) rotate(0) translate(4 557.95)">
<title>G</title>
<polygon fill="#fdfeff" stroke="none" points="-4,4 -4,-557.95 596.46,-557.95 596.46,4 -4,4"/>
<!-- 103209978926087 -->
<g id="node1" class="node">
<title>103209978926087</title>
<polygon fill="#fee548" stroke="#34262b" points="428.71,-380.47 420.03,-380.47 417.35,-388.72 414.67,-380.47 405.99,-380.47 413.01,-375.37 410.33,-367.12 417.35,-372.22 424.37,-367.12 421.69,-375.37 428.71,-380.47"/>
</g>
<!-- 1230160502988882 -->
<g id="node2" class="node">
<title>1230160502988882</title>
<polygon fill="#fee548" stroke="#34262b" points="466.46,-274.5 457.78,-274.5 455.1,-282.75 452.42,-274.5 443.74,-274.5 450.76,-269.4 448.08,-261.15 455.1,-266.25 462.12,-261.15 459.44,-269.4 466.46,-274.5"/>
</g>
<!-- 125856070581408 -->
<g id="node3" class="node">
<title>125856070581408</title>
<polygon fill="#fee548" stroke="#34262b" points="124.46,-402.15 115.78,-402.15 113.1,-410.4 110.42,-402.15 101.74,-402.15 108.76,-397.05 106.08,-388.8 113.1,-393.9 120.12,-388.8 117.44,-397.05 124.46,-402.15"/>
</g>
<!-- 142617064293148 -->
<g id="node4" class="node">
<title>142617064293148</title>
<polygon fill="#fee548" stroke="#34262b" points="184.46,-504.15 175.78,-504.15 173.1,-512.4 170.42,-504.15 161.74,-504.15 168.76,-499.05 166.08,-490.8 173.1,-495.9 180.12,-490.8 177.44,-499.05 184.46,-504.15"/>
</g>
<!-- 155147806452639 -->
<g id="node5" class="node">
<title>155147806452639</title>
<polygon fill="#fee548" stroke="#34262b" points="124.46,-204.15 115.78,-204.15 113.1,-212.4 110.42,-204.15 101.74,-204.15 108.76,-199.05 106.08,-190.8 113.1,-195.9 120.12,-190.8 117.44,-199.05 124.46,-204.15"/>
</g>
<!-- 156364735562291 -->
<g id="node6" class="node">
<title>156364735562291</title>
<polygon fill="#fee548" stroke="#34262b" points="490.46,-502.5 481.78,-502.5 479.1,-510.75 476.42,-502.5 467.74,-502.5 474.76,-497.4 472.08,-489.15 479.1,-494.25 486.12,-489.15 483.44,-497.4 490.46,-502.5"/>
</g>
<!-- 183542481619562 -->
<g id="node7" class="node">
<title>183542481619562</title>
<polygon fill="#fee548" stroke="#34262b" points="124.46,-60.15 115.78,-60.15 113.1,-68.4 110.42,-60.15 101.74,-60.15 108.76,-55.05 106.08,-46.8 113.1,-51.9 120.12,-46.8 117.44,-55.05 124.46,-60.15"/>
</g>
<!-- 227239899382463 -->
<g id="node8" class="node">
<title>227239899382463</title>
<polygon fill="#fee548" stroke="#34262b" points="592.46,-216.15 583.78,-216.15 581.1,-224.4 578.42,-216.15 569.74,-216.15 576.76,-211.05 574.08,-202.8 581.1,-207.9 588.12,-202.8 585.44,-211.05 592.46,-216.15"/>
</g>
<!-- 240070160009025 -->
<g id="node9" class="node">
<title>240070160009025</title>
<polygon fill="#fee548" stroke="#34262b" points="448.46,-516.15 439.78,-516.15 437.1,-524.4 434.42,-516.15 425.74,-516.15 432.76,-511.05 430.08,-502.8 437.1,-507.9 444.12,-502.8 441.44,-511.05 448.46,-516.15"/>
</g>
<!-- 248960157567190 -->
<g id="node10" class="node">
<title>248960157567190</title>
<polygon fill="#fee548" stroke="#34262b" points="580.46,-24.15 571.78,-24.15 569.1,-32.4 566.42,-24.15 557.74,-24.15 564.76,-19.05 562.08,-10.8 569.1,-15.9 576.12,-10.8 573.44,-19.05 580.46,-24.15"/>
</g>
<!-- 253352561534995 -->
<g id="node11" class="node">
<title>253352561534995</title>
<polygon fill="#fee548" stroke="#34262b" points="412.46,-156.15 403.78,-156.15 401.1,-164.4 398.42,-156.15 389.74,-156.15 396.76,-151.05 394.08,-142.8 401.1,-147.9 408.12,-142.8 405.44,-151.05 412.46,-156.15"/>
</g>
<!-- 253600606633879 -->
<g id="node12" class="node">
<title>253600606633879</title>
<polygon fill="#fee548" stroke="#34262b" points="302.81,-462.15 294.13,-462.15 291.45,-470.4 288.77,-462.15 280.1,-462.15 287.12,-457.05 284.44,-448.8 291.45,-453.9 298.47,-448.8 295.79,-457.05 302.81,-462.15"/>
</g>
<!-- 298774613720463 -->
<g id="node13" class="node">
<title>298774613720463</title>
<polygon fill="#fee548" stroke="#34262b" points="496.46,-84.15 487.78,-84.15 485.1,-92.4 482.42,-84.15 473.74,-84.15 480.76,-79.05 478.08,-70.8 485.1,-75.9 492.12,-70.8 489.44,-79.05 496.46,-84.15"/>
</g>
<!-- 360051049043076 -->
<g id="node14" class="node">
<title>360051049043076</title>
<polygon fill="#fee548" stroke="#34262b" points="310.98,-267.7 302.3,-267.7 299.62,-275.95 296.94,-267.7 288.26,-267.7 295.28,-262.6 292.6,-254.35 299.62,-259.45 306.64,-254.35 303.96,-262.6 310.98,-267.7"/>
</g>
<!-- 5591408610389 -->
<g id="node15" class="node">
<title>5591408610389</title>
<polygon fill="#fee548" stroke="#34262b" points="166.46,-178.5 157.78,-178.5 155.1,-186.75 152.42,-178.5 143.74,-178.5 150.76,-173.4 148.08,-165.15 155.1,-170.25 162.12,-165.15 159.44,-173.4 166.46,-178.5"/>
</g>
<!-- 92857264956831 -->
<g id="node16" class="node">
<title>92857264956831</title>
<polygon fill="#fee548" stroke="#34262b" points="304.46,-84.15 295.78,-84.15 293.1,-92.4 290.42,-84.15 281.74,-84.15 288.76,-79.05 286.08,-70.8 293.1,-75.9 300.12,-70.8 297.44,-79.05 304.46,-84.15"/>
</g>
<!-- 002 -->
<g id="node17" class="node">
<title>002</title>
<ellipse fill="#dbde92" stroke="#34262b" cx="113.1" cy="-327.6" rx="21.6" ry="21.6"/>
<text text-anchor="middle" x="113.1" y="-319.87" font-family="Helvetica,sans-Serif" font-size="18.00" fill="#34262b">002</text>
<text text-anchor="middle" x="86.63" y="-350.85" font-family="Helvetica,sans-Serif" font-size="18.00" fill="#34262b">1</text>
</g>
<!-- 002&#45;&gt;125856070581408 -->
<g id="edge1" class="edge">
<title>002&#45;&gt;125856070581408</title>
<path fill="none" stroke="#34262b" stroke-width="0.75" d="M96.59,-341.82C90.87,-356.3 91.71,-378.29 99.12,-390.54"/>
<polygon fill="#34262b" stroke="#34262b" stroke-width="0.75" points="96.49,-392.86 106.07,-397.37 101.39,-387.87 96.49,-392.86"/>
</g>
<!-- 002&#45;&gt;125856070581408 -->
<g id="edge2" class="edge">
<title>002&#45;&gt;125856070581408</title>
<path fill="none" stroke="#34262b" stroke-width="0.75" d="M129.61,-341.82C135.33,-356.3 134.49,-378.29 127.08,-390.54"/>
<polygon fill="#34262b" stroke="#34262b" stroke-width="0.75" points="124.81,-387.87 120.13,-397.37 129.71,-392.86 124.81,-387.87"/>
</g>
<!-- 002&#45;&gt;125856070581408 -->
<g id="edge3" class="edge">
<title>002&#45;&gt;125856070581408</title>
<path fill="none" stroke="#34262b" stroke-width="0.75" d="M119.29,-348.43C120.04,-358 120.04,-369.34 119.28,-378.9"/>
<polygon fill="#34262b" stroke="#34262b" stroke-width="0.75" points="115.82,-378.32 118.05,-388.67 122.77,-379.19 115.82,-378.32"/>
</g>
<!-- 002&#45;&gt;125856070581408 -->
<g id="edge4" class="edge">
<title>002&#45;&gt;125856070581408</title>
<path fill="none" stroke="#34262b" stroke-width="0.75" d="M106.91,-348.43C106.16,-358 106.16,-369.34 106.92,-378.9"/>
<polygon fill="#34262b" stroke="#34262b" stroke-width="0.75" points="103.43,-379.19 108.15,-388.67 110.38,-378.32 103.43,-379.19"/>
</g>
<!-- 455354753305299 -->
<g id="node51" class="node">
<title>455354753305299</title>
<ellipse fill="none" stroke="#34262b" cx="113.1" cy="-255.6" rx="3.6" ry="3.6"/>
<text text-anchor="middle" x="104.62" y="-260.85" font-family="Helvetica,sans-Serif" font-size="18.00" fill="#34262b">1</text>
</g>
<!-- 002&#45;&gt;455354753305299 -->
<g id="edge27" class="edge">
<title>002&#45;&gt;455354753305299</title>
<path fill="none" stroke="#34262b" stroke-width="0.75" d="M113.1,-305.61C113.1,-289.23 113.1,-268.27 113.1,-259.62"/>
</g>
<!-- 009 -->
<g id="node18" class="node">
<title>009</title>
<ellipse fill="#dbde92" stroke="#34262b" cx="229.1" cy="-423.6" rx="21.6" ry="21.6"/>
<text text-anchor="middle" x="229.1" y="-415.87" font-family="Helvetica,sans-Serif" font-size="18.00" fill="#34262b">009</text>
<text text-anchor="middle" x="197.75" y="-446.85" font-family="Helvetica,sans-Serif" font-size="18.00" fill="#34262b">14</text>
</g>
<!-- 009&#45;&gt;253600606633879 -->
<g id="edge5" class="edge">
<title>009&#45;&gt;253600606633879</title>
<path fill="none" stroke="#34262b" stroke-width="0.75" d="M244.04,-439.37C252.73,-445.34 263.71,-451.58 272.93,-455.76"/>
<polygon fill="#34262b" stroke="#34262b" stroke-width="0.75" points="271.41,-458.92 281.99,-459.26 273.93,-452.39 271.41,-458.92"/>
</g>
<!-- 009&#45;&gt;253600606633879 -->
<g id="edge6" class="edge">
<title>009&#45;&gt;253600606633879</title>
<path fill="none" stroke="#34262b" stroke-width="0.75" d="M250.23,-428.66C258.58,-432.64 268,-438.05 275.74,-443.3"/>
<polygon fill="#34262b" stroke="#34262b" stroke-width="0.75" points="273.42,-445.94 283.54,-449.08 277.59,-440.32 273.42,-445.94"/>
</g>
<!-- 253109520226675 -->
<g id="node39" class="node">
<title>253109520226675</title>
<ellipse fill="none" stroke="#34262b" cx="229.1" cy="-495.6" rx="3.6" ry="3.6"/>
</g>
<!-- 009&#45;&gt;253109520226675 -->
<g id="edge28" class="edge">
<title>009&#45;&gt;253109520226675</title>
<path fill="none" stroke="#34262b" stroke-width="0.75" d="M229.1,-445.59C229.1,-461.97 229.1,-482.93 229.1,-491.58"/>
</g>
<!-- 253352804744747 -->
<g id="node40" class="node">
<title>253352804744747</title>
<ellipse fill="none" stroke="#34262b" cx="166.75" cy="-459.6" rx="3.6" ry="3.6"/>
<text text-anchor="middle" x="158.27" y="-464.85" font-family="Helvetica,sans-Serif" font-size="18.00" fill="#34262b">5</text>
</g>
<!-- 009&#45;&gt;253352804744747 -->
<g id="edge29" class="edge">
<title>009&#45;&gt;253352804744747</title>
<path fill="none" stroke="#34262b" stroke-width="0.75" d="M210.05,-434.6C195.73,-442.87 177.35,-453.48 170,-457.72"/>
</g>
<!-- 253843891117135 -->
<g id="node41" class="node">
<title>253843891117135</title>
<ellipse fill="none" stroke="#34262b" cx="166.75" cy="-387.6" rx="3.6" ry="3.6"/>
</g>
<!-- 009&#45;&gt;253843891117135 -->
<g id="edge30" class="edge">
<title>009&#45;&gt;253843891117135</title>
<path fill="none" stroke="#34262b" stroke-width="0.75" d="M210.05,-412.6C195.73,-404.33 177.35,-393.72 170,-389.48"/>
</g>
<!-- 253974688626775 -->
<g id="node42" class="node">
<title>253974688626775</title>
<ellipse fill="none" stroke="#34262b" cx="229.1" cy="-351.6" rx="3.6" ry="3.6"/>
</g>
<!-- 009&#45;&gt;253974688626775 -->
<g id="edge31" class="edge">
<title>009&#45;&gt;253974688626775</title>
<path fill="none" stroke="#34262b" stroke-width="0.75" d="M229.1,-401.61C229.1,-385.23 229.1,-364.27 229.1,-355.62"/>
</g>
<!-- 254220120595727 -->
<g id="node43" class="node">
<title>254220120595727</title>
<ellipse fill="none" stroke="#34262b" cx="291.45" cy="-387.6" rx="3.6" ry="3.6"/>
</g>
<!-- 009&#45;&gt;254220120595727 -->
<g id="edge32" class="edge">
<title>009&#45;&gt;254220120595727</title>
<path fill="none" stroke="#34262b" stroke-width="0.75" d="M248.15,-412.6C262.47,-404.33 280.85,-393.72 288.2,-389.48"/>
</g>
<!-- 010 -->
<g id="node19" class="node">
<title>010</title>
<ellipse fill="#dbde92" stroke="#34262b" cx="41.1" cy="-201.6" rx="21.6" ry="21.6"/>
<text text-anchor="middle" x="41.1" y="-193.88" font-family="Helvetica,sans-Serif" font-size="18.00" fill="#34262b">010</text>
<text text-anchor="middle" x="14.62" y="-224.85" font-family="Helvetica,sans-Serif" font-size="18.00" fill="#34262b">5</text>
</g>
<!-- 010&#45;&gt;155147806452639 -->
<g id="edge7" class="edge">
<title>010&#45;&gt;155147806452639</title>
<path fill="none" stroke="#34262b" stroke-width="0.75" d="M61.93,-207.79C73.96,-208.73 88.76,-208.49 99.34,-207.04"/>
<polygon fill="#34262b" stroke="#34262b" stroke-width="0.75" points="99.91,-210.5 108.86,-204.83 98.33,-203.68 99.91,-210.5"/>
</g>
<!-- 010&#45;&gt;155147806452639 -->
<g id="edge8" class="edge">
<title>010&#45;&gt;155147806452639</title>
<path fill="none" stroke="#34262b" stroke-width="0.75" d="M61.93,-195.41C73.26,-194.52 87.06,-194.69 97.47,-195.92"/>
<polygon fill="#34262b" stroke="#34262b" stroke-width="0.75" points="96.5,-199.3 106.98,-197.74 97.81,-192.42 96.5,-199.3"/>
</g>
<!-- 019 -->
<g id="node20" class="node">
<title>019</title>
<ellipse fill="#dbde92" stroke="#34262b" cx="101.1" cy="-501.6" rx="21.6" ry="21.6"/>
<text text-anchor="middle" x="101.1" y="-493.88" font-family="Helvetica,sans-Serif" font-size="18.00" fill="#34262b">019</text>
<text text-anchor="middle" x="69.75" y="-524.85" font-family="Helvetica,sans-Serif" font-size="18.00" fill="#34262b">15</text>
</g>
<!-- 019&#45;&gt;142617064293148 -->
<g id="edge9" class="edge">
<title>019&#45;&gt;142617064293148</title>
<path fill="none" stroke="#34262b" stroke-width="0.75" d="M123.09,-501.6C132.87,-501.6 144.28,-501.6 153.73,-501.6"/>
<polygon fill="#34262b" stroke="#34262b" stroke-width="0.75" points="153.59,-505.1 163.59,-501.6 153.59,-498.1 153.59,-505.1"/>
</g>
<!-- 023 -->
<g id="node21" class="node">
<title>023</title>
<ellipse fill="#dbde92" stroke="#34262b" cx="119.1" cy="-113.6" rx="21.6" ry="21.6"/>
<text text-anchor="middle" x="119.1" y="-105.88" font-family="Helvetica,sans-Serif" font-size="18.00" fill="#34262b">023</text>
<text text-anchor="middle" x="88.5" y="-136.85" font-family="Helvetica,sans-Serif" font-size="18.00" fill="#34262b">11</text>
</g>
<!-- 023&#45;&gt;5591408610389 -->
<g id="edge10" class="edge">
<title>023&#45;&gt;5591408610389</title>
<path fill="none" stroke="#34262b" stroke-width="0.75" d="M130.1,-132.65C134.31,-139.95 139.14,-148.3 143.42,-155.72"/>
<polygon fill="#34262b" stroke="#34262b" stroke-width="0.75" points="140.38,-157.46 148.41,-164.37 146.44,-153.96 140.38,-157.46"/>
</g>
<!-- 14110344140782 -->
<g id="node36" class="node">
<title>14110344140782</title>
<ellipse fill="none" stroke="#34262b" cx="47.1" cy="-113.6" rx="3.6" ry="3.6"/>
<text text-anchor="middle" x="38.63" y="-118.85" font-family="Helvetica,sans-Serif" font-size="18.00" fill="#34262b">2</text>
</g>
<!-- 023&#45;&gt;14110344140782 -->
<g id="edge33" class="edge">
<title>023&#45;&gt;14110344140782</title>
<path fill="none" stroke="#34262b" stroke-width="0.75" d="M97.11,-113.6C80.73,-113.6 59.77,-113.6 51.12,-113.6"/>
</g>
<!-- 62621691563930 -->
<g id="node52" class="node">
<title>62621691563930</title>
<ellipse fill="none" stroke="#34262b" cx="155.1" cy="-51.25" rx="3.6" ry="3.6"/>
</g>
<!-- 023&#45;&gt;62621691563930 -->
<g id="edge34" class="edge">
<title>023&#45;&gt;62621691563930</title>
<path fill="none" stroke="#34262b" stroke-width="0.75" d="M130.1,-94.55C138.37,-80.23 148.98,-61.85 153.22,-54.5"/>
</g>
<!-- 024 -->
<g id="node22" class="node">
<title>024</title>
<ellipse fill="#dbde92" stroke="#34262b" cx="497.1" cy="-21.6" rx="21.6" ry="21.6"/>
<text text-anchor="middle" x="497.1" y="-13.87" font-family="Helvetica,sans-Serif" font-size="18.00" fill="#34262b">024</text>
<text text-anchor="middle" x="465.75" y="-44.85" font-family="Helvetica,sans-Serif" font-size="18.00" fill="#34262b">12</text>
</g>
<!-- 024&#45;&gt;248960157567190 -->
<g id="edge11" class="edge">
<title>024&#45;&gt;248960157567190</title>
<path fill="none" stroke="#34262b" stroke-width="0.75" d="M519.09,-21.6C528.87,-21.6 540.28,-21.6 549.73,-21.6"/>
<polygon fill="#34262b" stroke="#34262b" stroke-width="0.75" points="549.59,-25.1 559.59,-21.6 549.59,-18.1 549.59,-25.1"/>
</g>
<!-- 032 -->
<g id="node23" class="node">
<title>032</title>
<ellipse fill="#dbde92" stroke="#34262b" cx="419.1" cy="-209.6" rx="21.6" ry="21.6"/>
<text text-anchor="middle" x="419.1" y="-201.88" font-family="Helvetica,sans-Serif" font-size="18.00" fill="#34262b">032</text>
<text text-anchor="middle" x="392.62" y="-232.85" font-family="Helvetica,sans-Serif" font-size="18.00" fill="#34262b">6</text>
</g>
<!-- 032&#45;&gt;1230160502988882 -->
<g id="edge12" class="edge">
<title>032&#45;&gt;1230160502988882</title>
<path fill="none" stroke="#34262b" stroke-width="0.75" d="M430.1,-228.65C434.31,-235.95 439.14,-244.3 443.42,-251.72"/>
<polygon fill="#34262b" stroke="#34262b" stroke-width="0.75" points="440.38,-253.46 448.41,-260.37 446.44,-249.96 440.38,-253.46"/>
</g>
<!-- 1230160502988894 -->
<g id="node34" class="node">
<title>1230160502988894</title>
<ellipse fill="none" stroke="#34262b" cx="347.1" cy="-209.6" rx="3.6" ry="3.6"/>
</g>
<!-- 032&#45;&gt;1230160502988894 -->
<g id="edge35" class="edge">
<title>032&#45;&gt;1230160502988894</title>
<path fill="none" stroke="#34262b" stroke-width="0.75" d="M397.11,-209.6C380.73,-209.6 359.77,-209.6 351.12,-209.6"/>
</g>
<!-- 1230160502992190 -->
<g id="node35" class="node">
<title>1230160502992190</title>
<ellipse fill="none" stroke="#34262b" cx="455.1" cy="-147.25" rx="3.6" ry="3.6"/>
<text text-anchor="middle" x="446.62" y="-152.5" font-family="Helvetica,sans-Serif" font-size="18.00" fill="#34262b">2</text>
</g>
<!-- 032&#45;&gt;1230160502992190 -->
<g id="edge36" class="edge">
<title>032&#45;&gt;1230160502992190</title>
<path fill="none" stroke="#34262b" stroke-width="0.75" d="M430.1,-190.55C438.37,-176.23 448.98,-157.85 453.22,-150.5"/>
</g>
<!-- 033 -->
<g id="node24" class="node">
<title>033</title>
<ellipse fill="#dbde92" stroke="#34262b" cx="413.1" cy="-81.6" rx="21.6" ry="21.6"/>
<text text-anchor="middle" x="413.1" y="-73.88" font-family="Helvetica,sans-Serif" font-size="18.00" fill="#34262b">033</text>
<text text-anchor="middle" x="386.62" y="-104.85" font-family="Helvetica,sans-Serif" font-size="18.00" fill="#34262b">7</text>
</g>
<!-- 033&#45;&gt;298774613720463 -->
<g id="edge13" class="edge">
<title>033&#45;&gt;298774613720463</title>
<path fill="none" stroke="#34262b" stroke-width="0.75" d="M435.09,-81.6C444.87,-81.6 456.28,-81.6 465.73,-81.6"/>
<polygon fill="#34262b" stroke="#34262b" stroke-width="0.75" points="465.59,-85.1 475.59,-81.6 465.59,-78.1 465.59,-85.1"/>
</g>
<!-- 037 -->
<g id="node25" class="node">
<title>037</title>
<ellipse fill="#dbde92" stroke="#34262b" cx="41.1" cy="-57.6" rx="21.6" ry="21.6"/>
<text text-anchor="middle" x="41.1" y="-49.87" font-family="Helvetica,sans-Serif" font-size="18.00" fill="#34262b">037</text>
<text text-anchor="middle" x="9.75" y="-80.85" font-family="Helvetica,sans-Serif" font-size="18.00" fill="#34262b">13</text>
</g>
<!-- 037&#45;&gt;183542481619562 -->
<g id="edge14" class="edge">
<title>037&#45;&gt;183542481619562</title>
<path fill="none" stroke="#34262b" stroke-width="0.75" d="M63.09,-57.6C72.87,-57.6 84.28,-57.6 93.73,-57.6"/>
<polygon fill="#34262b" stroke="#34262b" stroke-width="0.75" points="93.59,-61.1 103.59,-57.6 93.59,-54.1 93.59,-61.1"/>
</g>
<!-- 039 -->
<g id="node26" class="node">
<title>039</title>
<ellipse fill="#dbde92" stroke="#34262b" cx="509.1" cy="-213.6" rx="21.6" ry="21.6"/>
<text text-anchor="middle" x="509.1" y="-205.88" font-family="Helvetica,sans-Serif" font-size="18.00" fill="#34262b">039</text>
<text text-anchor="middle" x="477.75" y="-236.85" font-family="Helvetica,sans-Serif" font-size="18.00" fill="#34262b">16</text>
</g>
<!-- 039&#45;&gt;227239899382463 -->
<g id="edge15" class="edge">
<title>039&#45;&gt;227239899382463</title>
<path fill="none" stroke="#34262b" stroke-width="0.75" d="M531.09,-213.6C540.87,-213.6 552.28,-213.6 561.73,-213.6"/>
<polygon fill="#34262b" stroke="#34262b" stroke-width="0.75" points="561.59,-217.1 571.59,-213.6 561.59,-210.1 561.59,-217.1"/>
</g>
<!-- 043 -->
<g id="node27" class="node">
<title>043</title>
<ellipse fill="#dbde92" stroke="#34262b" cx="359.1" cy="-335.6" rx="21.6" ry="21.6"/>
<text text-anchor="middle" x="359.1" y="-327.88" font-family="Helvetica,sans-Serif" font-size="18.00" fill="#34262b">043</text>
<text text-anchor="middle" x="332.62" y="-358.85" font-family="Helvetica,sans-Serif" font-size="18.00" fill="#34262b">3</text>
</g>
<!-- 043&#45;&gt;103209978926087 -->
<g id="edge16" class="edge">
<title>043&#45;&gt;103209978926087</title>
<path fill="none" stroke="#34262b" stroke-width="0.75" d="M367.06,-356.19C374.5,-364.08 385.29,-371.94 395.11,-376.62"/>
<polygon fill="#34262b" stroke="#34262b" stroke-width="0.75" points="393.89,-379.9 404.48,-379.99 396.26,-373.31 393.89,-379.9"/>
</g>
<!-- 043&#45;&gt;103209978926087 -->
<g id="edge17" class="edge">
<title>043&#45;&gt;103209978926087</title>
<path fill="none" stroke="#34262b" stroke-width="0.75" d="M381.14,-336.81C392.74,-342.29 405.74,-352.25 412.98,-361.49"/>
<polygon fill="#34262b" stroke="#34262b" stroke-width="0.75" points="409.78,-362.94 417.69,-370 415.91,-359.55 409.78,-362.94"/>
</g>
<!-- 043&#45;&gt;103209978926087 -->
<g id="edge18" class="edge">
<title>043&#45;&gt;103209978926087</title>
<path fill="none" stroke="#34262b" stroke-width="0.75" d="M376.89,-348.53C385.36,-354.68 395.34,-361.93 403.27,-367.69"/>
<polygon fill="#34262b" stroke="#34262b" stroke-width="0.75" points="401.15,-370.48 411.3,-373.52 405.26,-364.81 401.15,-370.48"/>
</g>
<!-- 103209978926115 -->
<g id="node33" class="node">
<title>103209978926115</title>
<ellipse fill="none" stroke="#34262b" cx="336.85" cy="-404.08" rx="3.6" ry="3.6"/>
</g>
<!-- 043&#45;&gt;103209978926115 -->
<g id="edge37" class="edge">
<title>043&#45;&gt;103209978926115</title>
<path fill="none" stroke="#34262b" stroke-width="0.75" d="M352.3,-356.52C347.19,-372.25 340.64,-392.43 338.01,-400.5"/>
</g>
<!-- 76118056186574 -->
<g id="node53" class="node">
<title>76118056186574</title>
<ellipse fill="none" stroke="#34262b" cx="287.1" cy="-335.6" rx="3.6" ry="3.6"/>
<text text-anchor="middle" x="278.62" y="-340.85" font-family="Helvetica,sans-Serif" font-size="18.00" fill="#34262b">4</text>
</g>
<!-- 043&#45;&gt;76118056186574 -->
<g id="edge38" class="edge">
<title>043&#45;&gt;76118056186574</title>
<path fill="none" stroke="#34262b" stroke-width="0.75" d="M337.11,-335.6C320.73,-335.6 299.77,-335.6 291.12,-335.6"/>
</g>
<!-- 81063761713588 -->
<g id="node54" class="node">
<title>81063761713588</title>
<ellipse fill="none" stroke="#34262b" cx="336.85" cy="-267.12" rx="3.6" ry="3.6"/>
</g>
<!-- 043&#45;&gt;81063761713588 -->
<g id="edge39" class="edge">
<title>043&#45;&gt;81063761713588</title>
<path fill="none" stroke="#34262b" stroke-width="0.75" d="M352.3,-314.68C347.19,-298.95 340.64,-278.77 338.01,-270.7"/>
</g>
<!-- 96800835160244 -->
<g id="node55" class="node">
<title>96800835160244</title>
<ellipse fill="none" stroke="#34262b" cx="417.35" cy="-293.28" rx="3.6" ry="3.6"/>
</g>
<!-- 043&#45;&gt;96800835160244 -->
<g id="edge40" class="edge">
<title>043&#45;&gt;96800835160244</title>
<path fill="none" stroke="#34262b" stroke-width="0.75" d="M376.89,-322.67C390.28,-312.95 407.44,-300.48 414.31,-295.49"/>
</g>
<!-- 052 -->
<g id="node28" class="node">
<title>052</title>
<ellipse fill="#dbde92" stroke="#34262b" cx="365.1" cy="-513.6" rx="21.6" ry="21.6"/>
<text text-anchor="middle" x="365.1" y="-505.87" font-family="Helvetica,sans-Serif" font-size="18.00" fill="#34262b">052</text>
<text text-anchor="middle" x="338.62" y="-536.85" font-family="Helvetica,sans-Serif" font-size="18.00" fill="#34262b">2</text>
</g>
<!-- 052&#45;&gt;240070160009025 -->
<g id="edge19" class="edge">
<title>052&#45;&gt;240070160009025</title>
<path fill="none" stroke="#34262b" stroke-width="0.75" d="M385.93,-519.79C397.96,-520.73 412.76,-520.49 423.34,-519.04"/>
<polygon fill="#34262b" stroke="#34262b" stroke-width="0.75" points="423.91,-522.5 432.86,-516.83 422.33,-515.68 423.91,-522.5"/>
</g>
<!-- 052&#45;&gt;240070160009025 -->
<g id="edge20" class="edge">
<title>052&#45;&gt;240070160009025</title>
<path fill="none" stroke="#34262b" stroke-width="0.75" d="M385.93,-507.41C397.26,-506.52 411.06,-506.69 421.47,-507.92"/>
<polygon fill="#34262b" stroke="#34262b" stroke-width="0.75" points="420.5,-511.3 430.98,-509.74 421.81,-504.42 420.5,-511.3"/>
</g>
<!-- 062 -->
<g id="node29" class="node">
<title>062</title>
<ellipse fill="#dbde92" stroke="#34262b" cx="221.1" cy="-81.6" rx="21.6" ry="21.6"/>
<text text-anchor="middle" x="221.1" y="-73.88" font-family="Helvetica,sans-Serif" font-size="18.00" fill="#34262b">062</text>
<text text-anchor="middle" x="189.75" y="-104.85" font-family="Helvetica,sans-Serif" font-size="18.00" fill="#34262b">10</text>
</g>
<!-- 062&#45;&gt;92857264956831 -->
<g id="edge21" class="edge">
<title>062&#45;&gt;92857264956831</title>
<path fill="none" stroke="#34262b" stroke-width="0.75" d="M243.09,-81.6C252.87,-81.6 264.28,-81.6 273.73,-81.6"/>
<polygon fill="#34262b" stroke="#34262b" stroke-width="0.75" points="273.59,-85.1 283.59,-81.6 273.59,-78.1 273.59,-85.1"/>
</g>
<!-- 081 -->
<g id="node30" class="node">
<title>081</title>
<ellipse fill="#dbde92" stroke="#34262b" cx="329.1" cy="-153.6" rx="21.6" ry="21.6"/>
<text text-anchor="middle" x="329.1" y="-145.88" font-family="Helvetica,sans-Serif" font-size="18.00" fill="#34262b">081</text>
<text text-anchor="middle" x="302.62" y="-176.85" font-family="Helvetica,sans-Serif" font-size="18.00" fill="#34262b">8</text>
</g>
<!-- 081&#45;&gt;253352561534995 -->
<g id="edge22" class="edge">
<title>081&#45;&gt;253352561534995</title>
<path fill="none" stroke="#34262b" stroke-width="0.75" d="M349.93,-159.79C361.96,-160.73 376.76,-160.49 387.34,-159.04"/>
<polygon fill="#34262b" stroke="#34262b" stroke-width="0.75" points="387.91,-162.5 396.86,-156.83 386.33,-155.68 387.91,-162.5"/>
</g>
<!-- 081&#45;&gt;253352561534995 -->
<g id="edge23" class="edge">
<title>081&#45;&gt;253352561534995</title>
<path fill="none" stroke="#34262b" stroke-width="0.75" d="M349.93,-147.41C361.26,-146.52 375.06,-146.69 385.47,-147.92"/>
<polygon fill="#34262b" stroke="#34262b" stroke-width="0.75" points="384.5,-151.3 394.98,-149.74 385.81,-144.42 384.5,-151.3"/>
</g>
<!-- 082 -->
<g id="node31" class="node">
<title>082</title>
<ellipse fill="#dbde92" stroke="#34262b" cx="443.1" cy="-437.6" rx="21.6" ry="21.6"/>
<text text-anchor="middle" x="443.1" y="-429.87" font-family="Helvetica,sans-Serif" font-size="18.00" fill="#34262b">082</text>
<text text-anchor="middle" x="416.62" y="-460.85" font-family="Helvetica,sans-Serif" font-size="18.00" fill="#34262b">9</text>
</g>
<!-- 082&#45;&gt;156364735562291 -->
<g id="edge24" class="edge">
<title>082&#45;&gt;156364735562291</title>
<path fill="none" stroke="#34262b" stroke-width="0.75" d="M454.1,-456.65C458.31,-463.95 463.14,-472.3 467.42,-479.72"/>
<polygon fill="#34262b" stroke="#34262b" stroke-width="0.75" points="464.38,-481.46 472.41,-488.37 470.44,-477.96 464.38,-481.46"/>
</g>
<!-- 156189361184507 -->
<g id="node37" class="node">
<title>156189361184507</title>
<ellipse fill="none" stroke="#34262b" cx="371.1" cy="-437.6" rx="3.6" ry="3.6"/>
<text text-anchor="middle" x="362.62" y="-442.85" font-family="Helvetica,sans-Serif" font-size="18.00" fill="#34262b">2</text>
</g>
<!-- 082&#45;&gt;156189361184507 -->
<g id="edge41" class="edge">
<title>082&#45;&gt;156189361184507</title>
<path fill="none" stroke="#34262b" stroke-width="0.75" d="M421.11,-437.6C404.73,-437.6 383.77,-437.6 375.12,-437.6"/>
</g>
<!-- 156596690231090 -->
<g id="node38" class="node">
<title>156596690231090</title>
<ellipse fill="none" stroke="#34262b" cx="479.1" cy="-375.25" rx="3.6" ry="3.6"/>
</g>
<!-- 082&#45;&gt;156596690231090 -->
<g id="edge42" class="edge">
<title>082&#45;&gt;156596690231090</title>
<path fill="none" stroke="#34262b" stroke-width="0.75" d="M454.1,-418.55C462.37,-404.23 472.98,-385.85 477.22,-378.5"/>
</g>
<!-- 088 -->
<g id="node32" class="node">
<title>088</title>
<ellipse fill="#dbde92" stroke="#34262b" cx="233.1" cy="-237.6" rx="21.6" ry="21.6"/>
<text text-anchor="middle" x="233.1" y="-229.88" font-family="Helvetica,sans-Serif" font-size="18.00" fill="#34262b">088</text>
<text text-anchor="middle" x="206.62" y="-260.85" font-family="Helvetica,sans-Serif" font-size="18.00" fill="#34262b">4</text>
</g>
<!-- 088&#45;&gt;360051049043076 -->
<g id="edge25" class="edge">
<title>088&#45;&gt;360051049043076</title>
<path fill="none" stroke="#34262b" stroke-width="0.75" d="M249.97,-251.28C258.85,-255.81 269.77,-260.3 279.13,-263.26"/>
<polygon fill="#34262b" stroke="#34262b" stroke-width="0.75" points="278.2,-266.63 288.76,-265.78 279.98,-259.86 278.2,-266.63"/>
</g>
<!-- 088&#45;&gt;360051049043076 -->
<g id="edge26" class="edge">
<title>088&#45;&gt;360051049043076</title>
<path fill="none" stroke="#34262b" stroke-width="0.75" d="M254.71,-239.85C264.18,-242.93 275.08,-247.48 283.79,-252"/>
<polygon fill="#34262b" stroke="#34262b" stroke-width="0.75" points="281.99,-255.01 292.39,-257.03 285.52,-248.96 281.99,-255.01"/>
</g>
<!-- 359590657654446 -->
<g id="node44" class="node">
<title>359590657654446</title>
<ellipse fill="none" stroke="#34262b" cx="260.65" cy="-304.12" rx="3.6" ry="3.6"/>
</g>
<!-- 088&#45;&gt;359590657654446 -->
<g id="edge43" class="edge">
<title>088&#45;&gt;359590657654446</title>
<path fill="none" stroke="#34262b" stroke-width="0.75" d="M241.52,-257.92C247.85,-273.2 255.97,-292.8 259.22,-300.65"/>
</g>
<!-- 359642314904307 -->
<g id="node45" class="node">
<title>359642314904307</title>
<ellipse fill="none" stroke="#34262b" cx="205.55" cy="-304.12" rx="3.6" ry="3.6"/>
</g>
<!-- 088&#45;&gt;359642314904307 -->
<g id="edge44" class="edge">
<title>088&#45;&gt;359642314904307</title>
<path fill="none" stroke="#34262b" stroke-width="0.75" d="M224.68,-257.92C218.35,-273.2 210.23,-292.8 206.98,-300.65"/>
</g>
<!-- 359749191076977 -->
<g id="node46" class="node">
<title>359749191076977</title>
<ellipse fill="none" stroke="#34262b" cx="166.58" cy="-265.15" rx="3.6" ry="3.6"/>
</g>
<!-- 088&#45;&gt;359749191076977 -->
<g id="edge45" class="edge">
<title>088&#45;&gt;359749191076977</title>
<path fill="none" stroke="#34262b" stroke-width="0.75" d="M212.78,-246.02C197.5,-252.35 177.9,-260.47 170.05,-263.72"/>
</g>
<!-- 359813838431707 -->
<g id="node47" class="node">
<title>359813838431707</title>
<ellipse fill="none" stroke="#34262b" cx="166.58" cy="-210.05" rx="3.6" ry="3.6"/>
</g>
<!-- 088&#45;&gt;359813838431707 -->
<g id="edge46" class="edge">
<title>088&#45;&gt;359813838431707</title>
<path fill="none" stroke="#34262b" stroke-width="0.75" d="M212.78,-229.18C197.5,-222.85 177.9,-214.73 170.05,-211.48"/>
</g>
<!-- 359943398969027 -->
<g id="node48" class="node">
<title>359943398969027</title>
<ellipse fill="none" stroke="#34262b" cx="205.55" cy="-171.08" rx="3.6" ry="3.6"/>
<text text-anchor="middle" x="197.07" y="-176.33" font-family="Helvetica,sans-Serif" font-size="18.00" fill="#34262b">7</text>
</g>
<!-- 088&#45;&gt;359943398969027 -->
<g id="edge47" class="edge">
<title>088&#45;&gt;359943398969027</title>
<path fill="none" stroke="#34262b" stroke-width="0.75" d="M224.68,-217.28C218.35,-202 210.23,-182.4 206.98,-174.55"/>
</g>
<!-- 360186567754554 -->
<g id="node49" class="node">
<title>360186567754554</title>
<ellipse fill="none" stroke="#34262b" cx="260.65" cy="-171.08" rx="3.6" ry="3.6"/>
</g>
<!-- 088&#45;&gt;360186567754554 -->
<g id="edge48" class="edge">
<title>088&#45;&gt;360186567754554</title>
<path fill="none" stroke="#34262b" stroke-width="0.75" d="M241.52,-217.28C247.85,-202 255.97,-182.4 259.22,-174.55"/>
</g>
<!-- 360247014033845 -->
<g id="node50" class="node">
<title>360247014033845</title>
<ellipse fill="none" stroke="#34262b" cx="299.62" cy="-210.05" rx="3.6" ry="3.6"/>
</g>
<!-- 088&#45;&gt;360247014033845 -->
<g id="edge49" class="edge">
<title>088&#45;&gt;360247014033845</title>
<path fill="none" stroke="#34262b" stroke-width="0.75" d="M253.42,-229.18C268.7,-222.85 288.3,-214.73 296.15,-211.48"/>
</g>
</g>
</svg>
