<?xml version="1.0" encoding="UTF-8" standalone="no"?>
<!DOCTYPE svg PUBLIC "-//W3C//DTD SVG 1.1//EN"
 "http://www.w3.org/Graphics/SVG/1.1/DTD/svg11.dtd">
<!-- Generated by graphviz version 12.2.1 (20241206.2353)
 -->
<!-- Title: G Pages: 1 -->
<svg width="440pt" height="472pt"
 viewBox="0.00 0.00 439.71 471.75" xmlns="http://www.w3.org/2000/svg" xmlns:xlink="http://www.w3.org/1999/xlink">
<g id="graph0" class="graph" transform="scale(1 1) rotate(0) translate(4 467.75)">
<title>G</title>
<polygon fill="#fdfeff" stroke="none" points="-4,4 -4,-467.75 435.71,-467.75 435.71,4 -4,4"/>
<!-- 103209978926087 -->
<g id="node1" class="node">
<title>103209978926087</title>
<polygon fill="#fee548" stroke="#34262b" points="245.96,-233.47 237.28,-233.47 234.6,-241.72 231.92,-233.47 223.24,-233.47 230.26,-228.37 227.58,-220.12 234.6,-225.22 241.62,-220.12 238.94,-228.37 245.96,-233.47"/>
</g>
<!-- 1230160502988882 -->
<g id="node2" class="node">
<title>1230160502988882</title>
<polygon fill="#fee548" stroke="#34262b" points="327.71,-351.5 319.03,-351.5 316.35,-359.75 313.67,-351.5 304.99,-351.5 312.01,-346.4 309.33,-338.15 316.35,-343.25 323.37,-338.15 320.69,-346.4 327.71,-351.5"/>
</g>
<!-- 125856070581408 -->
<g id="node3" class="node">
<title>125856070581408</title>
<polygon fill="#fee548" stroke="#34262b" points="120.71,-436.15 112.03,-436.15 109.35,-444.4 106.67,-436.15 97.99,-436.15 105.01,-431.05 102.33,-422.8 109.35,-427.9 116.37,-422.8 113.69,-431.05 120.71,-436.15"/>
</g>
<!-- 156364735562291 -->
<g id="node4" class="node">
<title>156364735562291</title>
<polygon fill="#fee548" stroke="#34262b" points="405.71,-221.5 397.03,-221.5 394.35,-229.75 391.67,-221.5 382.99,-221.5 390.01,-216.4 387.33,-208.15 394.35,-213.25 401.37,-208.15 398.69,-216.4 405.71,-221.5"/>
</g>
<!-- 183542481619562 -->
<g id="node5" class="node">
<title>183542481619562</title>
<polygon fill="#fee548" stroke="#34262b" points="309.71,-89.15 301.03,-89.15 298.35,-97.4 295.67,-89.15 286.99,-89.15 294.01,-84.05 291.33,-75.8 298.35,-80.9 305.37,-75.8 302.69,-84.05 309.71,-89.15"/>
</g>
<!-- 248960157567190 -->
<g id="node6" class="node">
<title>248960157567190</title>
<polygon fill="#fee548" stroke="#34262b" points="127.71,-63.15 119.03,-63.15 116.35,-71.4 113.67,-63.15 104.99,-63.15 112.01,-58.05 109.33,-49.8 116.35,-54.9 123.37,-49.8 120.69,-58.05 127.71,-63.15"/>
</g>
<!-- 253352561534995 -->
<g id="node7" class="node">
<title>253352561534995</title>
<polygon fill="#fee548" stroke="#34262b" points="114.71,-232.15 106.03,-232.15 103.35,-240.4 100.67,-232.15 91.99,-232.15 99.01,-227.05 96.33,-218.8 103.35,-223.9 110.37,-218.8 107.69,-227.05 114.71,-232.15"/>
</g>
<!-- 298774613720463 -->
<g id="node8" class="node">
<title>298774613720463</title>
<polygon fill="#fee548" stroke="#34262b" points="400.71,-24.15 392.03,-24.15 389.35,-32.4 386.67,-24.15 377.99,-24.15 385.01,-19.05 382.33,-10.8 389.35,-15.9 396.37,-10.8 393.69,-19.05 400.71,-24.15"/>
</g>
<!-- 5591408610389 -->
<g id="node9" class="node">
<title>5591408610389</title>
<polygon fill="#fee548" stroke="#34262b" points="431.71,-455.5 423.03,-455.5 420.35,-463.75 417.67,-455.5 408.99,-455.5 416.01,-450.4 413.33,-442.15 420.35,-447.25 427.37,-442.15 424.69,-450.4 431.71,-455.5"/>
</g>
<!-- 002 -->
<g id="node10" class="node">
<title>002</title>
<ellipse fill="#dbde92" stroke="#34262b" cx="109.35" cy="-361.6" rx="21.6" ry="21.6"/>
<text text-anchor="middle" x="109.35" y="-353.88" font-family="Helvetica,sans-Serif" font-size="18.00" fill="#34262b">002</text>
<text text-anchor="middle" x="82.88" y="-384.85" font-family="Helvetica,sans-Serif" font-size="18.00" fill="#34262b">1</text>
</g>
<!-- 002&#45;&gt;125856070581408 -->
<g id="edge1" class="edge">
<title>002&#45;&gt;125856070581408</title>
<path fill="none" stroke="#34262b" stroke-width="0.75" d="M92.84,-375.82C87.12,-390.3 87.96,-412.29 95.37,-424.54"/>
<polygon fill="#34262b" stroke="#34262b" stroke-width="0.75" points="92.74,-426.86 102.32,-431.37 97.64,-421.87 92.74,-426.86"/>
</g>
<!-- 002&#45;&gt;125856070581408 -->
<g id="edge2" class="edge">
<title>002&#45;&gt;125856070581408</title>
<path fill="none" stroke="#34262b" stroke-width="0.75" d="M125.86,-375.82C131.58,-390.3 130.74,-412.29 123.33,-424.54"/>
<polygon fill="#34262b" stroke="#34262b" stroke-width="0.75" points="121.06,-421.87 116.38,-431.37 125.96,-426.86 121.06,-421.87"/>
</g>
<!-- 002&#45;&gt;125856070581408 -->
<g id="edge3" class="edge">
<title>002&#45;&gt;125856070581408</title>
<path fill="none" stroke="#34262b" stroke-width="0.75" d="M115.54,-382.43C116.29,-392 116.29,-403.34 115.53,-412.9"/>
<polygon fill="#34262b" stroke="#34262b" stroke-width="0.75" points="112.07,-412.32 114.3,-422.67 119.02,-413.19 112.07,-412.32"/>
</g>
<!-- 002&#45;&gt;125856070581408 -->
<g id="edge4" class="edge">
<title>002&#45;&gt;125856070581408</title>
<path fill="none" stroke="#34262b" stroke-width="0.75" d="M103.16,-382.43C102.41,-392 102.41,-403.34 103.17,-412.9"/>
<polygon fill="#34262b" stroke="#34262b" stroke-width="0.75" points="99.68,-413.19 104.4,-422.67 106.63,-412.32 99.68,-413.19"/>
</g>
<!-- 455354753305299 -->
<g id="node25" class="node">
<title>455354753305299</title>
<ellipse fill="none" stroke="#34262b" cx="109.35" cy="-289.6" rx="3.6" ry="3.6"/>
<text text-anchor="middle" x="100.88" y="-294.85" font-family="Helvetica,sans-Serif" font-size="18.00" fill="#34262b">1</text>
</g>
<!-- 002&#45;&gt;455354753305299 -->
<g id="edge16" class="edge">
<title>002&#45;&gt;455354753305299</title>
<path fill="none" stroke="#34262b" stroke-width="0.75" d="M109.35,-339.61C109.35,-323.23 109.35,-302.27 109.35,-293.62"/>
</g>
<!-- 023 -->
<g id="node11" class="node">
<title>023</title>
<ellipse fill="#dbde92" stroke="#34262b" cx="384.35" cy="-390.6" rx="21.6" ry="21.6"/>
<text text-anchor="middle" x="384.35" y="-382.87" font-family="Helvetica,sans-Serif" font-size="18.00" fill="#34262b">023</text>
<text text-anchor="middle" x="357.87" y="-413.85" font-family="Helvetica,sans-Serif" font-size="18.00" fill="#34262b">3</text>
</g>
<!-- 023&#45;&gt;5591408610389 -->
<g id="edge5" class="edge">
<title>023&#45;&gt;5591408610389</title>
<path fill="none" stroke="#34262b" stroke-width="0.75" d="M395.35,-409.65C399.56,-416.95 404.39,-425.3 408.67,-432.72"/>
<polygon fill="#34262b" stroke="#34262b" stroke-width="0.75" points="405.63,-434.46 413.66,-441.37 411.69,-430.96 405.63,-434.46"/>
</g>
<!-- 14110344140782 -->
<g id="node22" class="node">
<title>14110344140782</title>
<ellipse fill="none" stroke="#34262b" cx="312.35" cy="-390.6" rx="3.6" ry="3.6"/>
<text text-anchor="middle" x="303.87" y="-395.85" font-family="Helvetica,sans-Serif" font-size="18.00" fill="#34262b">2</text>
</g>
<!-- 023&#45;&gt;14110344140782 -->
<g id="edge17" class="edge">
<title>023&#45;&gt;14110344140782</title>
<path fill="none" stroke="#34262b" stroke-width="0.75" d="M362.36,-390.6C345.98,-390.6 325.02,-390.6 316.37,-390.6"/>
</g>
<!-- 62621691563930 -->
<g id="node26" class="node">
<title>62621691563930</title>
<ellipse fill="none" stroke="#34262b" cx="420.35" cy="-328.25" rx="3.6" ry="3.6"/>
</g>
<!-- 023&#45;&gt;62621691563930 -->
<g id="edge18" class="edge">
<title>023&#45;&gt;62621691563930</title>
<path fill="none" stroke="#34262b" stroke-width="0.75" d="M395.35,-371.55C403.62,-357.23 414.23,-338.85 418.47,-331.5"/>
</g>
<!-- 024 -->
<g id="node12" class="node">
<title>024</title>
<ellipse fill="#dbde92" stroke="#34262b" cx="44.35" cy="-60.6" rx="21.6" ry="21.6"/>
<text text-anchor="middle" x="44.35" y="-52.87" font-family="Helvetica,sans-Serif" font-size="18.00" fill="#34262b">024</text>
<text text-anchor="middle" x="17.88" y="-83.85" font-family="Helvetica,sans-Serif" font-size="18.00" fill="#34262b">4</text>
</g>
<!-- 024&#45;&gt;248960157567190 -->
<g id="edge6" class="edge">
<title>024&#45;&gt;248960157567190</title>
<path fill="none" stroke="#34262b" stroke-width="0.75" d="M66.34,-60.6C76.12,-60.6 87.53,-60.6 96.98,-60.6"/>
<polygon fill="#34262b" stroke="#34262b" stroke-width="0.75" points="96.84,-64.1 106.84,-60.6 96.84,-57.1 96.84,-64.1"/>
</g>
<!-- 032 -->
<g id="node13" class="node">
<title>032</title>
<ellipse fill="#dbde92" stroke="#34262b" cx="280.35" cy="-286.6" rx="21.6" ry="21.6"/>
<text text-anchor="middle" x="280.35" y="-278.87" font-family="Helvetica,sans-Serif" font-size="18.00" fill="#34262b">032</text>
<text text-anchor="middle" x="253.88" y="-309.85" font-family="Helvetica,sans-Serif" font-size="18.00" fill="#34262b">6</text>
</g>
<!-- 032&#45;&gt;1230160502988882 -->
<g id="edge7" class="edge">
<title>032&#45;&gt;1230160502988882</title>
<path fill="none" stroke="#34262b" stroke-width="0.75" d="M291.35,-305.65C295.56,-312.95 300.39,-321.3 304.67,-328.72"/>
<polygon fill="#34262b" stroke="#34262b" stroke-width="0.75" points="301.63,-330.46 309.66,-337.37 307.69,-326.96 301.63,-330.46"/>
</g>
<!-- 1230160502988894 -->
<g id="node20" class="node">
<title>1230160502988894</title>
<ellipse fill="none" stroke="#34262b" cx="208.35" cy="-286.6" rx="3.6" ry="3.6"/>
</g>
<!-- 032&#45;&gt;1230160502988894 -->
<g id="edge19" class="edge">
<title>032&#45;&gt;1230160502988894</title>
<path fill="none" stroke="#34262b" stroke-width="0.75" d="M258.36,-286.6C241.98,-286.6 221.02,-286.6 212.37,-286.6"/>
</g>
<!-- 1230160502992190 -->
<g id="node21" class="node">
<title>1230160502992190</title>
<ellipse fill="none" stroke="#34262b" cx="316.35" cy="-224.25" rx="3.6" ry="3.6"/>
<text text-anchor="middle" x="307.87" y="-229.5" font-family="Helvetica,sans-Serif" font-size="18.00" fill="#34262b">2</text>
</g>
<!-- 032&#45;&gt;1230160502992190 -->
<g id="edge20" class="edge">
<title>032&#45;&gt;1230160502992190</title>
<path fill="none" stroke="#34262b" stroke-width="0.75" d="M291.35,-267.55C299.62,-253.23 310.23,-234.85 314.47,-227.5"/>
</g>
<!-- 033 -->
<g id="node14" class="node">
<title>033</title>
<ellipse fill="#dbde92" stroke="#34262b" cx="317.35" cy="-21.6" rx="21.6" ry="21.6"/>
<text text-anchor="middle" x="317.35" y="-13.87" font-family="Helvetica,sans-Serif" font-size="18.00" fill="#34262b">033</text>
<text text-anchor="middle" x="290.88" y="-44.85" font-family="Helvetica,sans-Serif" font-size="18.00" fill="#34262b">7</text>
</g>
<!-- 033&#45;&gt;298774613720463 -->
<g id="edge8" class="edge">
<title>033&#45;&gt;298774613720463</title>
<path fill="none" stroke="#34262b" stroke-width="0.75" d="M339.34,-21.6C349.12,-21.6 360.53,-21.6 369.98,-21.6"/>
<polygon fill="#34262b" stroke="#34262b" stroke-width="0.75" points="369.84,-25.1 379.84,-21.6 369.84,-18.1 369.84,-25.1"/>
</g>
<!-- 037 -->
<g id="node15" class="node">
<title>037</title>
<ellipse fill="#dbde92" stroke="#34262b" cx="226.35" cy="-86.6" rx="21.6" ry="21.6"/>
<text text-anchor="middle" x="226.35" y="-78.88" font-family="Helvetica,sans-Serif" font-size="18.00" fill="#34262b">037</text>
<text text-anchor="middle" x="199.88" y="-109.85" font-family="Helvetica,sans-Serif" font-size="18.00" fill="#34262b">5</text>
</g>
<!-- 037&#45;&gt;183542481619562 -->
<g id="edge9" class="edge">
<title>037&#45;&gt;183542481619562</title>
<path fill="none" stroke="#34262b" stroke-width="0.75" d="M248.34,-86.6C258.12,-86.6 269.53,-86.6 278.98,-86.6"/>
<polygon fill="#34262b" stroke="#34262b" stroke-width="0.75" points="278.84,-90.1 288.84,-86.6 278.84,-83.1 278.84,-90.1"/>
</g>
<!-- 043 -->
<g id="node16" class="node">
<title>043</title>
<ellipse fill="#dbde92" stroke="#34262b" cx="176.35" cy="-188.6" rx="21.6" ry="21.6"/>
<text text-anchor="middle" x="176.35" y="-180.87" font-family="Helvetica,sans-Serif" font-size="18.00" fill="#34262b">043</text>
<text text-anchor="middle" x="149.88" y="-211.85" font-family="Helvetica,sans-Serif" font-size="18.00" fill="#34262b">2</text>
</g>
<!-- 043&#45;&gt;103209978926087 -->
<g id="edge10" class="edge">
<title>043&#45;&gt;103209978926087</title>
<path fill="none" stroke="#34262b" stroke-width="0.75" d="M184.31,-209.19C191.75,-217.08 202.54,-224.94 212.36,-229.62"/>
<polygon fill="#34262b" stroke="#34262b" stroke-width="0.75" points="211.14,-232.9 221.73,-232.99 213.51,-226.31 211.14,-232.9"/>
</g>
<!-- 043&#45;&gt;103209978926087 -->
<g id="edge11" class="edge">
<title>043&#45;&gt;103209978926087</title>
<path fill="none" stroke="#34262b" stroke-width="0.75" d="M198.39,-189.81C209.99,-195.29 222.99,-205.25 230.23,-214.49"/>
<polygon fill="#34262b" stroke="#34262b" stroke-width="0.75" points="227.03,-215.94 234.94,-223 233.16,-212.55 227.03,-215.94"/>
</g>
<!-- 043&#45;&gt;103209978926087 -->
<g id="edge12" class="edge">
<title>043&#45;&gt;103209978926087</title>
<path fill="none" stroke="#34262b" stroke-width="0.75" d="M194.14,-201.53C202.61,-207.68 212.59,-214.93 220.52,-220.69"/>
<polygon fill="#34262b" stroke="#34262b" stroke-width="0.75" points="218.4,-223.48 228.55,-226.52 222.51,-217.81 218.4,-223.48"/>
</g>
<!-- 103209978926115 -->
<g id="node19" class="node">
<title>103209978926115</title>
<ellipse fill="none" stroke="#34262b" cx="154.1" cy="-257.08" rx="3.6" ry="3.6"/>
</g>
<!-- 043&#45;&gt;103209978926115 -->
<g id="edge21" class="edge">
<title>043&#45;&gt;103209978926115</title>
<path fill="none" stroke="#34262b" stroke-width="0.75" d="M169.55,-209.52C164.44,-225.25 157.89,-245.43 155.26,-253.5"/>
</g>
<!-- 76118056186574 -->
<g id="node27" class="node">
<title>76118056186574</title>
<ellipse fill="none" stroke="#34262b" cx="104.35" cy="-188.6" rx="3.6" ry="3.6"/>
<text text-anchor="middle" x="95.88" y="-193.85" font-family="Helvetica,sans-Serif" font-size="18.00" fill="#34262b">4</text>
</g>
<!-- 043&#45;&gt;76118056186574 -->
<g id="edge22" class="edge">
<title>043&#45;&gt;76118056186574</title>
<path fill="none" stroke="#34262b" stroke-width="0.75" d="M154.36,-188.6C137.98,-188.6 117.02,-188.6 108.37,-188.6"/>
</g>
<!-- 81063761713588 -->
<g id="node28" class="node">
<title>81063761713588</title>
<ellipse fill="none" stroke="#34262b" cx="154.1" cy="-120.12" rx="3.6" ry="3.6"/>
</g>
<!-- 043&#45;&gt;81063761713588 -->
<g id="edge23" class="edge">
<title>043&#45;&gt;81063761713588</title>
<path fill="none" stroke="#34262b" stroke-width="0.75" d="M169.55,-167.68C164.44,-151.95 157.89,-131.77 155.26,-123.7"/>
</g>
<!-- 96800835160244 -->
<g id="node29" class="node">
<title>96800835160244</title>
<ellipse fill="none" stroke="#34262b" cx="234.6" cy="-146.28" rx="3.6" ry="3.6"/>
</g>
<!-- 043&#45;&gt;96800835160244 -->
<g id="edge24" class="edge">
<title>043&#45;&gt;96800835160244</title>
<path fill="none" stroke="#34262b" stroke-width="0.75" d="M194.14,-175.67C207.53,-165.95 224.69,-153.48 231.56,-148.49"/>
</g>
<!-- 081 -->
<g id="node17" class="node">
<title>081</title>
<ellipse fill="#dbde92" stroke="#34262b" cx="31.35" cy="-229.6" rx="21.6" ry="21.6"/>
<text text-anchor="middle" x="31.35" y="-221.88" font-family="Helvetica,sans-Serif" font-size="18.00" fill="#34262b">081</text>
<text text-anchor="middle" x="4.88" y="-252.85" font-family="Helvetica,sans-Serif" font-size="18.00" fill="#34262b">8</text>
</g>
<!-- 081&#45;&gt;253352561534995 -->
<g id="edge13" class="edge">
<title>081&#45;&gt;253352561534995</title>
<path fill="none" stroke="#34262b" stroke-width="0.75" d="M52.18,-235.79C64.21,-236.73 79.01,-236.49 89.59,-235.04"/>
<polygon fill="#34262b" stroke="#34262b" stroke-width="0.75" points="90.16,-238.5 99.11,-232.83 88.58,-231.68 90.16,-238.5"/>
</g>
<!-- 081&#45;&gt;253352561534995 -->
<g id="edge14" class="edge">
<title>081&#45;&gt;253352561534995</title>
<path fill="none" stroke="#34262b" stroke-width="0.75" d="M52.18,-223.41C63.51,-222.52 77.31,-222.69 87.72,-223.92"/>
<polygon fill="#34262b" stroke="#34262b" stroke-width="0.75" points="86.75,-227.3 97.23,-225.74 88.06,-220.42 86.75,-227.3"/>
</g>
<!-- 082 -->
<g id="node18" class="node">
<title>082</title>
<ellipse fill="#dbde92" stroke="#34262b" cx="358.35" cy="-156.6" rx="21.6" ry="21.6"/>
<text text-anchor="middle" x="358.35" y="-148.88" font-family="Helvetica,sans-Serif" font-size="18.00" fill="#34262b">082</text>
<text text-anchor="middle" x="331.88" y="-179.85" font-family="Helvetica,sans-Serif" font-size="18.00" fill="#34262b">9</text>
</g>
<!-- 082&#45;&gt;156364735562291 -->
<g id="edge15" class="edge">
<title>082&#45;&gt;156364735562291</title>
<path fill="none" stroke="#34262b" stroke-width="0.75" d="M369.35,-175.65C373.56,-182.95 378.39,-191.3 382.67,-198.72"/>
<polygon fill="#34262b" stroke="#34262b" stroke-width="0.75" points="379.63,-200.46 387.66,-207.37 385.69,-196.96 379.63,-200.46"/>
</g>
<!-- 156189361184507 -->
<g id="node23" class="node">
<title>156189361184507</title>
<ellipse fill="none" stroke="#34262b" cx="286.35" cy="-156.6" rx="3.6" ry="3.6"/>
<text text-anchor="middle" x="277.88" y="-161.85" font-family="Helvetica,sans-Serif" font-size="18.00" fill="#34262b">2</text>
</g>
<!-- 082&#45;&gt;156189361184507 -->
<g id="edge25" class="edge">
<title>082&#45;&gt;156189361184507</title>
<path fill="none" stroke="#34262b" stroke-width="0.75" d="M336.36,-156.6C319.98,-156.6 299.02,-156.6 290.37,-156.6"/>
</g>
<!-- 156596690231090 -->
<g id="node24" class="node">
<title>156596690231090</title>
<ellipse fill="none" stroke="#34262b" cx="394.35" cy="-94.25" rx="3.6" ry="3.6"/>
</g>
<!-- 082&#45;&gt;156596690231090 -->
<g id="edge26" class="edge">
<title>082&#45;&gt;156596690231090</title>
<path fill="none" stroke="#34262b" stroke-width="0.75" d="M369.35,-137.55C377.62,-123.23 388.23,-104.85 392.47,-97.5"/>
</g>
</g>
</svg>
