<?xml version="1.0" encoding="UTF-8" standalone="no"?>
<!DOCTYPE svg PUBLIC "-//W3C//DTD SVG 1.1//EN"
 "http://www.w3.org/Graphics/SVG/1.1/DTD/svg11.dtd">
<!-- Generated by graphviz version 12.2.1 (20241206.2353)
 -->
<!-- Title: G Pages: 1 -->
<svg width="526pt" height="512pt"
 viewBox="0.00 0.00 525.71 511.95" xmlns="http://www.w3.org/2000/svg" xmlns:xlink="http://www.w3.org/1999/xlink">
<g id="graph0" class="graph" transform="scale(1 1) rotate(0) translate(4 507.95)">
<title>G</title>
<polygon fill="#fdfeff" stroke="none" points="-4,4 -4,-507.95 521.71,-507.95 521.71,4 -4,4"/>
<!-- 103209978926087 -->
<g id="node1" class="node">
<title>103209978926087</title>
<polygon fill="#fee548" stroke="#34262b" points="453.96,-350.47 445.28,-350.47 442.6,-358.72 439.92,-350.47 431.24,-350.47 438.26,-345.37 435.58,-337.12 442.6,-342.22 449.62,-337.12 446.94,-345.37 453.96,-350.47"/>
</g>
<!-- 1230160502988882 -->
<g id="node2" class="node">
<title>1230160502988882</title>
<polygon fill="#fee548" stroke="#34262b" points="509.71,-481.5 501.03,-481.5 498.35,-489.75 495.67,-481.5 486.99,-481.5 494.01,-476.4 491.33,-468.15 498.35,-473.25 505.37,-468.15 502.69,-476.4 509.71,-481.5"/>
</g>
<!-- 125856070581408 -->
<g id="node3" class="node">
<title>125856070581408</title>
<polygon fill="#fee548" stroke="#34262b" points="133.71,-371.15 125.03,-371.15 122.35,-379.4 119.67,-371.15 110.99,-371.15 118.01,-366.05 115.33,-357.8 122.35,-362.9 129.37,-357.8 126.69,-366.05 133.71,-371.15"/>
</g>
<!-- 155147806452639 -->
<g id="node4" class="node">
<title>155147806452639</title>
<polygon fill="#fee548" stroke="#34262b" points="114.71,-167.15 106.03,-167.15 103.35,-175.4 100.67,-167.15 91.99,-167.15 99.01,-162.05 96.33,-153.8 103.35,-158.9 110.37,-153.8 107.69,-162.05 114.71,-167.15"/>
</g>
<!-- 156364735562291 -->
<g id="node5" class="node">
<title>156364735562291</title>
<polygon fill="#fee548" stroke="#34262b" points="171.71,-143.5 163.03,-143.5 160.35,-151.75 157.67,-143.5 148.99,-143.5 156.01,-138.4 153.33,-130.15 160.35,-135.25 167.37,-130.15 164.69,-138.4 171.71,-143.5"/>
</g>
<!-- 183542481619562 -->
<g id="node6" class="node">
<title>183542481619562</title>
<polygon fill="#fee548" stroke="#34262b" points="140.71,-466.15 132.03,-466.15 129.35,-474.4 126.67,-466.15 117.99,-466.15 125.01,-461.05 122.33,-452.8 129.35,-457.9 136.37,-452.8 133.69,-461.05 140.71,-466.15"/>
</g>
<!-- 240070160009025 -->
<g id="node7" class="node">
<title>240070160009025</title>
<polygon fill="#fee548" stroke="#34262b" points="426.71,-115.15 418.03,-115.15 415.35,-123.4 412.67,-115.15 403.99,-115.15 411.01,-110.05 408.33,-101.8 415.35,-106.9 422.37,-101.8 419.69,-110.05 426.71,-115.15"/>
</g>
<!-- 248960157567190 -->
<g id="node8" class="node">
<title>248960157567190</title>
<polygon fill="#fee548" stroke="#34262b" points="517.71,-50.15 509.03,-50.15 506.35,-58.4 503.67,-50.15 494.99,-50.15 502.01,-45.05 499.33,-36.8 506.35,-41.9 513.37,-36.8 510.69,-45.05 517.71,-50.15"/>
</g>
<!-- 253352561534995 -->
<g id="node9" class="node">
<title>253352561534995</title>
<polygon fill="#fee548" stroke="#34262b" points="322.71,-37.15 314.03,-37.15 311.35,-45.4 308.67,-37.15 299.99,-37.15 307.01,-32.05 304.33,-23.8 311.35,-28.9 318.37,-23.8 315.69,-32.05 322.71,-37.15"/>
</g>
<!-- 253600606633879 -->
<g id="node10" class="node">
<title>253600606633879</title>
<polygon fill="#fee548" stroke="#34262b" points="331.06,-439.15 322.38,-439.15 319.7,-447.4 317.02,-439.15 308.35,-439.15 315.37,-434.05 312.69,-425.8 319.7,-430.9 326.72,-425.8 324.04,-434.05 331.06,-439.15"/>
</g>
<!-- 298774613720463 -->
<g id="node11" class="node">
<title>298774613720463</title>
<polygon fill="#fee548" stroke="#34262b" points="127.71,-24.15 119.03,-24.15 116.35,-32.4 113.67,-24.15 104.99,-24.15 112.01,-19.05 109.33,-10.8 116.35,-15.9 123.37,-10.8 120.69,-19.05 127.71,-24.15"/>
</g>
<!-- 360051049043076 -->
<g id="node12" class="node">
<title>360051049043076</title>
<polygon fill="#fee548" stroke="#34262b" points="326.23,-242.7 317.55,-242.7 314.87,-250.95 312.19,-242.7 303.51,-242.7 310.53,-237.6 307.85,-229.35 314.87,-234.45 321.89,-229.35 319.21,-237.6 326.23,-242.7"/>
</g>
<!-- 5591408610389 -->
<g id="node13" class="node">
<title>5591408610389</title>
<polygon fill="#fee548" stroke="#34262b" points="496.71,-234.5 488.03,-234.5 485.35,-242.75 482.67,-234.5 473.99,-234.5 481.01,-229.4 478.33,-221.15 485.35,-226.25 492.37,-221.15 489.69,-229.4 496.71,-234.5"/>
</g>
<!-- 002 -->
<g id="node14" class="node">
<title>002</title>
<ellipse fill="#dbde92" stroke="#34262b" cx="122.35" cy="-296.6" rx="21.6" ry="21.6"/>
<text text-anchor="middle" x="122.35" y="-288.88" font-family="Helvetica,sans-Serif" font-size="18.00" fill="#34262b">002</text>
<text text-anchor="middle" x="95.88" y="-319.85" font-family="Helvetica,sans-Serif" font-size="18.00" fill="#34262b">1</text>
</g>
<!-- 002&#45;&gt;125856070581408 -->
<g id="edge1" class="edge">
<title>002&#45;&gt;125856070581408</title>
<path fill="none" stroke="#34262b" stroke-width="0.75" d="M105.84,-310.82C100.12,-325.3 100.96,-347.29 108.37,-359.54"/>
<polygon fill="#34262b" stroke="#34262b" stroke-width="0.75" points="105.74,-361.86 115.32,-366.37 110.64,-356.87 105.74,-361.86"/>
</g>
<!-- 002&#45;&gt;125856070581408 -->
<g id="edge2" class="edge">
<title>002&#45;&gt;125856070581408</title>
<path fill="none" stroke="#34262b" stroke-width="0.75" d="M138.86,-310.82C144.58,-325.3 143.74,-347.29 136.33,-359.54"/>
<polygon fill="#34262b" stroke="#34262b" stroke-width="0.75" points="134.06,-356.87 129.38,-366.37 138.96,-361.86 134.06,-356.87"/>
</g>
<!-- 002&#45;&gt;125856070581408 -->
<g id="edge3" class="edge">
<title>002&#45;&gt;125856070581408</title>
<path fill="none" stroke="#34262b" stroke-width="0.75" d="M128.54,-317.43C129.29,-327 129.29,-338.34 128.53,-347.9"/>
<polygon fill="#34262b" stroke="#34262b" stroke-width="0.75" points="125.07,-347.32 127.3,-357.67 132.02,-348.19 125.07,-347.32"/>
</g>
<!-- 002&#45;&gt;125856070581408 -->
<g id="edge4" class="edge">
<title>002&#45;&gt;125856070581408</title>
<path fill="none" stroke="#34262b" stroke-width="0.75" d="M116.16,-317.43C115.41,-327 115.41,-338.34 116.17,-347.9"/>
<polygon fill="#34262b" stroke="#34262b" stroke-width="0.75" points="112.68,-348.19 117.4,-357.67 119.63,-347.32 112.68,-348.19"/>
</g>
<!-- 455354753305299 -->
<g id="node45" class="node">
<title>455354753305299</title>
<ellipse fill="none" stroke="#34262b" cx="122.35" cy="-224.6" rx="3.6" ry="3.6"/>
<text text-anchor="middle" x="113.87" y="-229.85" font-family="Helvetica,sans-Serif" font-size="18.00" fill="#34262b">1</text>
</g>
<!-- 002&#45;&gt;455354753305299 -->
<g id="edge24" class="edge">
<title>002&#45;&gt;455354753305299</title>
<path fill="none" stroke="#34262b" stroke-width="0.75" d="M122.35,-274.61C122.35,-258.23 122.35,-237.27 122.35,-228.62"/>
</g>
<!-- 009 -->
<g id="node15" class="node">
<title>009</title>
<ellipse fill="#dbde92" stroke="#34262b" cx="257.35" cy="-400.6" rx="21.6" ry="21.6"/>
<text text-anchor="middle" x="257.35" y="-392.87" font-family="Helvetica,sans-Serif" font-size="18.00" fill="#34262b">009</text>
<text text-anchor="middle" x="226" y="-423.85" font-family="Helvetica,sans-Serif" font-size="18.00" fill="#34262b">13</text>
</g>
<!-- 009&#45;&gt;253600606633879 -->
<g id="edge5" class="edge">
<title>009&#45;&gt;253600606633879</title>
<path fill="none" stroke="#34262b" stroke-width="0.75" d="M272.29,-416.37C280.98,-422.34 291.96,-428.58 301.18,-432.76"/>
<polygon fill="#34262b" stroke="#34262b" stroke-width="0.75" points="299.66,-435.92 310.24,-436.26 302.18,-429.39 299.66,-435.92"/>
</g>
<!-- 009&#45;&gt;253600606633879 -->
<g id="edge6" class="edge">
<title>009&#45;&gt;253600606633879</title>
<path fill="none" stroke="#34262b" stroke-width="0.75" d="M278.48,-405.66C286.83,-409.64 296.25,-415.05 303.99,-420.3"/>
<polygon fill="#34262b" stroke="#34262b" stroke-width="0.75" points="301.67,-422.94 311.79,-426.08 305.84,-417.32 301.67,-422.94"/>
</g>
<!-- 253109520226675 -->
<g id="node33" class="node">
<title>253109520226675</title>
<ellipse fill="none" stroke="#34262b" cx="257.35" cy="-472.6" rx="3.6" ry="3.6"/>
</g>
<!-- 009&#45;&gt;253109520226675 -->
<g id="edge25" class="edge">
<title>009&#45;&gt;253109520226675</title>
<path fill="none" stroke="#34262b" stroke-width="0.75" d="M257.35,-422.59C257.35,-438.97 257.35,-459.93 257.35,-468.58"/>
</g>
<!-- 253352804744747 -->
<g id="node34" class="node">
<title>253352804744747</title>
<ellipse fill="none" stroke="#34262b" cx="195" cy="-436.6" rx="3.6" ry="3.6"/>
<text text-anchor="middle" x="186.52" y="-441.85" font-family="Helvetica,sans-Serif" font-size="18.00" fill="#34262b">5</text>
</g>
<!-- 009&#45;&gt;253352804744747 -->
<g id="edge26" class="edge">
<title>009&#45;&gt;253352804744747</title>
<path fill="none" stroke="#34262b" stroke-width="0.75" d="M238.3,-411.6C223.98,-419.87 205.6,-430.48 198.25,-434.72"/>
</g>
<!-- 253843891117135 -->
<g id="node35" class="node">
<title>253843891117135</title>
<ellipse fill="none" stroke="#34262b" cx="195" cy="-364.6" rx="3.6" ry="3.6"/>
</g>
<!-- 009&#45;&gt;253843891117135 -->
<g id="edge27" class="edge">
<title>009&#45;&gt;253843891117135</title>
<path fill="none" stroke="#34262b" stroke-width="0.75" d="M238.3,-389.6C223.98,-381.33 205.6,-370.72 198.25,-366.48"/>
</g>
<!-- 253974688626775 -->
<g id="node36" class="node">
<title>253974688626775</title>
<ellipse fill="none" stroke="#34262b" cx="257.35" cy="-328.6" rx="3.6" ry="3.6"/>
</g>
<!-- 009&#45;&gt;253974688626775 -->
<g id="edge28" class="edge">
<title>009&#45;&gt;253974688626775</title>
<path fill="none" stroke="#34262b" stroke-width="0.75" d="M257.35,-378.61C257.35,-362.23 257.35,-341.27 257.35,-332.62"/>
</g>
<!-- 254220120595727 -->
<g id="node37" class="node">
<title>254220120595727</title>
<ellipse fill="none" stroke="#34262b" cx="319.7" cy="-364.6" rx="3.6" ry="3.6"/>
</g>
<!-- 009&#45;&gt;254220120595727 -->
<g id="edge29" class="edge">
<title>009&#45;&gt;254220120595727</title>
<path fill="none" stroke="#34262b" stroke-width="0.75" d="M276.4,-389.6C290.72,-381.33 309.1,-370.72 316.45,-366.48"/>
</g>
<!-- 010 -->
<g id="node16" class="node">
<title>010</title>
<ellipse fill="#dbde92" stroke="#34262b" cx="31.35" cy="-164.6" rx="21.6" ry="21.6"/>
<text text-anchor="middle" x="31.35" y="-156.88" font-family="Helvetica,sans-Serif" font-size="18.00" fill="#34262b">010</text>
<text text-anchor="middle" x="4.88" y="-187.85" font-family="Helvetica,sans-Serif" font-size="18.00" fill="#34262b">5</text>
</g>
<!-- 010&#45;&gt;155147806452639 -->
<g id="edge7" class="edge">
<title>010&#45;&gt;155147806452639</title>
<path fill="none" stroke="#34262b" stroke-width="0.75" d="M52.18,-170.79C64.21,-171.73 79.01,-171.49 89.59,-170.04"/>
<polygon fill="#34262b" stroke="#34262b" stroke-width="0.75" points="90.16,-173.5 99.11,-167.83 88.58,-166.68 90.16,-173.5"/>
</g>
<!-- 010&#45;&gt;155147806452639 -->
<g id="edge8" class="edge">
<title>010&#45;&gt;155147806452639</title>
<path fill="none" stroke="#34262b" stroke-width="0.75" d="M52.18,-158.41C63.51,-157.52 77.31,-157.69 87.72,-158.92"/>
<polygon fill="#34262b" stroke="#34262b" stroke-width="0.75" points="86.75,-162.3 97.23,-160.74 88.06,-155.42 86.75,-162.3"/>
</g>
<!-- 023 -->
<g id="node17" class="node">
<title>023</title>
<ellipse fill="#dbde92" stroke="#34262b" cx="449.35" cy="-169.6" rx="21.6" ry="21.6"/>
<text text-anchor="middle" x="449.35" y="-161.87" font-family="Helvetica,sans-Serif" font-size="18.00" fill="#34262b">023</text>
<text text-anchor="middle" x="418" y="-192.85" font-family="Helvetica,sans-Serif" font-size="18.00" fill="#34262b">10</text>
</g>
<!-- 023&#45;&gt;5591408610389 -->
<g id="edge9" class="edge">
<title>023&#45;&gt;5591408610389</title>
<path fill="none" stroke="#34262b" stroke-width="0.75" d="M460.35,-188.65C464.56,-195.95 469.39,-204.3 473.67,-211.72"/>
<polygon fill="#34262b" stroke="#34262b" stroke-width="0.75" points="470.63,-213.46 478.66,-220.37 476.69,-209.96 470.63,-213.46"/>
</g>
<!-- 14110344140782 -->
<g id="node30" class="node">
<title>14110344140782</title>
<ellipse fill="none" stroke="#34262b" cx="377.35" cy="-169.6" rx="3.6" ry="3.6"/>
<text text-anchor="middle" x="368.87" y="-174.85" font-family="Helvetica,sans-Serif" font-size="18.00" fill="#34262b">2</text>
</g>
<!-- 023&#45;&gt;14110344140782 -->
<g id="edge30" class="edge">
<title>023&#45;&gt;14110344140782</title>
<path fill="none" stroke="#34262b" stroke-width="0.75" d="M427.36,-169.6C410.98,-169.6 390.02,-169.6 381.37,-169.6"/>
</g>
<!-- 62621691563930 -->
<g id="node46" class="node">
<title>62621691563930</title>
<ellipse fill="none" stroke="#34262b" cx="485.35" cy="-107.25" rx="3.6" ry="3.6"/>
</g>
<!-- 023&#45;&gt;62621691563930 -->
<g id="edge31" class="edge">
<title>023&#45;&gt;62621691563930</title>
<path fill="none" stroke="#34262b" stroke-width="0.75" d="M460.35,-150.55C468.62,-136.23 479.23,-117.85 483.47,-110.5"/>
</g>
<!-- 024 -->
<g id="node18" class="node">
<title>024</title>
<ellipse fill="#dbde92" stroke="#34262b" cx="434.35" cy="-47.6" rx="21.6" ry="21.6"/>
<text text-anchor="middle" x="434.35" y="-39.87" font-family="Helvetica,sans-Serif" font-size="18.00" fill="#34262b">024</text>
<text text-anchor="middle" x="403.75" y="-70.85" font-family="Helvetica,sans-Serif" font-size="18.00" fill="#34262b">11</text>
</g>
<!-- 024&#45;&gt;248960157567190 -->
<g id="edge10" class="edge">
<title>024&#45;&gt;248960157567190</title>
<path fill="none" stroke="#34262b" stroke-width="0.75" d="M456.34,-47.6C466.12,-47.6 477.53,-47.6 486.98,-47.6"/>
<polygon fill="#34262b" stroke="#34262b" stroke-width="0.75" points="486.84,-51.1 496.84,-47.6 486.84,-44.1 486.84,-51.1"/>
</g>
<!-- 032 -->
<g id="node19" class="node">
<title>032</title>
<ellipse fill="#dbde92" stroke="#34262b" cx="462.35" cy="-416.6" rx="21.6" ry="21.6"/>
<text text-anchor="middle" x="462.35" y="-408.88" font-family="Helvetica,sans-Serif" font-size="18.00" fill="#34262b">032</text>
<text text-anchor="middle" x="435.88" y="-439.85" font-family="Helvetica,sans-Serif" font-size="18.00" fill="#34262b">6</text>
</g>
<!-- 032&#45;&gt;1230160502988882 -->
<g id="edge11" class="edge">
<title>032&#45;&gt;1230160502988882</title>
<path fill="none" stroke="#34262b" stroke-width="0.75" d="M473.35,-435.65C477.56,-442.95 482.39,-451.3 486.67,-458.72"/>
<polygon fill="#34262b" stroke="#34262b" stroke-width="0.75" points="483.63,-460.46 491.66,-467.37 489.69,-456.96 483.63,-460.46"/>
</g>
<!-- 1230160502988894 -->
<g id="node28" class="node">
<title>1230160502988894</title>
<ellipse fill="none" stroke="#34262b" cx="390.35" cy="-416.6" rx="3.6" ry="3.6"/>
</g>
<!-- 032&#45;&gt;1230160502988894 -->
<g id="edge32" class="edge">
<title>032&#45;&gt;1230160502988894</title>
<path fill="none" stroke="#34262b" stroke-width="0.75" d="M440.36,-416.6C423.98,-416.6 403.02,-416.6 394.37,-416.6"/>
</g>
<!-- 1230160502992190 -->
<g id="node29" class="node">
<title>1230160502992190</title>
<ellipse fill="none" stroke="#34262b" cx="498.35" cy="-354.25" rx="3.6" ry="3.6"/>
<text text-anchor="middle" x="489.87" y="-359.5" font-family="Helvetica,sans-Serif" font-size="18.00" fill="#34262b">2</text>
</g>
<!-- 032&#45;&gt;1230160502992190 -->
<g id="edge33" class="edge">
<title>032&#45;&gt;1230160502992190</title>
<path fill="none" stroke="#34262b" stroke-width="0.75" d="M473.35,-397.55C481.62,-383.23 492.23,-364.85 496.47,-357.5"/>
</g>
<!-- 033 -->
<g id="node20" class="node">
<title>033</title>
<ellipse fill="#dbde92" stroke="#34262b" cx="44.35" cy="-21.6" rx="21.6" ry="21.6"/>
<text text-anchor="middle" x="44.35" y="-13.87" font-family="Helvetica,sans-Serif" font-size="18.00" fill="#34262b">033</text>
<text text-anchor="middle" x="17.87" y="-44.85" font-family="Helvetica,sans-Serif" font-size="18.00" fill="#34262b">7</text>
</g>
<!-- 033&#45;&gt;298774613720463 -->
<g id="edge12" class="edge">
<title>033&#45;&gt;298774613720463</title>
<path fill="none" stroke="#34262b" stroke-width="0.75" d="M66.34,-21.6C76.12,-21.6 87.53,-21.6 96.98,-21.6"/>
<polygon fill="#34262b" stroke="#34262b" stroke-width="0.75" points="96.84,-25.1 106.84,-21.6 96.84,-18.1 96.84,-25.1"/>
</g>
<!-- 037 -->
<g id="node21" class="node">
<title>037</title>
<ellipse fill="#dbde92" stroke="#34262b" cx="57.35" cy="-463.6" rx="21.6" ry="21.6"/>
<text text-anchor="middle" x="57.35" y="-455.87" font-family="Helvetica,sans-Serif" font-size="18.00" fill="#34262b">037</text>
<text text-anchor="middle" x="26" y="-486.85" font-family="Helvetica,sans-Serif" font-size="18.00" fill="#34262b">12</text>
</g>
<!-- 037&#45;&gt;183542481619562 -->
<g id="edge13" class="edge">
<title>037&#45;&gt;183542481619562</title>
<path fill="none" stroke="#34262b" stroke-width="0.75" d="M79.34,-463.6C89.12,-463.6 100.53,-463.6 109.98,-463.6"/>
<polygon fill="#34262b" stroke="#34262b" stroke-width="0.75" points="109.84,-467.1 119.84,-463.6 109.84,-460.1 109.84,-467.1"/>
</g>
<!-- 043 -->
<g id="node22" class="node">
<title>043</title>
<ellipse fill="#dbde92" stroke="#34262b" cx="384.35" cy="-305.6" rx="21.6" ry="21.6"/>
<text text-anchor="middle" x="384.35" y="-297.88" font-family="Helvetica,sans-Serif" font-size="18.00" fill="#34262b">043</text>
<text text-anchor="middle" x="357.87" y="-328.85" font-family="Helvetica,sans-Serif" font-size="18.00" fill="#34262b">3</text>
</g>
<!-- 043&#45;&gt;103209978926087 -->
<g id="edge14" class="edge">
<title>043&#45;&gt;103209978926087</title>
<path fill="none" stroke="#34262b" stroke-width="0.75" d="M392.31,-326.19C399.75,-334.08 410.54,-341.94 420.36,-346.62"/>
<polygon fill="#34262b" stroke="#34262b" stroke-width="0.75" points="419.14,-349.9 429.73,-349.99 421.51,-343.31 419.14,-349.9"/>
</g>
<!-- 043&#45;&gt;103209978926087 -->
<g id="edge15" class="edge">
<title>043&#45;&gt;103209978926087</title>
<path fill="none" stroke="#34262b" stroke-width="0.75" d="M406.39,-306.81C417.99,-312.29 430.99,-322.25 438.23,-331.49"/>
<polygon fill="#34262b" stroke="#34262b" stroke-width="0.75" points="435.03,-332.94 442.94,-340 441.16,-329.55 435.03,-332.94"/>
</g>
<!-- 043&#45;&gt;103209978926087 -->
<g id="edge16" class="edge">
<title>043&#45;&gt;103209978926087</title>
<path fill="none" stroke="#34262b" stroke-width="0.75" d="M402.14,-318.53C410.61,-324.68 420.59,-331.93 428.52,-337.69"/>
<polygon fill="#34262b" stroke="#34262b" stroke-width="0.75" points="426.4,-340.48 436.55,-343.52 430.51,-334.81 426.4,-340.48"/>
</g>
<!-- 103209978926115 -->
<g id="node27" class="node">
<title>103209978926115</title>
<ellipse fill="none" stroke="#34262b" cx="362.1" cy="-374.08" rx="3.6" ry="3.6"/>
</g>
<!-- 043&#45;&gt;103209978926115 -->
<g id="edge34" class="edge">
<title>043&#45;&gt;103209978926115</title>
<path fill="none" stroke="#34262b" stroke-width="0.75" d="M377.55,-326.52C372.44,-342.25 365.89,-362.43 363.26,-370.5"/>
</g>
<!-- 76118056186574 -->
<g id="node47" class="node">
<title>76118056186574</title>
<ellipse fill="none" stroke="#34262b" cx="312.35" cy="-305.6" rx="3.6" ry="3.6"/>
<text text-anchor="middle" x="303.87" y="-310.85" font-family="Helvetica,sans-Serif" font-size="18.00" fill="#34262b">4</text>
</g>
<!-- 043&#45;&gt;76118056186574 -->
<g id="edge35" class="edge">
<title>043&#45;&gt;76118056186574</title>
<path fill="none" stroke="#34262b" stroke-width="0.75" d="M362.36,-305.6C345.98,-305.6 325.02,-305.6 316.37,-305.6"/>
</g>
<!-- 81063761713588 -->
<g id="node48" class="node">
<title>81063761713588</title>
<ellipse fill="none" stroke="#34262b" cx="362.1" cy="-237.12" rx="3.6" ry="3.6"/>
</g>
<!-- 043&#45;&gt;81063761713588 -->
<g id="edge36" class="edge">
<title>043&#45;&gt;81063761713588</title>
<path fill="none" stroke="#34262b" stroke-width="0.75" d="M377.55,-284.68C372.44,-268.95 365.89,-248.77 363.26,-240.7"/>
</g>
<!-- 96800835160244 -->
<g id="node49" class="node">
<title>96800835160244</title>
<ellipse fill="none" stroke="#34262b" cx="442.6" cy="-263.28" rx="3.6" ry="3.6"/>
</g>
<!-- 043&#45;&gt;96800835160244 -->
<g id="edge37" class="edge">
<title>043&#45;&gt;96800835160244</title>
<path fill="none" stroke="#34262b" stroke-width="0.75" d="M402.14,-292.67C415.53,-282.95 432.69,-270.48 439.56,-265.49"/>
</g>
<!-- 052 -->
<g id="node23" class="node">
<title>052</title>
<ellipse fill="#dbde92" stroke="#34262b" cx="343.35" cy="-112.6" rx="21.6" ry="21.6"/>
<text text-anchor="middle" x="343.35" y="-104.88" font-family="Helvetica,sans-Serif" font-size="18.00" fill="#34262b">052</text>
<text text-anchor="middle" x="316.87" y="-135.85" font-family="Helvetica,sans-Serif" font-size="18.00" fill="#34262b">2</text>
</g>
<!-- 052&#45;&gt;240070160009025 -->
<g id="edge17" class="edge">
<title>052&#45;&gt;240070160009025</title>
<path fill="none" stroke="#34262b" stroke-width="0.75" d="M364.18,-118.79C376.21,-119.73 391.01,-119.49 401.59,-118.04"/>
<polygon fill="#34262b" stroke="#34262b" stroke-width="0.75" points="402.16,-121.5 411.11,-115.83 400.58,-114.68 402.16,-121.5"/>
</g>
<!-- 052&#45;&gt;240070160009025 -->
<g id="edge18" class="edge">
<title>052&#45;&gt;240070160009025</title>
<path fill="none" stroke="#34262b" stroke-width="0.75" d="M364.18,-106.41C375.51,-105.52 389.31,-105.69 399.72,-106.92"/>
<polygon fill="#34262b" stroke="#34262b" stroke-width="0.75" points="398.75,-110.3 409.23,-108.74 400.06,-103.42 398.75,-110.3"/>
</g>
<!-- 081 -->
<g id="node24" class="node">
<title>081</title>
<ellipse fill="#dbde92" stroke="#34262b" cx="239.35" cy="-34.6" rx="21.6" ry="21.6"/>
<text text-anchor="middle" x="239.35" y="-26.87" font-family="Helvetica,sans-Serif" font-size="18.00" fill="#34262b">081</text>
<text text-anchor="middle" x="212.88" y="-57.85" font-family="Helvetica,sans-Serif" font-size="18.00" fill="#34262b">8</text>
</g>
<!-- 081&#45;&gt;253352561534995 -->
<g id="edge19" class="edge">
<title>081&#45;&gt;253352561534995</title>
<path fill="none" stroke="#34262b" stroke-width="0.75" d="M260.18,-40.79C272.21,-41.73 287.01,-41.49 297.59,-40.04"/>
<polygon fill="#34262b" stroke="#34262b" stroke-width="0.75" points="298.16,-43.5 307.11,-37.83 296.58,-36.68 298.16,-43.5"/>
</g>
<!-- 081&#45;&gt;253352561534995 -->
<g id="edge20" class="edge">
<title>081&#45;&gt;253352561534995</title>
<path fill="none" stroke="#34262b" stroke-width="0.75" d="M260.18,-28.41C271.51,-27.52 285.31,-27.69 295.72,-28.92"/>
<polygon fill="#34262b" stroke="#34262b" stroke-width="0.75" points="294.75,-32.3 305.23,-30.74 296.06,-25.42 294.75,-32.3"/>
</g>
<!-- 082 -->
<g id="node25" class="node">
<title>082</title>
<ellipse fill="#dbde92" stroke="#34262b" cx="124.35" cy="-78.6" rx="21.6" ry="21.6"/>
<text text-anchor="middle" x="124.35" y="-70.87" font-family="Helvetica,sans-Serif" font-size="18.00" fill="#34262b">082</text>
<text text-anchor="middle" x="97.88" y="-101.85" font-family="Helvetica,sans-Serif" font-size="18.00" fill="#34262b">9</text>
</g>
<!-- 082&#45;&gt;156364735562291 -->
<g id="edge21" class="edge">
<title>082&#45;&gt;156364735562291</title>
<path fill="none" stroke="#34262b" stroke-width="0.75" d="M135.35,-97.65C139.56,-104.95 144.39,-113.3 148.67,-120.72"/>
<polygon fill="#34262b" stroke="#34262b" stroke-width="0.75" points="145.63,-122.46 153.66,-129.37 151.69,-118.96 145.63,-122.46"/>
</g>
<!-- 156189361184507 -->
<g id="node31" class="node">
<title>156189361184507</title>
<ellipse fill="none" stroke="#34262b" cx="52.35" cy="-78.6" rx="3.6" ry="3.6"/>
<text text-anchor="middle" x="43.88" y="-83.85" font-family="Helvetica,sans-Serif" font-size="18.00" fill="#34262b">2</text>
</g>
<!-- 082&#45;&gt;156189361184507 -->
<g id="edge38" class="edge">
<title>082&#45;&gt;156189361184507</title>
<path fill="none" stroke="#34262b" stroke-width="0.75" d="M102.36,-78.6C85.98,-78.6 65.02,-78.6 56.37,-78.6"/>
</g>
<!-- 156596690231090 -->
<g id="node32" class="node">
<title>156596690231090</title>
<ellipse fill="none" stroke="#34262b" cx="160.35" cy="-16.25" rx="3.6" ry="3.6"/>
</g>
<!-- 082&#45;&gt;156596690231090 -->
<g id="edge39" class="edge">
<title>082&#45;&gt;156596690231090</title>
<path fill="none" stroke="#34262b" stroke-width="0.75" d="M135.35,-59.55C143.62,-45.23 154.23,-26.85 158.47,-19.5"/>
</g>
<!-- 088 -->
<g id="node26" class="node">
<title>088</title>
<ellipse fill="#dbde92" stroke="#34262b" cx="248.35" cy="-212.6" rx="21.6" ry="21.6"/>
<text text-anchor="middle" x="248.35" y="-204.87" font-family="Helvetica,sans-Serif" font-size="18.00" fill="#34262b">088</text>
<text text-anchor="middle" x="221.88" y="-235.85" font-family="Helvetica,sans-Serif" font-size="18.00" fill="#34262b">4</text>
</g>
<!-- 088&#45;&gt;360051049043076 -->
<g id="edge22" class="edge">
<title>088&#45;&gt;360051049043076</title>
<path fill="none" stroke="#34262b" stroke-width="0.75" d="M265.22,-226.28C274.1,-230.81 285.02,-235.3 294.38,-238.26"/>
<polygon fill="#34262b" stroke="#34262b" stroke-width="0.75" points="293.45,-241.63 304.01,-240.78 295.23,-234.86 293.45,-241.63"/>
</g>
<!-- 088&#45;&gt;360051049043076 -->
<g id="edge23" class="edge">
<title>088&#45;&gt;360051049043076</title>
<path fill="none" stroke="#34262b" stroke-width="0.75" d="M269.96,-214.85C279.43,-217.93 290.33,-222.48 299.04,-227"/>
<polygon fill="#34262b" stroke="#34262b" stroke-width="0.75" points="297.24,-230.01 307.64,-232.03 300.77,-223.96 297.24,-230.01"/>
</g>
<!-- 359590657654446 -->
<g id="node38" class="node">
<title>359590657654446</title>
<ellipse fill="none" stroke="#34262b" cx="275.9" cy="-279.12" rx="3.6" ry="3.6"/>
</g>
<!-- 088&#45;&gt;359590657654446 -->
<g id="edge40" class="edge">
<title>088&#45;&gt;359590657654446</title>
<path fill="none" stroke="#34262b" stroke-width="0.75" d="M256.77,-232.92C263.1,-248.2 271.22,-267.8 274.47,-275.65"/>
</g>
<!-- 359642314904307 -->
<g id="node39" class="node">
<title>359642314904307</title>
<ellipse fill="none" stroke="#34262b" cx="220.8" cy="-279.12" rx="3.6" ry="3.6"/>
</g>
<!-- 088&#45;&gt;359642314904307 -->
<g id="edge41" class="edge">
<title>088&#45;&gt;359642314904307</title>
<path fill="none" stroke="#34262b" stroke-width="0.75" d="M239.93,-232.92C233.6,-248.2 225.48,-267.8 222.23,-275.65"/>
</g>
<!-- 359749191076977 -->
<g id="node40" class="node">
<title>359749191076977</title>
<ellipse fill="none" stroke="#34262b" cx="181.83" cy="-240.15" rx="3.6" ry="3.6"/>
</g>
<!-- 088&#45;&gt;359749191076977 -->
<g id="edge42" class="edge">
<title>088&#45;&gt;359749191076977</title>
<path fill="none" stroke="#34262b" stroke-width="0.75" d="M228.03,-221.02C212.75,-227.35 193.15,-235.47 185.3,-238.72"/>
</g>
<!-- 359813838431707 -->
<g id="node41" class="node">
<title>359813838431707</title>
<ellipse fill="none" stroke="#34262b" cx="181.83" cy="-185.05" rx="3.6" ry="3.6"/>
</g>
<!-- 088&#45;&gt;359813838431707 -->
<g id="edge43" class="edge">
<title>088&#45;&gt;359813838431707</title>
<path fill="none" stroke="#34262b" stroke-width="0.75" d="M228.03,-204.18C212.75,-197.85 193.15,-189.73 185.3,-186.48"/>
</g>
<!-- 359943398969027 -->
<g id="node42" class="node">
<title>359943398969027</title>
<ellipse fill="none" stroke="#34262b" cx="220.8" cy="-146.08" rx="3.6" ry="3.6"/>
<text text-anchor="middle" x="212.32" y="-151.33" font-family="Helvetica,sans-Serif" font-size="18.00" fill="#34262b">7</text>
</g>
<!-- 088&#45;&gt;359943398969027 -->
<g id="edge44" class="edge">
<title>088&#45;&gt;359943398969027</title>
<path fill="none" stroke="#34262b" stroke-width="0.75" d="M239.93,-192.28C233.6,-177 225.48,-157.4 222.23,-149.55"/>
</g>
<!-- 360186567754554 -->
<g id="node43" class="node">
<title>360186567754554</title>
<ellipse fill="none" stroke="#34262b" cx="275.9" cy="-146.08" rx="3.6" ry="3.6"/>
</g>
<!-- 088&#45;&gt;360186567754554 -->
<g id="edge45" class="edge">
<title>088&#45;&gt;360186567754554</title>
<path fill="none" stroke="#34262b" stroke-width="0.75" d="M256.77,-192.28C263.1,-177 271.22,-157.4 274.47,-149.55"/>
</g>
<!-- 360247014033845 -->
<g id="node44" class="node">
<title>360247014033845</title>
<ellipse fill="none" stroke="#34262b" cx="314.87" cy="-185.05" rx="3.6" ry="3.6"/>
</g>
<!-- 088&#45;&gt;360247014033845 -->
<g id="edge46" class="edge">
<title>088&#45;&gt;360247014033845</title>
<path fill="none" stroke="#34262b" stroke-width="0.75" d="M268.67,-204.18C283.95,-197.85 303.55,-189.73 311.4,-186.48"/>
</g>
</g>
</svg>
