<svg viewBox="0 0 120 100" width="360px" height="300px" xmlns="http://www.w3.org/2000/svg">
  <defs>
    <style>
      .number { font-family: Arial; font-size: 10px; font-weight:bold }
      .layer1 { fill: #ff6b6b; }
      .layer2 { fill: #feca57; }
      .layer3 { fill: #48dbfb; }
      .layer4 { fill: #1dd1a1; }
      .layer5 { fill: #ff9ff3; }
      .layer6 { fill: #8b5cf6; }
    </style>
  </defs>

    <rect x="1" y="1" width="119" height="99" fill="ivory" stroke="DarkGray" stroke-width="0.2" />

  <!-- Layer 1: 1² = 1 dot -->
  <g opacity="0">
    <animate attributeName="opacity" values="0;1" dur="1s" fill="freeze"/>
    <text x="18" y="16" text-anchor="end" class="number layer1">1</text>
    <circle cx="30" cy="12" r="5" class="layer1"/>
  </g>
  
  <!-- Layer 2: Add 3 dots for 2² -->
  <g opacity="0">
    <animate attributeName="opacity" values="0;0;1" begin="1s" dur="1s" fill="freeze"/>
    <text x="18" y="31" text-anchor="end" class="number layer2">4</text>
    <circle cx="45" cy="12" r="5" class="layer2"/>
    <circle cx="30" cy="27" r="5" class="layer2"/>
    <circle cx="45" cy="27" r="5" class="layer2"/>
  </g>
  
  <!-- Layer 3: Add 5 dots for 3² -->
  <g opacity="0">
    <animate attributeName="opacity" values="0;0;1" begin="2s" dur="1s" fill="freeze"/>
    <text x="18" y="46" text-anchor="end" class="number layer3">9</text>
    <circle cx="60" cy="12" r="5" class="layer3"/>
    <circle cx="60" cy="27" r="5" class="layer3"/>
    <circle cx="60" cy="42" r="5" class="layer3"/>
    <circle cx="45" cy="42" r="5" class="layer3"/>
    <circle cx="30" cy="42" r="5" class="layer3"/>
  </g>
  
  <!-- Layer 4: Add 7 dots for 4² -->
  <g opacity="0">
    <animate attributeName="opacity" values="0;0;1" begin="3s" dur="1s" fill="freeze"/>
    <text x="18" y="61" text-anchor="end" class="number layer4">16</text>
    <circle cx="75" cy="12" r="5" class="layer4"/>
    <circle cx="75" cy="27" r="5" class="layer4"/>
    <circle cx="75" cy="42" r="5" class="layer4"/>
    <circle cx="75" cy="57" r="5" class="layer4"/>
    <circle cx="60" cy="57" r="5" class="layer4"/>
    <circle cx="45" cy="57" r="5" class="layer4"/>
    <circle cx="30" cy="57" r="5" class="layer4"/>
  </g>
  
  <!-- Layer 5: Add 9 dots for 5² -->
  <g opacity="0">
    <animate attributeName="opacity" values="0;0;1" begin="4s" dur="1s" fill="freeze"/>
    <text x="18" y="76" text-anchor="end" class="number layer5">25</text>
    <circle cx="90" cy="12" r="5" class="layer5"/>
    <circle cx="90" cy="27" r="5" class="layer5"/>
    <circle cx="90" cy="42" r="5" class="layer5"/>
    <circle cx="90" cy="57" r="5" class="layer5"/>
    <circle cx="90" cy="72" r="5" class="layer5"/>
    <circle cx="75" cy="72" r="5" class="layer5"/>
    <circle cx="60" cy="72" r="5" class="layer5"/>
    <circle cx="45" cy="72" r="5" class="layer5"/>
    <circle cx="30" cy="72" r="5" class="layer5"/>
  </g>
  
  <!-- Layer 6: Add 11 dots for 6² -->
  <g opacity="0">
    <animate attributeName="opacity" values="0;0;1" begin="5s" dur="1s" fill="freeze"/>
    <text x="18" y="91" text-anchor="end" class="number layer6">36</text>
    <circle cx="105" cy="12" r="5" class="layer6"/>
    <circle cx="105" cy="27" r="5" class="layer6"/>
    <circle cx="105" cy="42" r="5" class="layer6"/>
    <circle cx="105" cy="57" r="5" class="layer6"/>
    <circle cx="105" cy="72" r="5" class="layer6"/>
    <circle cx="105" cy="87" r="5" class="layer6"/>
    <circle cx="90" cy="87" r="5" class="layer6"/>
    <circle cx="75" cy="87" r="5" class="layer6"/>
    <circle cx="60" cy="87" r="5" class="layer6"/>
    <circle cx="45" cy="87" r="5" class="layer6"/>
    <circle cx="30" cy="87" r="5" class="layer6"/>
  </g>
</svg>